<svg width="22" height="22" viewBox="0 0 22 22" fill="none" xmlns="http://www.w3.org/2000/svg">
<g id="elements">
<g id="Icon">
<path fill-rule="evenodd" clip-rule="evenodd" d="M15.1923 11.7115C15.0758 11.4321 14.8027 11.25 14.5 11.25C14.1972 11.25 13.9241 11.4321 13.8076 11.7115L11.3076 17.7115C11.1483 18.0939 11.3291 18.533 11.7115 18.6923C12.0938 18.8516 12.5329 18.6708 12.6923 18.2885L13.3333 16.75H15.6666L16.3076 18.2885C16.467 18.6708 16.9061 18.8516 17.2884 18.6923C17.6708 18.533 17.8516 18.0939 17.6923 17.7115L15.1923 11.7115ZM14.5 13.95L15.0416 15.25H13.9583L14.5 13.95Z" fill="#161616"/>
<path d="M7.15 3.25C7.56421 3.25 7.9 3.58579 7.9 4V4.21552H11C11.4142 4.21552 11.75 4.5513 11.75 4.96552C11.75 5.37973 11.4142 5.71552 11 5.71552H9.79728C9.42742 6.74664 8.85464 7.71119 8.21395 8.57728L9.11552 9.51455C9.40268 9.81307 9.39346 10.2879 9.09494 10.575C8.79642 10.8622 8.32163 10.8529 8.03448 10.5544L7.26126 9.75059C6.65985 10.4317 6.04053 11.0391 5.48266 11.5521C5.17775 11.8324 4.7033 11.8126 4.42293 11.5077C4.14256 11.2028 4.16244 10.7283 4.46735 10.4479C5.0382 9.923 5.66238 9.30717 6.2537 8.62414C6.12848 8.4632 6.00289 8.29589 5.88542 8.13299C5.64973 7.80615 5.40843 7.44486 5.28521 7.18047C5.11023 6.80503 5.27273 6.35883 5.64817 6.18384C6.02361 6.00886 6.46981 6.17137 6.64479 6.5468C6.70157 6.66862 6.86527 6.92724 7.10208 7.25565C7.13755 7.30483 7.1738 7.35441 7.21052 7.40399C7.59222 6.85898 7.92551 6.29315 8.18194 5.71552H4C3.58579 5.71552 3.25 5.37973 3.25 4.96552C3.25 4.5513 3.58579 4.21552 4 4.21552H6.4V4C6.4 3.58579 6.73579 3.25 7.15 3.25Z" fill="#161616"/>
<path fill-rule="evenodd" clip-rule="evenodd" d="M8.45109 0.25H8.54891C10.1512 0.249988 11.4205 0.249979 12.4248 0.368681C13.4557 0.490545 14.3044 0.746383 15.0134 1.3282C15.2539 1.52558 15.4744 1.74612 15.6718 1.98663C16.3772 2.8462 16.6099 3.92342 16.6958 5.30423C18.0763 5.39008 19.1536 5.62257 20.0134 6.3282C20.2539 6.52558 20.4744 6.74612 20.6718 6.98663C21.2536 7.69558 21.5095 8.54428 21.6313 9.57525C21.75 10.5795 21.75 11.8488 21.75 13.451V13.5489C21.75 15.1511 21.75 16.4205 21.6313 17.4248C21.5095 18.4557 21.2536 19.3044 20.6718 20.0134C20.4744 20.2539 20.2539 20.4744 20.0134 20.6718C19.3044 21.2536 18.4557 21.5095 17.4248 21.6313C16.4205 21.75 15.1512 21.75 13.549 21.75H13.4511C11.8489 21.75 10.5795 21.75 9.57525 21.6313C8.54428 21.5095 7.69558 21.2536 6.98663 20.6718C6.74612 20.4744 6.52558 20.2539 6.3282 20.0134C5.62278 19.1538 5.39007 18.0766 5.30421 16.6958C3.92341 16.6099 2.8462 16.3772 1.98663 15.6718C1.74612 15.4744 1.52558 15.2539 1.3282 15.0134C0.746383 14.3044 0.490545 13.4557 0.368681 12.4248C0.249979 11.4205 0.249988 10.1512 0.25 8.54891V8.45109C0.249988 6.84883 0.249979 5.57947 0.368681 4.57525C0.490545 3.54428 0.746383 2.69558 1.3282 1.98663C1.52558 1.74612 1.74612 1.52558 1.98663 1.3282C2.69558 0.746383 3.54428 0.490545 4.57525 0.368681C5.57947 0.249979 6.84883 0.249988 8.45109 0.25ZM6.78429 16.2769C6.8525 17.7782 7.04964 18.528 7.48772 19.0618C7.62277 19.2263 7.77366 19.3772 7.93822 19.5123C8.33563 19.8384 8.86197 20.0366 9.75133 20.1417C10.6572 20.2488 11.8379 20.25 13.5 20.25C15.1621 20.25 16.3428 20.2488 17.2487 20.1417C18.138 20.0366 18.6644 19.8384 19.0618 19.5123C19.2263 19.3772 19.3772 19.2263 19.5123 19.0618C19.8384 18.6644 20.0366 18.138 20.1417 17.2487C20.2488 16.3428 20.25 15.1621 20.25 13.5C20.25 11.8379 20.2488 10.6572 20.1417 9.75133C20.0366 8.86197 19.8384 8.33563 19.5123 7.93822C19.3772 7.77366 19.2263 7.62277 19.0618 7.48772C18.5307 7.05189 17.7855 6.85431 16.2979 6.78524L6.78429 16.2769ZM15.2167 5.74509C15.1494 4.22909 14.9525 3.47463 14.5123 2.93822C14.3772 2.77366 14.2263 2.62277 14.0618 2.48772C13.6644 2.16158 13.138 1.96344 12.2487 1.85831C11.3428 1.75123 10.1621 1.75 8.5 1.75C6.83789 1.75 5.65724 1.75123 4.75133 1.85831C3.86197 1.96344 3.33563 2.16158 2.93822 2.48772C2.77366 2.62277 2.62277 2.77366 2.48772 2.93822C2.16158 3.33563 1.96344 3.86197 1.85831 4.75133C1.75123 5.65724 1.75 6.83789 1.75 8.5C1.75 10.1621 1.75123 11.3428 1.85831 12.2487C1.96344 13.138 2.16158 13.6644 2.48772 14.0618C2.62277 14.2263 2.77366 14.3772 2.93822 14.5123C3.47215 14.9505 4.22213 15.1476 5.72412 15.2158L15.2167 5.74509Z" fill="#161616"/>
</g>
</g>
</svg>
