<svg width="261" height="52" viewBox="0 0 261 52" fill="none" xmlns="http://www.w3.org/2000/svg">
<path fill-rule="evenodd" clip-rule="evenodd" d="M221.705 30.0362C222.273 28.3709 222.958 26.7665 223.744 25.2626C223.974 24.8142 224.242 24.3296 224.587 23.7445C224.925 23.1488 225.204 22.6895 225.481 22.2549C226.382 20.8411 227.426 19.445 228.593 18.1132C230.122 16.362 231.877 14.729 233.8 13.2575L234.03 13.0817V0.77832C230.558 3.42804 227.414 6.34655 224.623 9.53975C222.573 11.8879 220.687 14.3748 219.009 17.0148C218.444 17.9024 217.912 18.8034 217.398 19.7062C216.868 20.6034 216.357 21.5146 215.872 22.4497C214.421 25.2239 213.209 28.0911 212.202 31.0483C210.83 35.0572 209.869 39.2322 209.312 43.5654L220.051 37.3763L220.104 36.9703C220.413 34.573 220.951 32.2401 221.705 30.0362Z" fill="#4D9744"/>
<path fill-rule="evenodd" clip-rule="evenodd" d="M236.711 13.9098C238.308 15.1983 239.783 16.6125 241.097 18.1126C242.256 19.4406 243.304 20.833 244.209 22.2615C244.492 22.7032 244.775 23.1769 245.106 23.7511C245.432 24.3143 245.702 24.7989 245.946 25.2621C246.731 26.7693 247.417 28.3737 247.981 30.0353C248.735 32.2391 249.273 34.572 249.585 36.9698L249.627 37.2987L260.499 43.5644C259.938 39.2312 258.982 35.0566 257.611 31.0474C256.604 28.0901 255.39 25.223 253.938 22.4487C253.453 21.5136 252.939 20.6025 252.413 19.7052C251.902 18.8029 251.367 17.9018 250.802 17.0138C249.124 14.3738 247.242 11.8869 245.187 9.53878C242.394 6.34557 239.259 3.42706 235.781 0.777344V13.18L235.882 13.2565C236.162 13.4719 236.438 13.6873 236.711 13.9098Z" fill="#1B8354"/>
<path fill-rule="evenodd" clip-rule="evenodd" d="M241.637 40.6127C239.911 40.9572 238.181 41.1692 236.49 41.2445C236.02 41.266 235.543 41.2765 235.029 41.2765H234.351C233.892 41.2765 233.447 41.2694 233.019 41.2517C231.322 41.1798 229.588 40.9753 227.876 40.6413C225.95 40.2678 224.01 39.6982 222.094 38.9696L210.594 45.6442C214.637 47.3213 218.74 48.577 222.907 49.3897C225.967 49.9875 229.064 50.3639 232.198 50.4901C233.249 50.533 234.3 50.5457 235.339 50.536C236.379 50.5423 237.423 50.5242 238.479 50.4784C241.607 50.3404 244.698 49.9496 247.768 49.335C251.926 48.5042 256.02 47.241 260.055 45.5479L248.081 38.6592C245.963 39.5215 243.796 40.1815 241.637 40.6127Z" fill="#965A25"/>
<path fill-rule="evenodd" clip-rule="evenodd" d="M242.46 29.7412H243.109L242.86 29.1422C242.544 28.3804 242.208 27.6589 241.864 26.9981C241.656 26.6039 241.427 26.1925 241.143 25.7025C240.844 25.1817 240.617 24.8052 240.386 24.4451C240.133 24.0451 239.836 23.611 239.481 23.1196L239.351 22.9404H239.13H230.558H230.338L230.208 23.1192C229.854 23.608 229.557 24.0425 229.299 24.4472C229.039 24.8553 228.812 25.2343 228.562 25.6755L228.529 25.7336C228.246 26.214 228.029 26.6031 227.849 26.9548L227.834 26.9842C227.486 27.6497 227.148 28.3757 226.829 29.1422L226.58 29.7412H227.229H242.46ZM244.468 34.338C244.294 33.508 244.081 32.673 243.833 31.8565L243.74 31.549H243.419H240.558H240.262L240.154 31.8254L239.078 34.6005L238.843 35.2066L239.493 35.1894C240.156 35.1722 243.493 35.0725 244.174 34.8398L244.536 34.7162L244.468 34.338ZM229.414 31.549L229.521 31.8254L230.596 34.6005L230.83 35.2016L230.185 35.1898C229.213 35.1717 226.002 35.1002 225.486 34.929L225.125 34.8062L225.202 34.4322C225.379 33.5661 225.599 32.6995 225.854 31.8565L225.947 31.549H226.269H229.117H229.414Z" fill="#575B5D"/>
<path fill-rule="evenodd" clip-rule="evenodd" d="M108.815 46.3055H106.849V37.9933H105.27L105.597 36.4144H106.849V35.014C106.849 33.9019 107.027 33.1173 107.385 32.6603C107.802 32.1046 108.536 31.8262 109.59 31.8262C110.384 31.8262 111.069 31.9354 111.646 32.1541L111.288 33.7923C110.692 33.6336 110.245 33.5541 109.947 33.5541C109.49 33.5541 109.187 33.6336 109.039 33.7923C108.89 33.9518 108.815 34.2692 108.815 34.7462V36.4144H110.96V37.9933H108.815V46.3055ZM46.9657 46.1269L46.6974 44.9945C46.5582 45.0347 46.3893 45.0542 46.1909 45.0542C45.8731 45.0542 45.7143 44.8756 45.7143 44.5176V36.414H43.7182V44.9945C43.7182 45.4316 43.8619 45.7844 44.15 46.0522C44.4378 46.3205 44.8303 46.4545 45.3271 46.4545C46.022 46.4545 46.5679 46.3449 46.9657 46.1269ZM45.6253 34.1056C45.8636 33.8576 45.9825 33.5544 45.9825 33.1968C45.9825 32.8595 45.8636 32.5665 45.6253 32.3177C45.387 32.0697 45.0887 31.9455 44.7315 31.9455C44.3934 31.9455 44.0955 32.0749 43.8373 32.3327C43.5792 32.5912 43.4501 32.8989 43.4501 33.2565C43.4501 33.5743 43.5792 33.8576 43.8373 34.1056C44.0955 34.3544 44.3934 34.4778 44.7315 34.4778C45.0887 34.4778 45.387 34.3544 45.6253 34.1056ZM14.313 46.306H16.6067L21.3142 32.3925H19.0798L15.5043 43.6247L11.9292 32.3925H9.60547L14.313 46.306ZM28.4646 40.4955H23.6678C23.7673 38.6482 24.5616 37.7248 26.0516 37.7248C26.8261 37.7248 27.4268 37.9331 27.8538 38.3503C28.2808 38.7676 28.4947 39.3537 28.4947 40.1082C28.4947 40.2276 28.4841 40.3566 28.4646 40.4955ZM29.5972 45.9781L29.9844 44.2498C29.0711 44.7068 27.9484 44.9349 26.6179 44.9349C25.7043 44.9349 25.009 44.7466 24.5324 44.3687C23.9366 43.8922 23.6484 43.0581 23.6683 41.866H30.2226C30.2823 41.4491 30.3123 41.0323 30.3123 40.6146C30.3123 39.4635 30.0538 38.5194 29.5375 37.7847C28.8227 36.7521 27.6607 36.2354 26.0521 36.2354C24.4825 36.2354 23.3107 36.7822 22.5363 37.874C21.8808 38.808 21.5532 40.0293 21.5532 41.5388C21.5532 42.9489 21.8215 44.0411 22.3577 44.816C23.1122 45.9082 24.4529 46.4542 26.3797 46.4542C27.6704 46.4542 28.7432 46.2959 29.5972 45.9781ZM41.9908 44.995L42.229 46.1274C41.8317 46.3454 41.2955 46.455 40.6205 46.455C40.1237 46.455 39.7267 46.3255 39.4288 46.0678C39.1309 45.8096 38.9815 45.4524 38.9815 44.995V39.6324C38.9815 39.0166 38.8922 38.6002 38.7136 38.381C38.5346 38.1626 38.2071 38.0534 37.7305 38.0534C37.2731 38.0534 36.7272 38.1927 36.092 38.4703C35.4559 38.7487 34.9299 39.086 34.5126 39.4834V46.306H32.5169V32.3925H34.5126V37.7255C34.9693 37.3082 35.5355 36.9559 36.2109 36.6677C36.8859 36.3804 37.4923 36.2359 38.0281 36.2359C39.1207 36.2359 39.8757 36.4546 40.2925 36.8914C40.7491 37.3882 40.9777 38.2422 40.9777 39.4538V44.5181C40.9777 44.8761 41.1368 45.0547 41.4546 45.0547C41.673 45.0547 41.8516 45.0352 41.9908 44.995ZM55.8439 44.339L55.4863 46.0077C54.692 46.3052 53.7187 46.4541 52.5667 46.4541C51.3548 46.4541 50.3222 46.0178 49.4682 45.1435C48.5744 44.2303 48.1275 42.9387 48.1275 41.2701C48.1275 39.8803 48.5448 38.6988 49.3789 37.725C50.2528 36.7322 51.4144 36.2354 52.8647 36.2354C54.0957 36.2354 55.1287 36.4043 55.9628 36.742L55.6353 38.4102C54.8608 38.0928 54.0263 37.9333 53.1326 37.9333C51.2058 37.9333 50.2426 39.0856 50.2426 41.3898C50.2426 43.6344 51.3048 44.7563 53.4309 44.7563C53.7483 44.7563 54.1651 44.7112 54.6823 44.6223C55.1981 44.5326 55.5854 44.4385 55.8439 44.339ZM61.0872 46.1274L60.849 44.995C60.7097 45.0352 60.5307 45.0547 60.3124 45.0547C59.9946 45.0547 59.8359 44.8761 59.8359 44.5181V32.3925H57.8397V44.995C57.8397 45.4321 57.9886 45.7849 58.2866 46.0527C58.5845 46.321 58.9815 46.455 59.4787 46.455C60.1732 46.455 60.7097 46.3454 61.0872 46.1274ZM64.3637 40.4955H69.1606C69.18 40.3566 69.1906 40.2276 69.1906 40.1082C69.1906 39.3537 68.9767 38.7676 68.5497 38.3503C68.1227 37.9331 67.522 37.7248 66.7475 37.7248C65.2575 37.7248 64.4632 38.6482 64.3637 40.4955ZM70.6805 44.2498L70.2929 45.9781C69.4389 46.2959 68.3661 46.4542 67.0754 46.4542C65.1486 46.4542 63.8079 45.9082 63.0534 44.816C62.5172 44.0411 62.2489 42.9489 62.2489 41.5388C62.2489 40.0293 62.5765 38.808 63.232 37.874C64.0068 36.7822 65.1782 36.2354 66.7478 36.2354C68.3564 36.2354 69.5184 36.7521 70.2332 37.7847C70.7495 38.5194 71.008 39.4635 71.008 40.6146C71.008 41.0323 70.978 41.4491 70.9183 41.866H64.364C64.3441 43.0581 64.6323 43.8922 65.2282 44.3687C65.7047 44.7466 66.4 44.9349 67.3136 44.9349C68.6441 44.9349 69.7668 44.7068 70.6805 44.2498ZM73.0347 44.2801L72.5878 46.0084C73.5209 46.3059 74.653 46.4549 75.9843 46.4549C77.0364 46.4549 77.9305 46.2166 78.6656 45.7401C79.5391 45.184 79.9762 44.4193 79.9762 43.446C79.9762 42.5924 79.6584 41.8967 79.0228 41.3605C78.5861 41.0029 77.8112 40.6153 76.6991 40.1985C75.964 39.9204 75.4725 39.6919 75.2245 39.5133C74.9756 39.3347 74.8523 39.116 74.8523 38.8578C74.8523 38.1629 75.5171 37.8151 76.8484 37.8151C77.6821 37.8151 78.487 37.9937 79.2615 38.3513L79.589 36.7427C78.8146 36.405 77.8806 36.2362 76.7884 36.2362C75.5374 36.2362 74.5738 36.4744 73.8984 36.9513C73.223 37.4279 72.8857 38.1033 72.8857 38.9771C72.8857 39.7122 73.1836 40.3178 73.7795 40.7947C74.1764 41.1324 74.9014 41.4998 75.9542 41.8967C76.7685 42.1946 77.3148 42.4479 77.5932 42.6566C77.8709 42.8648 78.0101 43.1286 78.0101 43.446C78.0101 44.3994 77.2154 44.876 75.6267 44.876C75.2886 44.876 74.8563 44.8167 74.3307 44.6974C73.8042 44.578 73.372 44.4392 73.0347 44.2801ZM85.2192 45.7692L85.5471 43.7434C86.7389 44.3193 87.95 44.6071 89.1815 44.6071C90.016 44.6071 90.691 44.4581 91.2077 44.1606C91.7833 43.8229 92.0715 43.3168 92.0715 42.6406C92.0715 42.1645 91.873 41.7472 91.476 41.3896C91.0782 41.032 90.3139 40.5754 89.1815 40.0193C87.8506 39.3638 86.9369 38.8081 86.4409 38.3507C85.7257 37.6952 85.3682 36.9309 85.3682 36.057C85.3682 34.6863 85.8451 33.6732 86.7985 33.0177C87.6123 32.4417 88.735 32.154 90.165 32.154C91.3762 32.154 92.5183 32.4121 93.5911 32.9284L93.2636 34.8649C92.0516 34.3092 90.9991 34.0308 90.1053 34.0308C88.3774 34.0308 87.5133 34.6165 87.5133 35.7883C87.5133 36.1861 87.6968 36.5388 88.0645 36.8461C88.4318 37.1545 89.1417 37.5665 90.1946 38.0828C91.5649 38.7383 92.5082 39.3041 93.0249 39.7807C93.7997 40.4759 94.187 41.2906 94.187 42.2237C94.187 43.6939 93.6406 44.8161 92.5484 45.5906C91.6741 46.2063 90.5522 46.514 89.1815 46.514C87.6521 46.514 86.3313 46.266 85.2192 45.7692ZM101.665 41.6882V42.6717C101.665 43.2874 101.456 43.7989 101.039 44.2056C100.622 44.6131 100.106 44.8168 99.4899 44.8168C98.3177 44.8168 97.7324 44.3302 97.7324 43.3568C97.7324 42.7415 97.9304 42.2942 98.3278 42.0162C98.7252 41.7381 99.3604 41.5989 100.235 41.5989C100.533 41.5989 101.01 41.6285 101.665 41.6882ZM104.883 46.1274L104.644 44.9953C104.525 45.0351 104.356 45.0546 104.138 45.0546C103.8 45.0546 103.631 44.876 103.631 44.5184V39.9006C103.631 38.5896 103.353 37.6564 102.797 37.0999C102.241 36.524 101.258 36.2362 99.8475 36.2362C98.6558 36.2362 97.603 36.4148 96.6897 36.7724L96.3622 38.411C97.3152 38.0538 98.2881 37.8744 99.2813 37.8744C100.175 37.8744 100.796 37.9844 101.144 38.2027C101.491 38.4211 101.665 38.8087 101.665 39.3644V40.2878C101.029 40.2087 100.493 40.1689 100.056 40.1689C98.8645 40.1689 97.9009 40.3771 97.1662 40.7944C96.1531 41.3707 95.6466 42.2941 95.6466 43.5654C95.6466 45.4921 96.6994 46.4549 98.8048 46.4549C100.155 46.4549 101.109 45.9784 101.665 45.025C101.665 45.4621 101.814 45.8096 102.112 46.0681C102.41 46.3259 102.807 46.4549 103.304 46.4549C103.899 46.4549 104.426 46.3457 104.883 46.1274ZM119.034 40.4955H114.237C114.337 38.6482 115.131 37.7248 116.621 37.7248C117.395 37.7248 117.996 37.9331 118.423 38.3503C118.85 38.7676 119.064 39.3537 119.064 40.1082C119.064 40.2276 119.054 40.3566 119.034 40.4955ZM120.166 45.9781L120.554 44.2498C119.64 44.7068 118.518 44.9349 117.187 44.9349C116.273 44.9349 115.578 44.7466 115.102 44.3687C114.506 43.8922 114.218 43.0581 114.238 41.866H120.792C120.852 41.4491 120.882 41.0323 120.882 40.6146C120.882 39.4635 120.623 38.5194 120.107 37.7847C119.392 36.7521 118.23 36.2354 116.621 36.2354C115.052 36.2354 113.88 36.7822 113.105 37.874C112.45 38.808 112.122 40.0293 112.122 41.5388C112.122 42.9489 112.391 44.0411 112.927 44.816C113.681 45.9082 115.022 46.4542 116.949 46.4542C118.24 46.4542 119.312 46.2959 120.166 45.9781ZM127.703 44.5774L128.001 46.0674C127.266 46.3251 126.531 46.4546 125.796 46.4546C125.062 46.4546 124.535 46.2606 124.217 45.8734C123.9 45.4862 123.741 44.8359 123.741 43.9219V37.993H122.162L122.49 36.4141H123.741V33.7624L125.707 33.1073V36.4141H127.763V37.993H125.707V43.6836C125.707 44.141 125.772 44.4434 125.901 44.5924C126.03 44.7414 126.303 44.816 126.72 44.816C127.058 44.816 127.385 44.7369 127.703 44.5774ZM128.716 36.4147L132.47 46.068C132.132 47.1404 131.775 47.8746 131.398 48.2724C131.119 48.5301 130.772 48.66 130.355 48.66C129.799 48.66 129.253 48.5602 128.716 48.3617L128.329 50.0303C128.806 50.2686 129.491 50.3879 130.385 50.3879C131.318 50.3879 132.058 50.1196 132.605 49.5834C133.151 49.0472 133.662 48.0739 134.139 46.6638L137.684 36.4147H135.539L133.394 43.5056L130.832 36.4147H128.716ZM153.027 44.0117L152.67 46.0675C151.736 46.365 150.693 46.514 149.542 46.514C147.416 46.514 145.747 45.8987 144.536 44.6672C143.324 43.4556 142.719 41.7573 142.719 39.5724C142.719 37.2483 143.334 35.4116 144.566 34.0608C145.738 32.79 147.326 32.154 149.333 32.154C150.663 32.154 151.895 32.3727 153.027 32.8095L152.67 34.7756C151.637 34.2792 150.574 34.0308 149.482 34.0308C147.833 34.0308 146.622 34.5966 145.847 35.729C145.191 36.663 144.864 37.974 144.864 39.6617C144.864 41.787 145.589 43.2368 147.039 44.0117C147.773 44.409 148.657 44.6071 149.69 44.6071C150.782 44.6071 151.895 44.409 153.027 44.0117ZM161.637 40.4955H156.841C156.94 38.6482 157.734 37.7248 159.224 37.7248C159.998 37.7248 160.599 37.9331 161.026 38.3503C161.453 38.7676 161.667 39.3537 161.667 40.1082C161.667 40.2276 161.657 40.3566 161.637 40.4955ZM162.77 45.9781L163.157 44.2498C162.243 44.7068 161.121 44.9349 159.79 44.9349C158.877 44.9349 158.182 44.7466 157.705 44.3687C157.109 43.8922 156.821 43.0581 156.841 41.866H163.395C163.455 41.4491 163.485 41.0323 163.485 40.6146C163.485 39.4635 163.226 38.5194 162.71 37.7847C161.995 36.7521 160.833 36.2354 159.224 36.2354C157.655 36.2354 156.483 36.7822 155.709 37.874C155.053 38.808 154.726 40.0293 154.726 41.5388C154.726 42.9489 154.994 44.0411 155.53 44.816C156.285 45.9082 157.625 46.4542 159.552 46.4542C160.843 46.4542 161.915 46.2959 162.77 45.9781ZM175.163 44.9945L175.401 46.127C175.004 46.3449 174.467 46.4545 173.792 46.4545C173.296 46.4545 172.899 46.3251 172.601 46.0673C172.303 45.8092 172.154 45.452 172.154 44.9945V39.6319C172.154 39.0162 172.065 38.5997 171.886 38.3805C171.707 38.1622 171.379 38.053 170.902 38.053C170.445 38.053 169.899 38.1922 169.263 38.4698C168.628 38.7483 168.102 39.0856 167.685 39.4829V46.3056H165.689V36.414H167.685V37.725C168.142 37.3078 168.707 36.9555 169.383 36.6673C170.058 36.3799 170.664 36.2354 171.2 36.2354C172.293 36.2354 173.048 36.4542 173.465 36.8909C173.921 37.3877 174.15 38.2417 174.15 39.4533V44.5176C174.15 44.8756 174.309 45.0542 174.627 45.0542C174.845 45.0542 175.023 45.0347 175.163 44.9945ZM181.747 46.0674L181.449 44.5774C181.131 44.7369 180.803 44.816 180.466 44.816C180.049 44.816 179.776 44.7414 179.647 44.5924C179.517 44.4434 179.453 44.141 179.453 43.6836V37.993H181.509V36.4141H179.453V33.1073L177.487 33.7624V36.4141H176.236L175.908 37.993H177.487V43.9219C177.487 44.8359 177.645 45.4862 177.963 45.8734C178.281 46.2606 178.807 46.4546 179.542 46.4546C180.277 46.4546 181.012 46.3251 181.747 46.0674ZM185.113 40.4955H189.909C189.929 40.3566 189.939 40.2276 189.939 40.1082C189.939 39.3537 189.726 38.7676 189.299 38.3503C188.872 37.9331 188.271 37.7248 187.496 37.7248C186.007 37.7248 185.212 38.6482 185.113 40.4955ZM191.43 44.2498L191.042 45.9781C190.188 46.2959 189.116 46.4542 187.825 46.4542C185.898 46.4542 184.557 45.9082 183.803 44.816C183.266 44.0411 182.998 42.9489 182.998 41.5388C182.998 40.0293 183.326 38.808 183.981 37.874C184.756 36.7822 185.928 36.2354 187.497 36.2354C189.106 36.2354 190.267 36.7521 190.983 37.7847C191.499 38.5194 191.758 39.4635 191.758 40.6146C191.758 41.0323 191.727 41.4491 191.668 41.866H185.113C185.094 43.0581 185.381 43.8922 185.977 44.3687C186.454 44.7466 187.149 44.9349 188.063 44.9349C189.393 44.9349 190.516 44.7068 191.43 44.2498ZM193.962 46.3056H195.958V39.4237C196.435 38.5494 197.001 38.1127 197.656 38.1127C198.152 38.1127 198.699 38.2121 199.295 38.4106L199.652 36.772C199.016 36.4144 198.401 36.2354 197.805 36.2354C197.447 36.2354 197.095 36.3698 196.748 36.6376C196.399 36.9059 196.136 37.2587 195.958 37.6954V36.4144H193.962V46.3056Z" fill="#575B5D"/>
<path fill-rule="evenodd" clip-rule="evenodd" d="M19.6566 5.92857C19.9282 6.20093 20.2415 6.33649 20.5963 6.33649C20.9738 6.33649 21.305 6.19443 21.5887 5.91112C21.8724 5.6274 22.0141 5.30837 22.0141 4.95403C22.0141 4.57614 21.8724 4.25102 21.5887 3.97908C21.305 3.70753 20.9738 3.57116 20.5963 3.57116C20.2415 3.57116 19.9282 3.70753 19.6566 3.97908C19.3847 4.25102 19.2491 4.57614 19.2491 4.95403C19.2491 5.33232 19.3847 5.65744 19.6566 5.92857ZM16.129 5.91141C16.4131 6.19472 16.7435 6.33678 17.1218 6.33678C17.4997 6.33678 17.8248 6.19472 18.0968 5.91141C18.3683 5.62769 18.5047 5.2973 18.5047 4.9186C18.5047 4.54112 18.3683 4.216 18.0968 3.94365C17.8248 3.67211 17.4997 3.53613 17.1218 3.53613C16.7435 3.53613 16.4131 3.67211 16.129 3.94365C15.8457 4.216 15.7036 4.54112 15.7036 4.9186C15.7036 5.2973 15.8457 5.62769 16.129 5.91141ZM13.6121 20.9064H24.0346C25.3107 20.9064 26.3035 20.576 27.0126 19.914C27.7448 19.2284 28.1117 18.2478 28.1117 16.9713V9.13717H25.8428V17.078C25.8428 18.1183 25.2989 18.6375 24.2119 18.6375H13.4351C12.8677 18.6375 12.4541 18.5023 12.1943 18.2299C11.9337 17.9584 11.8042 17.5156 11.8042 16.9011V11.8668L9.5 13.3556V16.7943C9.5 18.0473 9.81903 19.0275 10.4575 19.737C11.1662 20.5167 12.2174 20.9064 13.6121 20.9064ZM34.9532 20.9069H35.0948V20.9068H42.8934V20.9069H51.4017C52.5593 20.9069 53.4933 20.6001 54.2024 19.9851C55.0052 19.3 55.4075 18.3076 55.4075 17.0071V13.143C55.4075 11.9379 55.0998 10.993 54.4857 10.3071C53.8001 9.52735 52.796 9.13729 51.4728 9.13729H47.892V8.28654C47.892 7.19997 48.4472 6.65567 49.5582 6.65567H53.777V4.35142H49.8415C47.0291 4.35142 45.6231 5.69858 45.6231 8.39288V11.4062H51.5434C52.6304 11.4062 53.1743 11.9619 53.1743 13.0724V17.0781C53.1743 18.1189 52.6304 18.638 51.5434 18.638H43.0712V18.6375H41.653V9.13721H39.384V18.6375H34.9529V18.638C34.1259 18.6379 33.7128 18.1537 33.7128 17.1849V4.35142H31.4081V17.2912C31.4081 18.2836 31.715 19.1113 32.3299 19.7729C33.015 20.5294 33.8897 20.9069 34.9532 20.9069ZM40.5541 27.1102C40.1519 27.1102 39.815 26.9799 39.5438 26.7201C39.2715 26.46 39.1359 26.1292 39.1359 25.7277C39.1359 25.3494 39.2715 25.0243 39.5438 24.7528C39.815 24.4808 40.1519 24.3453 40.5541 24.3453C40.9084 24.3453 41.2214 24.4808 41.4933 24.7528C41.7645 25.0243 41.9008 25.3494 41.9008 25.7277C41.9008 26.1056 41.771 26.4307 41.5108 26.7027C41.2506 26.9738 40.9316 27.1102 40.5541 27.1102ZM59.2719 27.1105L57.6768 25.0899C58.7869 24.7352 59.5378 24.292 59.9278 23.7606C60.3179 23.2289 60.5127 22.3835 60.5127 21.2255V9.13719H62.7813V18.6375H64.1994V18.6382H66.7166V13.002C66.7166 11.4896 67.2126 10.4023 68.2054 9.74025C68.9372 9.24425 69.8477 8.99585 70.935 8.99585C72.2347 8.99585 73.2624 9.3506 74.0194 10.0593C74.7752 10.7684 75.1535 11.7494 75.1535 13.002V18.6382H76.4298V18.638H77.3159C77.9771 18.638 78.4443 18.5085 78.7162 18.2479C78.9877 17.9882 79.1241 17.5392 79.1241 16.9012V4.35142H81.3927V17.0781C81.3927 18.3311 81.0261 19.2886 80.2939 19.9498C79.6084 20.5879 78.6391 20.9069 77.3869 20.9069H76.5717V20.9071H75.0475C74.8819 21.8525 74.4444 22.579 73.7357 23.0872C73.0266 23.5954 72.0926 23.8494 70.935 23.8494C69.7766 23.8494 68.8195 23.554 68.0634 22.9634C67.3778 22.467 66.9411 21.7814 66.7515 20.9071H64.0223V20.9068H62.7813V21.9349C62.7813 24.3922 61.6115 26.1181 59.2719 27.1105ZM72.9207 12.9663V19.879C72.9207 21.037 72.2586 21.6163 70.9354 21.6163C69.6118 21.6163 68.9502 21.037 68.9502 19.879V12.9663C68.9502 11.8087 69.6118 11.2291 70.9354 11.2291C72.2586 11.2291 72.9207 11.8087 72.9207 12.9663ZM84.6895 22.183L86.9941 20.9069V4.35142H84.6895V22.183ZM100.748 6.33678C100.37 6.33678 100.045 6.19472 99.7737 5.91141C99.5014 5.62769 99.3658 5.2973 99.3658 4.9186C99.3658 4.54112 99.5014 4.216 99.7737 3.94365C100.045 3.67211 100.37 3.53613 100.748 3.53613C101.126 3.53613 101.451 3.67211 101.723 3.94365C101.994 4.216 102.131 4.54112 102.131 4.9186C102.131 5.2973 101.994 5.62769 101.723 5.91141C101.451 6.19472 101.126 6.33678 100.748 6.33678ZM100.926 18.6375V11.4061H98.6566C97.5692 11.4061 97.0261 11.9614 97.0261 13.0723V16.936C97.0261 17.5509 97.1613 17.9881 97.4332 18.2479C97.7052 18.5084 98.1602 18.6375 98.7983 18.6375H100.926ZM97.2738 6.33678C96.8955 6.33678 96.5651 6.19472 96.2813 5.91141C95.9976 5.62769 95.856 5.2973 95.856 4.9186C95.856 4.54112 95.9976 4.216 96.2813 3.94365C96.5651 3.67211 96.8955 3.53613 97.2738 3.53613C97.6516 3.53613 97.9768 3.67211 98.2487 3.94365C98.5207 4.216 98.6566 4.54112 98.6566 4.9186C98.6566 5.2973 98.5207 5.62769 98.2487 5.91141C97.9768 6.19472 97.6516 6.33678 97.2738 6.33678ZM104.471 20.9064H100.926V19.418L99.8264 20.9064H98.9756C97.4868 20.9064 96.3755 20.505 95.6433 19.7013C95.0284 19.0162 94.7215 18.083 94.7215 16.9011V13.1429C94.7215 11.7726 95.1586 10.721 96.0333 9.98792C96.742 9.42048 97.6403 9.13717 98.7276 9.13717H103.23V18.6375H104.613V18.6382H107.165V13.002C107.165 11.4896 107.66 10.4023 108.654 9.74025C109.385 9.24425 110.296 8.99585 111.383 8.99585C112.683 8.99585 113.711 9.3506 114.467 10.0593C115.223 10.7684 115.602 11.7494 115.602 13.002V19.879C115.602 21.3682 115.117 22.4434 114.148 23.105C113.439 23.6018 112.518 23.8494 111.383 23.8494C110.225 23.8494 109.268 23.554 108.512 22.9634C107.826 22.467 107.389 21.7814 107.2 20.9071H104.471V20.9064ZM113.369 12.9663V19.879C113.369 21.037 112.707 21.6163 111.383 21.6163C110.06 21.6163 109.398 21.037 109.398 19.879V12.9663C109.398 11.8087 110.06 11.2291 111.383 11.2291C112.707 11.2291 113.369 11.8087 113.369 12.9663ZM131.838 20.9069H118.898V18.638H123.01L119.288 9.13729H121.734L125.421 18.638H128.151V4.35142H130.42V18.638H131.661V18.6379H138.325V9.13719H140.595V18.6379H144.529V9.13719H146.798V18.6379H149.067C150.177 18.6379 150.733 18.1066 150.733 17.0427V9.13719H153.002V16.9364C153.002 18.2365 152.624 19.2289 151.868 19.914C151.159 20.576 150.177 20.9068 148.925 20.9068H131.838V20.9069ZM163.743 6.33648C163.34 6.33648 163.004 6.20091 162.732 5.92856C162.46 5.65743 162.325 5.33231 162.325 4.95402C162.325 4.57613 162.46 4.25101 162.732 3.97906C163.004 3.70752 163.34 3.57114 163.743 3.57114C164.097 3.57114 164.41 3.70752 164.682 3.97906C164.954 4.25101 165.09 4.57613 165.09 4.95402C165.09 5.33231 164.954 5.65743 164.682 5.92856C164.41 6.20091 164.097 6.33648 163.743 6.33648ZM161.333 27.1104L159.737 25.0899C160.848 24.7352 161.598 24.2919 161.988 23.7606C162.378 23.2285 162.573 22.3834 162.573 21.2254V9.13716H164.842V18.6375H166.26V18.638H174.732C175.819 18.638 176.363 18.1189 176.363 17.0781V13.0724C176.363 11.9619 175.819 11.4062 174.732 11.4062H168.812V8.39288C168.812 5.69858 170.218 4.35142 173.03 4.35142H176.966V6.65567H172.747C171.636 6.65567 171.081 7.19997 171.081 8.28654V9.13729H174.661C175.985 9.13729 176.989 9.52735 177.674 10.3071C178.288 10.993 178.596 11.9379 178.596 13.143V17.0071C178.596 18.3076 178.194 19.3 177.391 19.9851C176.682 20.6001 175.748 20.9069 174.59 20.9069H166.082V20.9064H164.842V21.9349C164.842 24.3922 163.672 26.118 161.333 27.1104ZM182.461 27.1105L180.865 25.0899C181.976 24.7352 182.726 24.292 183.116 23.7606C183.507 23.2289 183.701 22.3835 183.701 21.2255V9.13719H185.97V18.6375H187.388V18.6382H189.905V13.002C189.905 11.4896 190.4 10.4023 191.393 9.74025C192.126 9.24425 193.036 8.99585 194.123 8.99585C195.423 8.99585 196.451 9.3506 197.207 10.0593C197.963 10.7684 198.342 11.7494 198.342 13.002V19.879C198.342 21.3682 197.857 22.4434 196.888 23.105C196.18 23.6018 195.258 23.8494 194.123 23.8494C192.965 23.8494 192.008 23.554 191.252 22.9634C190.566 22.467 190.129 21.7814 189.94 20.9071H187.211V20.9068H185.97V21.9349C185.97 24.3922 184.8 26.1181 182.461 27.1105ZM196.108 12.9663V19.879C196.108 21.037 195.446 21.6163 194.123 21.6163C192.799 21.6163 192.137 21.037 192.137 19.879V12.9663C192.137 11.8087 192.799 11.2291 194.123 11.2291C195.446 11.2291 196.108 11.8087 196.108 12.9663Z" fill="#575B5D"/>
</svg>
