<svg width="20" height="22" viewBox="0 0 20 22" fill="none" xmlns="http://www.w3.org/2000/svg">
<g id="elements">
<g id="Icon">
<path fill-rule="evenodd" clip-rule="evenodd" d="M10 0.25C7.1005 0.25 4.75 2.6005 4.75 5.5C4.75 8.39949 7.1005 10.75 10 10.75C12.8995 10.75 15.25 8.39949 15.25 5.5C15.25 2.6005 12.8995 0.25 10 0.25ZM6.25 5.5C6.25 3.42893 7.92893 1.75 10 1.75C12.0711 1.75 13.75 3.42893 13.75 5.5C13.75 7.57107 12.0711 9.25 10 9.25C7.92893 9.25 6.25 7.57107 6.25 5.5Z" fill="#161616"/>
<path fill-rule="evenodd" clip-rule="evenodd" d="M16.2288 14.0792C16.0662 13.9874 15.9226 13.9064 15.8063 13.8372C12.2523 11.7209 7.74809 11.7209 4.19404 13.8372C4.07773 13.9064 3.93405 13.9875 3.77139 14.0793C3.05857 14.4814 1.98106 15.0893 1.2429 15.8118C0.781228 16.2637 0.342574 16.8592 0.262828 17.5888C0.178022 18.3646 0.516485 19.0927 1.1955 19.7396C2.36695 20.8556 3.77274 21.75 5.59104 21.75H14.4093C16.2276 21.75 17.6334 20.8556 18.8048 19.7396C19.4839 19.0927 19.8223 18.3646 19.7375 17.5888C19.6578 16.8592 19.2191 16.2637 18.7575 15.8118C18.0193 15.0893 16.9417 14.4813 16.2288 14.0792ZM4.96146 15.126C8.04264 13.2913 11.9577 13.2913 15.0389 15.126C15.2068 15.226 15.3907 15.3303 15.5834 15.4397C16.296 15.8439 17.1281 16.316 17.7082 16.8838C18.0683 17.2363 18.2218 17.5271 18.2464 17.7517C18.2659 17.9301 18.2208 18.2242 17.7702 18.6535C16.7343 19.6404 15.6818 20.25 14.4093 20.25H5.59104C4.3186 20.25 3.26602 19.6404 2.23017 18.6535C1.77954 18.2242 1.73445 17.9301 1.75395 17.7517C1.77851 17.5271 1.93202 17.2363 2.29214 16.8838C2.87223 16.316 3.70426 15.844 4.41686 15.4397C4.60953 15.3304 4.7936 15.226 4.96146 15.126Z" fill="#161616"/>
</g>
</g>
</svg>
