<svg xmlns="http://www.w3.org/2000/svg" width="99.781" height="68.171" viewBox="0 0 99.781 68.171">
    <defs>
        <style>
            .cls-1{fill:#fff}.cls-2{fill:#a09d9e}.cls-4{fill:#a19d9e}.cls-5{fill:#0073bc}.cls-6{fill:#1fa3ae}.cls-7{fill:#6ea22f}.cls-8{fill:#12265d}.cls-9{fill:#d6cc0d}.cls-10{fill:#a19e9f}.cls-11{fill:#0b2956}.cls-12{fill:#20a3ae}.cls-15{fill:#6fa22f}.cls-16{fill:#d6cc0e}.cls-17{fill:#a5a3a5}.cls-18{fill:#0c2a56}.cls-19{fill:#599d36}.cls-20{fill:#a19e9e}.cls-21{fill:#22a3ae}.cls-22{fill:#a5a3a6}.cls-23{fill:#6fa330}.cls-27{fill:#a4a1a1}.cls-28{fill:#a5a2a2}.cls-29{fill:#a29f9f}.cls-36{fill:#fefefe}
        </style>
    </defs>
    <g id="Group_1560" data-name="Group 1560">
        <g id="Group_2435" data-name="Group 2435">
            <path id="Path_992" d="M133.782 325.031q24.813 0 49.626-.005c.216 0 .264.048.264.264q-.009 33.821 0 67.642c0 .216-.049.264-.264.264q-49.626-.008-99.253 0c-.216 0-.264-.048-.264-.264q.009-33.821 0-67.642c0-.216.048-.264.264-.264q24.813.009 49.627.005z" class="cls-1" data-name="Path 992" transform="translate(-83.891 -325.026)"/>
            <path id="Path_993" d="M402.468 428.919a11.257 11.257 0 0 1-2.776 7.046 11.781 11.781 0 0 1-6.825 3.951 12.91 12.91 0 0 1-10.521-2.46 11.353 11.353 0 0 1-3.986-6.6 11.767 11.767 0 0 1-.218-3.311 11.523 11.523 0 0 1 2.523-6.533 11.667 11.667 0 0 1 5.57-3.84 12.892 12.892 0 0 1 3.516-.622 12.575 12.575 0 0 1 6.612 1.45 11.192 11.192 0 0 1 5.34 6.075 12.227 12.227 0 0 1 .765 4.844z" class="cls-2" data-name="Path 993" transform="translate(-307.526 -394.579)"/>
            <path id="Path_994" d="M312.364 427.373c.433.106.839.2 1.241.307a7.33 7.33 0 0 1 3.032 1.57 5.411 5.411 0 0 1 1.739 3.223 7.831 7.831 0 0 1-.283 3.877 6.989 6.989 0 0 1-4.8 4.558 9.838 9.838 0 0 1-3.11.443 11.707 11.707 0 0 1-6.7-1.964 13.649 13.649 0 0 1-2.073-1.855c-.106-.111-.094-.178.013-.279q1.62-1.527 3.23-3.065c.114-.109.155-.066.24.025a8.965 8.965 0 0 0 2.314 1.868 6.4 6.4 0 0 0 2.32.7 5.076 5.076 0 0 0 1.99-.128 2.687 2.687 0 0 0 1.585-4.08 3.309 3.309 0 0 0-2.088-1.262 15.509 15.509 0 0 0-3.715-.222c-.274 0-.38-.075-.439-.343q-.281-1.273-.619-2.533a.5.5 0 0 1 .162-.551c2.2-2.269 4.462-4.484 6.691-6.728a.449.449 0 0 0 .131-.2c-.3.19-.6.378-.9.57-.532.34-1.066.679-1.594 1.026a.7.7 0 0 1-.4.116h-7.393c-.244 0-.308-.083-.306-.316q.014-1.884 0-3.767c0-.239.079-.283.3-.283q7.45.008 14.9 0c.224 0 .295.057.292.288-.012 1.1-.007 2.2 0 3.307a.47.47 0 0 1-.152.38q-2.093 1.99-4.177 3.988c-.475.436-.943.871-1.431 1.33z" class="cls-2" data-name="Path 994" transform="translate(-249.168 -395.752)"/>
            <path id="Path_995" d="M113.451 437.079c.851-.419 1.7-.832 2.55-1.259a1.7 1.7 0 0 1 .795-.19q4.013.013 8.025 0c.26 0 .317.075.315.323q-.019 1.883 0 3.767c0 .23-.067.288-.292.288q-8.184-.009-16.367 0c-.262 0-.322-.088-.32-.332.011-1.131.008-2.262 0-3.393a.506.506 0 0 1 .207-.44c1.338-1.084 2.676-2.169 4-3.269 1.51-1.252 3.056-2.461 4.535-3.75a12.584 12.584 0 0 0 2.051-2.12 3.883 3.883 0 0 0 .673-3.394 2.731 2.731 0 0 0-2.346-1.95 4.375 4.375 0 0 0-3.715 1.35 13.352 13.352 0 0 0-1.383 1.5c-.1.138-.191.172-.346.046q-1.615-1.312-3.245-2.606c-.146-.116-.053-.2.013-.286.3-.384.594-.775.916-1.141a9.833 9.833 0 0 1 3.238-2.567 8.785 8.785 0 0 1 2.923-.776 11.073 11.073 0 0 1 4.154.3 6.449 6.449 0 0 1 4.974 5.426 7.715 7.715 0 0 1-2.083 6.851 33.489 33.489 0 0 1-3.812 3.306q-2.758 2.135-5.523 4.261c-.044.081 0 .076.063.055z" class="cls-2" data-name="Path 995" transform="translate(-102.336 -394.791)"/>
            <path id="Path_996" d="M315.2 363.79c-.042.676-.042.676-.7.676-.489 0-.978-.006-1.467 0a4.518 4.518 0 0 1-4.536-4.068 4.717 4.717 0 0 1 1.44-4.118 4.307 4.307 0 0 1 2.643-1.2c1-.1 2.011-.014 3.016-.049.256-.009.271.123.271.32q-.006 3.393 0 6.786a2.911 2.911 0 0 0 .049.628c.115.529.331.719.867.719h8.017c2.972 0 5.945 0 8.917.006.266 0 .333-.073.332-.334-.01-2.6 0-5.2-.012-7.793 0-.263.067-.341.333-.335.7.017.7 0 .7.721 0 2.818 0 5.636.006 8.454 0 .255-.067.318-.32.318q-9-.011-18.007-.005a1.8 1.8 0 0 1-1.549-.726z" class="cls-2" data-name="Path 996" transform="translate(-254.582 -347.833)"/>
            <path id="Path_997" d="M358.954 538.523h2.43a1.594 1.594 0 0 1 1.209.428 1.48 1.48 0 0 1 .434 1c.015.3.012.594.005.891 0 .148.048.2.2.2.48-.006.959-.01 1.438 0 .212.005.2-.119.2-.26v-4c0-.312.2-.445.492-.33.143.056.085.179.085.273 0 1.323.011 2.646 0 3.969 0 .276.064.368.347.349a10 10 0 0 1 1.179 0c.243.013.266-.069.2-.273a2.1 2.1 0 0 1 .8-2.311 2.127 2.127 0 0 1 2.4.011 2.08 2.08 0 0 1 .794 2.286c-.066.222-.053.3.2.286.4-.019.806-.014 1.208 0 .2.007.233-.047.177-.241a2.085 2.085 0 1 1 3.967.038c-.066.2.022.2.17.2.479 0 .959-.011 1.438 0 .208.006.256-.072.255-.266-.007-1.323 0-2.646 0-3.969 0-.335.2-.47.51-.354.106.039.108.121.108.209v4.745c0 .2-.1.212-.25.211h-2.388a.627.627 0 0 0-.443.148 2.1 2.1 0 0 1-2.826-.051.381.381 0 0 0-.288-.1h-2.1a.48.48 0 0 0-.334.128 2.1 2.1 0 0 1-2.827-.008.582.582 0 0 0-.425-.118h-11.018a3 3 0 0 1-1.574-.364 1.7 1.7 0 0 1-.868-1.636 1.834 1.834 0 0 1 1.218-1.692 4.7 4.7 0 0 1 1.924-.223c.208 0 .156.154.157.267 0 .92.009 1.841 0 2.761 0 .232.051.311.3.309q2.359-.017 4.718 0c.221 0 .313-.051.29-.285a7.422 7.422 0 0 0-.036-.888.8.8 0 0 0-.876-.733c-.892-.009-1.784-.005-2.675-.006a.515.515 0 0 1-.495-.817c.291-.54.578-1.081.869-1.62a.561.561 0 0 1 .656-.241c.14.062.042.139.007.206q-.425.816-.852 1.63c-.039.071-.064.133-.11.241z" class="cls-2" data-name="Path 997" transform="translate(-289.088 -485.705)"/>
            <path id="Path_998" d="M170.093 541.107a1.775 1.775 0 0 1-2.723.154c-.12-.117-.184-.116-.294 0a1.531 1.531 0 0 1-1.19.467c-2.838-.006-5.676 0-8.514-.007-.225 0-.315.028-.348.3-.132 1.07-.811 1.317-1.757 1.291a2.559 2.559 0 0 1-.614-.136c-.333-.1-.389-.286-.191-.579.076-.112.149-.048.223-.019a2.3 2.3 0 0 0 1.018.124.705.705 0 0 0 .721-.762c0-.164-.059-.221-.219-.214a3.5 3.5 0 0 1-1.051-.114 1.787 1.787 0 0 1-1.441-1.65 1.927 1.927 0 0 1 1.177-1.9 4.729 4.729 0 0 1 2.007-.244c.19 0 .142.148.142.252 0 .91.012 1.821-.005 2.731-.005.271.056.368.343.354.525-.025 1.051-.007 1.621-.007-.208-.5-.4-.964-.6-1.429-.111-.265-.221-.53-.336-.793-.046-.105-.069-.2.036-.282a3.76 3.76 0 0 1 1.645-.835 2.539 2.539 0 0 1 1.8.417c.751.434.748.442.424 1.229-.2.478-.393.956-.6 1.428-.083.187-.087.272.16.268q1.236-.016 2.473 0c.191 0 .244-.062.242-.247-.008-.814.006-1.629-.009-2.444 0-.258.1-.3.325-.3s.308.053.3.291c-.013.8 0 1.61-.01 2.415 0 .234.072.3.295.285.277-.017.556 0 .834-.006a.855.855 0 0 0 .91-.924c0-.594.011-1.189 0-1.782-.006-.251.115-.277.317-.277s.319.033.312.282c-.017.575-.009 1.15 0 1.725a1.047 1.047 0 0 0 1.157 1.04.952.952 0 0 0 1.032-1.042c0-.585.012-1.17-.005-1.754-.007-.249.118-.248.3-.252s.3.023.292.26c-.016.613 0 1.227-.007 1.84a.712.712 0 0 0 .6.806 5.071 5.071 0 0 0 1.4.075c.189 0 .13-.158.13-.259v-3.565c0-.182.007-.364 0-.546-.012-.246.157-.216.31-.217s.312-.027.312.217q-.006 2.372 0 4.744c0 .166-.062.215-.22.212-.518-.008-1.036.007-1.553-.011a1.331 1.331 0 0 1-1.171-.61z" class="cls-2" data-name="Path 998" transform="translate(-136.959 -485.807)"/>
            <path id="Path_999" fill="#63686f" d="M222.636 441.772c-.432.488-.489.665-.584 1.793a2.161 2.161 0 0 1 .507-2.564 1.647 1.647 0 0 0-1.2 1.569c-.031.042-.062.043-.092 0a1.725 1.725 0 0 1 1.078-2.064.212.212 0 0 1 .185-.071c-.136.018-.278-.044-.421.01a1.44 1.44 0 0 0-1.03.634c.055-.817.789-1.252 1.894-1.134a1.253 1.253 0 0 0-1.189-.355c.469-.562 1.1-.527 1.758.073a4.4 4.4 0 0 0 .383-1 6.292 6.292 0 0 0 .266.816c.07.166.116.2.266.051a1.077 1.077 0 0 1 1.653.1 1.2 1.2 0 0 0-1.228.307c.83-.073 1.528.052 1.846.918.021.057.054.12-.055.117a1.584 1.584 0 0 0-1.339-.544 2.072 2.072 0 0 1 1.078.872 1.94 1.94 0 0 1 .109 1.461 1.807 1.807 0 0 0-1.185-1.728 2.214 2.214 0 0 1 .418 2.633 2.211 2.211 0 0 0-.635-1.952c.223 1.363.133 1.92-.4 2.471a2.1 2.1 0 0 0-.395-2.14 11.82 11.82 0 0 0-.126 1.659 18.347 18.347 0 0 0 .158 3.152c.033.235.087.223.248.1a6.209 6.209 0 0 1 2.408-1.173 4.777 4.777 0 0 1 2.924.264 1.674 1.674 0 0 1 .178.092c.013.008.019.029.037.061a2.6 2.6 0 0 1-.668-.11 5.513 5.513 0 0 0-3.805.88 10.41 10.41 0 0 0-1.122.8c-.087.071-.164.122-.03.234.6.5 1.149 1.071 1.775 1.548.139.106.248.184.441.04a.477.477 0 0 1 .693.24.517.517 0 0 1-.313.677.845.845 0 0 1-.694-.071 4.568 4.568 0 0 1-1.036-.767c-.411-.374-.823-.747-1.215-1.141-.187-.188-.3-.2-.5-.006a23.1 23.1 0 0 1-1.764 1.6 1.866 1.866 0 0 1-.838.421.618.618 0 0 1-.668-.334.49.49 0 0 1 .152-.571.48.48 0 0 1 .588-.031c.107.065.18.1.3.016.685-.5 1.267-1.111 1.911-1.654.1-.084.029-.126-.032-.175a6.543 6.543 0 0 0-4.4-1.762 8.917 8.917 0 0 0-1.319.192c2.125-1.055 4.033-.524 5.82.851a17.81 17.81 0 0 0 .116-4.965c-.445.2-.533.6-.437 2.064a2.388 2.388 0 0 1-.39-2.333c.005-.067.004-.112-.08-.071z" data-name="Path 999" transform="translate(-185.519 -411.397)"/>
            <path id="Path_1000" d="M259.2 356.349a.09.09 0 0 0 .006.028 4.03 4.03 0 0 1 .408 2.162c-.024 1.84-.012 3.68 0 5.52 0 .248-.043.35-.324.343-.765-.019-.765 0-.765-.76v-8.338c0-.244.044-.325.32-.353a1.21 1.21 0 0 1 1.179.593c1.817 2.355 3.67 4.684 5.512 7.02.057.072.107.159.2.191a.079.079 0 0 0 .019-.1 3.132 3.132 0 0 1-.278-1.559c.013-1.936.01-3.872 0-5.808 0-.245.05-.331.313-.325.732.016.732 0 .732.736 0 2.78 0 5.559.006 8.338 0 .28-.055.369-.357.375a.893.893 0 0 1-.815-.387c-1.151-1.492-2.326-2.966-3.494-4.445l-2.6-3.288c-.095-.054-.082-.001-.062.057z" class="cls-2" data-name="Path 1000" transform="translate(-216.621 -347.767)"/>
            <path id="Path_1001" d="M220.882 359.245a4.807 4.807 0 1 1-4.77-4.888 4.756 4.756 0 0 1 4.77 4.888z" class="cls-2" data-name="Path 1001" transform="translate(-180.71 -347.32)"/>
            <path id="Path_1002" d="M430.776 361.345c-.049.631-.474.561-.854.53a4.4 4.4 0 0 1-2.977-1.164 3.285 3.285 0 0 1-.013-4.325 4.254 4.254 0 0 1 2.768-1.3c.651-.069 1.3-.016 1.952-.043.189-.008.245.058.244.247-.007 2.348 0 4.7-.01 7.045a2.263 2.263 0 0 1-2.041 2.253 5.216 5.216 0 0 1-2.477-.31c-.138-.048-.21-.1-.142-.258a3.325 3.325 0 0 0 .164-.519c.05-.214.136-.283.36-.182a3.439 3.439 0 0 0 2.049.231 1.183 1.183 0 0 0 1.062-1.225c.005-.3 0-.608 0-.912z" class="cls-2" data-name="Path 1002" transform="translate(-344.022 -347.844)"/>
            <path id="Path_1003" d="M166.408 364.118a5.453 5.453 0 0 1-3.575-1.286c-.207-.164-.231-.3-.022-.474.171-.146.255-.465.474-.456.181.008.353.236.53.366a4.044 4.044 0 0 0 3.632.731 1.484 1.484 0 0 0 1.133-1.619 1.237 1.237 0 0 0-.7-1.044 5.72 5.72 0 0 0-1.569-.538 8.7 8.7 0 0 1-1.941-.6 2.227 2.227 0 0 1-1.381-2.353 2.311 2.311 0 0 1 1.561-2.089 4.723 4.723 0 0 1 4.714.727c.126.092.138.17.032.276l-.019.022c-.174.19-.267.519-.493.575s-.4-.234-.615-.356a3.856 3.856 0 0 0-2.786-.51 1.748 1.748 0 0 0-.9.475 1.359 1.359 0 0 0 .315 2.208 8.2 8.2 0 0 0 2.045.646 6.919 6.919 0 0 1 1.764.666 2.44 2.44 0 0 1 .081 4 3.786 3.786 0 0 1-2.28.633z" class="cls-2" data-name="Path 1003" transform="translate(-143.767 -347.369)"/>
            <path id="Path_1004" d="M112.293 363.6a.786.786 0 0 0-.016-.378 1.662 1.662 0 0 1 .128-.893q1.486-3.532 2.948-7.074c.07-.169.145-.245.33-.233a5.287 5.287 0 0 0 .661 0c.239-.014.248.069.163.265-.563 1.3-1.116 2.6-1.674 3.906-.723 1.689-1.45 3.376-2.166 5.067a.35.35 0 0 1-.378.261c-.7-.008-.7 0-.977-.654q-1.837-4.3-3.681-8.6c-.079-.185-.076-.255.149-.242a5.611 5.611 0 0 0 .719 0 .3.3 0 0 1 .339.229q1.05 2.563 2.111 5.121c.438 1.051.881 2.107 1.344 3.225z" class="cls-2" data-name="Path 1004" transform="translate(-101.901 -347.821)"/>
            <path id="Path_1005" d="M299.1 541.123c-.292-.692-.564-1.344-.843-1.992-.179-.418-.183-.416.171-.689a3.441 3.441 0 0 1 1.419-.658 2.523 2.523 0 0 1 1.826.429c.722.422.717.431.4 1.2l-.708 1.711h1.658c.754 0 .754 0 .754-.763 0-1.169.007-2.338-.005-3.507 0-.251.069-.333.324-.331s.305.091.3.321q-.012 2.271 0 4.542c0 .249-.059.324-.317.323-2.262-.011-4.524 0-6.786-.012-.251 0-.337.059-.324.316a1.841 1.841 0 0 1-.087.563 1.049 1.049 0 0 1-1.358.673c-.123-.031-.12-.126-.087-.2.064-.146.006-.378.3-.373.436.008.553-.072.6-.365a3.533 3.533 0 0 0 .057-.6v-3.593a.328.328 0 0 1 .5-.318c.124.055.077.164.077.25 0 .929.009 1.859 0 2.788 0 .225.058.3.288.29.596-.016 1.19-.005 1.841-.005z" class="cls-2" data-name="Path 1005" transform="translate(-244.672 -485.784)"/>
            <path id="Path_1006" d="M260.574 545.689c-1.064 0-2.128.018-3.191-.006a2.145 2.145 0 0 1-1.822-.868 1.886 1.886 0 0 1 .84-2.788 4.745 4.745 0 0 1 2.006-.243c.189 0 .141.148.141.252 0 .91.012 1.82 0 2.73-.005.268.053.368.342.355.545-.025 1.092-.019 1.638 0 .236.008.286-.076.284-.294-.011-.91 0-1.82-.009-2.73 0-.22.028-.33.289-.321.235.007.344.046.34.316-.015.91 0 1.82-.012 2.73 0 .246.077.307.31.3.526-.016 1.054-.014 1.581 0 .2.005.26-.06.258-.26-.01-.929 0-1.859-.009-2.787 0-.219.048-.3.284-.3s.309.065.306.307q-.019 1.667 0 3.333c0 .236-.077.286-.3.285-1.092-.01-2.185 0-3.277 0z" class="cls-2" data-name="Path 1006" transform="translate(-214.13 -489.775)"/>
            <path id="Path_1007" d="M459.281 358.895c0-1.178.007-2.356-.005-3.533 0-.255.076-.329.327-.325.705.01.705 0 .705.717v6.521a4.2 4.2 0 0 1-.151 1.074 1.716 1.716 0 0 1-2.03 1.268c-.579-.057-.576-.084-.419-.655.015-.055.028-.111.037-.168.031-.187.088-.261.321-.213.787.163 1.2-.22 1.208-1.123.013-1.187 0-2.375 0-3.562z" class="cls-2" data-name="Path 1007" transform="translate(-367.959 -347.837)"/>
            <path id="Path_1008" d="M151.071 359.662v-4.425c0-.22.049-.318.285-.291.255.029.582-.1.749.053s.055.49.055.744c0 2.768 0 5.536.008 8.3 0 .256-.055.37-.328.334a1.97 1.97 0 0 0-.488 0c-.241.029-.283-.079-.282-.294.005-1.471.001-2.946.001-4.421z" class="cls-2" data-name="Path 1008" transform="translate(-134.951 -347.749)"/>
            <path id="Path_1009" d="M200.154 359.741c0 1.456-.009 2.913.007 4.369 0 .287-.085.372-.356.339a2.672 2.672 0 0 0-.517 0c-.183.014-.226-.065-.226-.234q.006-4.47 0-8.94c0-.205.078-.258.272-.261.819-.012.819-.017.819.79z" class="cls-2" data-name="Path 1009" transform="translate(-171.433 -347.817)"/>
            <path id="Path_1010" d="M111.319 545.6c-.623 0-1.247.027-1.868-.007a2.144 2.144 0 0 1-1.689-.779 1.868 1.868 0 0 1 .474-2.712 3.9 3.9 0 0 1 2.309-.4c.184.005.122.167.122.268 0 .919.01 1.839 0 2.758 0 .236.058.314.3.306.565-.018 1.13-.013 1.7 0 .2 0 .264-.057.262-.259-.01-.919 0-1.839 0-2.758a.364.364 0 0 1 .551-.306c.076.042.066.11.066.174v3.534c0 .186-.1.193-.238.192h-1.983z" class="cls-2" data-name="Path 1010" transform="translate(-101.742 -489.688)"/>
            <path id="Path_1011" d="M217.174 574.954l-1.02 1.526c-.221.33-.22.329-.435.009l-1.072-1.6v1.211c0 .479-.006.959 0 1.438 0 .177-.033.261-.235.255-.624-.018-.506.061-.51-.492-.007-1.1.007-2.2-.008-3.307 0-.274.091-.324.345-.342a.667.667 0 0 1 .709.39c.26.457.567.888.844 1.335.107.172.176.2.293.007.318-.512.648-1.017.976-1.524a.915.915 0 0 1 .854-.168c.084.062.061.155.061.238v3.624c0 .2-.07.244-.251.239-.6-.016-.49.06-.494-.478-.007-.782 0-1.565 0-2.347z" class="cls-2" data-name="Path 1011" transform="translate(-182.708 -513.999)"/>
            <path id="Path_1012" d="M432.72 575.692c.178.138.411.2.548.4a1.066 1.066 0 0 1-.346 1.519 1.717 1.717 0 0 1-.823.219c-.622.013-1.245 0-1.868.008-.179 0-.228-.061-.227-.233.006-1.216 0-2.432 0-3.648 0-.138.013-.254.192-.248.659.022 1.32-.046 1.979.039a1.051 1.051 0 0 1 1 .764.973.973 0 0 1-.421 1.124c-.012.009-.018.031-.034.056z" class="cls-2" data-name="Path 1012" transform="translate(-346.969 -514.045)"/>
            <path id="Path_1013" d="M138.073 576.461c0-.887.007-1.711 0-2.535 0-.216.059-.28.275-.276.468.01.468 0 .468.467v3.278c0 .129.082.337-.109.368-.211.034-.458.1-.635-.13-.358-.473-.725-.94-1.089-1.408-.328-.422-.658-.842-1.035-1.325v1.05c0 .518-.008 1.035 0 1.553.005.2-.038.292-.266.284-.566-.022-.473.058-.475-.471q-.008-1.625 0-3.249c0-.136-.1-.365.113-.391s.487-.127.686.135c.619.816 1.253 1.62 1.881 2.428.044.061.095.115.186.222z" class="cls-2" data-name="Path 1013" transform="translate(-122.877 -513.993)"/>
            <path id="Path_1014" d="M396.095 577.833c-.284 0-.5-.005-.719 0a.306.306 0 0 1-.274-.172c-.212-.307-.45-.6-.64-.916a.643.643 0 0 0-.671-.355c-.465.03-.467.008-.467.48 0 .249-.007.5 0 .746.006.16-.047.22-.212.218-.662-.013-.528.06-.532-.5-.008-1.11 0-2.221-.007-3.331 0-.244.081-.317.314-.306.63.032 1.262-.042 1.891.047a1.237 1.237 0 0 1 1.171 1.106 1.217 1.217 0 0 1-.783 1.353c-.211.083-.123.161-.05.263.313.441.626.875.979 1.367z" class="cls-2" data-name="Path 1014" transform="translate(-318.519 -514.044)"/>
            <path id="Path_1015" d="M340.173 577.832h-.8c-.152 0-.233-.043-.233-.21v-3.706c0-.119.027-.216.17-.211a9.417 9.417 0 0 1 2.029.1 1.94 1.94 0 0 1 1.536 1.924 1.969 1.969 0 0 1-1.5 2.013 4.941 4.941 0 0 1-1.202.09z" class="cls-2" data-name="Path 1015" transform="translate(-277.901 -514.042)"/>
            <path id="Path_1016" d="M194.5 577.711a2.089 2.089 0 0 1-2.159-2.1 2.121 2.121 0 0 1 2.171-2.156 2.126 2.126 0 1 1-.012 4.252z" class="cls-2" data-name="Path 1016" transform="translate(-166.321 -513.859)"/>
            <path id="Path_1017" d="M174.085 575.781v-1.841c0-.145.019-.239.2-.23.573.027 1.148-.034 1.722.044a2.035 2.035 0 0 1 .095 4.035 13.418 13.418 0 0 1-1.865.049c-.188.007-.148-.138-.148-.245-.006-.604-.004-1.208-.004-1.812z" class="cls-2" data-name="Path 1017" transform="translate(-152.445 -514.05)"/>
            <path id="Path_1018" d="M243.907 577.711a2.092 2.092 0 0 1-2.163-2.123 2.137 2.137 0 0 1 2.175-2.129 2.126 2.126 0 1 1-.011 4.252z" class="cls-2" data-name="Path 1018" transform="translate(-203.874 -513.859)"/>
            <path id="Path_1019" d="M156.884 575.3c.23 0 .46.006.69 0 .152-.006.2.055.2.2-.006.451 0 .9 0 1.351a.293.293 0 0 1-.1.253 2.448 2.448 0 0 1-3.163-.028 2.22 2.22 0 0 1-.346-2.557 2.16 2.16 0 0 1 2.253-1.091 2.416 2.416 0 0 1 1.054.424c.125.093.147.158.033.267a1.007 1.007 0 0 0-.122.159c-.133.19-.251.241-.481.083a1.374 1.374 0 0 0-1.888.224 1.458 1.458 0 0 0 1.92 2.169c.224-.183.1-.469.089-.7-.006-.2-.209-.095-.326-.112a2.163 2.163 0 0 0-.316 0c-.371 0-.485-.163-.383-.53.033-.121.119-.1.2-.107h.69z" class="cls-2" data-name="Path 1019" transform="translate(-137.109 -513.813)"/>
            <path id="Path_1020" d="M113.38 577.761c-.232 0-.452-.006-.67 0-.189.007-.266-.133-.357-.251-.362-.469-.728-.936-1.072-1.417-.117-.164-.158-.11-.293-.018a1.259 1.259 0 0 0-.457 1.294c.007.124.072.306-.079.363a1.158 1.158 0 0 1-.6.01c-.079-.013-.064-.108-.064-.173v-3.734c0-.145.047-.214.2-.2a1.675 1.675 0 0 0 .287 0c.2-.02.266.074.263.269-.009.562 0 1.124 0 1.731a3.528 3.528 0 0 0 .567-.569c.385-.413.777-.819 1.167-1.227a1.231 1.231 0 0 1 .957-.194c.158.082 0 .143-.039.185-.44.466-.881.931-1.334 1.385-.146.146-.183.238-.035.423.5.618.967 1.258 1.448 1.888a.377.377 0 0 1 .111.235z" class="cls-2" data-name="Path 1020" transform="translate(-103.576 -513.972)"/>
            <path id="Path_1021" d="M322.912 575.127c0-.383.008-.767 0-1.15-.005-.2.058-.275.262-.271.613.012.531-.04.524.522-.009.679.01 1.357-.032 2.038a1.668 1.668 0 0 1-2.128 1.6 1.547 1.547 0 0 1-1.389-1.632c-.017-.766 0-1.533-.01-2.3 0-.175.054-.235.23-.231.644.015.512-.064.519.511.008.652-.006 1.3 0 1.955a1.01 1.01 0 0 0 1.407.982.892.892 0 0 0 .611-.82v-.086q.006-.558.006-1.118z" class="cls-2" data-name="Path 1021" transform="translate(-263.461 -514.047)"/>
            <path id="Path_1022" d="M456.119 576.81h-.319c-.679 0-.679 0-.933.63a.63.63 0 0 1-.8.342c-.135-.059-.045-.146-.016-.213.265-.614.535-1.227.8-1.84.261-.6.526-1.189.779-1.787.081-.193.171-.324.415-.3.221.025.415-.026.539.276.5 1.219 1.043 2.423 1.579 3.629.085.191.064.247-.152.24-.621-.021-.481.086-.724-.469-.276-.63-.087-.5-.775-.511-.124.001-.259.003-.393.003z" class="cls-2" data-name="Path 1022" transform="translate(-365.21 -513.998)"/>
            <path id="Path_1023" d="M304.58 577.791c-.251.076-.372-.076-.473-.337-.25-.645-.262-.64-.968-.64-.345 0-.689.007-1.034 0a.236.236 0 0 0-.275.183c-.036.118-.1.229-.143.344-.19.472-.189.463-.7.458-.233 0-.225-.084-.148-.257.452-1.022.9-2.048 1.344-3.072.084-.193.185-.38.252-.578.062-.182.158-.266.356-.237s.418-.076.544.223c.528 1.25 1.082 2.488 1.629 3.73.055.123.062.2-.109.188-.075-.01-.155-.005-.275-.005z" class="cls-2" data-name="Path 1023" transform="translate(-248.756 -514.002)"/>
            <path id="Path_1024" d="M375.881 577.8c-.24.075-.357-.07-.456-.323-.255-.659-.267-.655-.962-.655-.335 0-.671.008-1.005 0a.277.277 0 0 0-.324.2c-.035.109-.088.211-.133.317-.206.489-.249.508-.785.463-.148-.013-.153-.06-.1-.176.555-1.26 1.113-2.517 1.655-3.783.112-.26.308-.159.482-.18a.317.317 0 0 1 .385.2q.8 1.857 1.62 3.7c.084.189.03.243-.157.228-.058.009-.116.009-.22.009z" class="cls-2" data-name="Path 1024" transform="translate(-302.946 -514.012)"/>
            <path id="Path_1025" d="M413.254 577.8c-.252.085-.355-.09-.45-.332-.255-.649-.263-.646-.969-.646-.335 0-.671.01-1.005 0a.283.283 0 0 0-.32.213c-.065.179-.149.352-.226.527a.734.734 0 0 1-.779.231c-.1-.065-.014-.137.011-.2q.483-1.119.974-2.234c.223-.508.456-1.011.666-1.524.074-.179.2-.189.344-.17.173.022.386-.095.5.161q.821 1.894 1.656 3.782c.062.14.028.2-.123.192h-.279z" class="cls-2" data-name="Path 1025" transform="translate(-331.352 -514.009)"/>
            <path id="Path_1026" d="M287.441 577.775a2.728 2.728 0 0 1-1.52-.525c-.142-.1-.135-.182-.033-.294a.588.588 0 0 0 .052-.068c.156-.234.308-.332.571-.1a1.51 1.51 0 0 0 1.192.3.521.521 0 0 0 .52-.415.434.434 0 0 0-.35-.517c-.362-.122-.732-.217-1.095-.337a1.128 1.128 0 0 1-.773-.633 1.154 1.154 0 0 1 .531-1.452 2.2 2.2 0 0 1 2.15.2c.1.084.16.157.048.279a1.216 1.216 0 0 0-.16.237c-.08.143-.164.146-.3.055a1.585 1.585 0 0 0-1.055-.3c-.253.022-.475.1-.534.387a.444.444 0 0 0 .357.539c.361.122.733.214 1.093.34a1.06 1.06 0 0 1 .81.87 1.151 1.151 0 0 1-.618 1.241 1.825 1.825 0 0 1-.886.193z" class="cls-2" data-name="Path 1026" transform="translate(-237.371 -513.924)"/>
            <path id="Path_1027" d="M263.338 575.758c0-.594.007-1.188 0-1.782 0-.214.07-.283.282-.281.843.009 1.686.016 2.529 0 .331-.007.277.19.288.391s-.027.31-.276.3c-.6-.019-1.207 0-1.811-.011-.22-.005-.289.065-.271.277a3.4 3.4 0 0 1 0 .574c-.017.209.072.258.265.254.517-.011 1.035 0 1.552-.008.2 0 .268.056.261.259-.016.5.036.421-.435.425-.45 0-.9.011-1.351 0-.22-.007-.307.048-.3.285.019.382 0 .766.009 1.149.006.193-.064.264-.249.239a.634.634 0 0 0-.086 0c-.411 0-.412 0-.412-.4z" class="cls-4" data-name="Path 1027" transform="translate(-220.285 -514.037)"/>
            <path id="Path_1028" d="M137.87 545.71c-.469 0-.939-.013-1.408.005-.262.01-.231-.145-.238-.311s.014-.283.24-.279c.737.013 1.475 0 2.212.009.2 0 .264-.062.259-.261-.013-.517 0-1.034-.011-1.55a.847.847 0 0 0-.921-.905h-.115a.351.351 0 0 1-.345-.534c.034-.083.1-.08.162-.084a1.541 1.541 0 0 1 1.835 1.626c.024.679 0 1.359.009 2.039 0 .214-.084.254-.271.25-.47-.015-.939-.005-1.408-.005z" class="cls-4" data-name="Path 1028" transform="translate(-123.668 -489.792)"/>
            <path id="Path_1029" d="M296.467 476.517c.1-.015.1.073.132.124.27.483.532.971.805 1.453.068.12.052.181-.069.246q-.745.4-1.483.811c-.114.064-.165.03-.221-.073-.268-.5-.54-.989-.814-1.482-.046-.084-.077-.148.037-.209.513-.276 1.023-.557 1.534-.836.027-.013.054-.022.079-.034z" class="cls-5" data-name="Path 1029" transform="translate(-244.184 -440.173)"/>
            <path id="Path_1030" d="M185.835 479.8l-.053.124c-.222.487-.447.972-.663 1.461-.064.144-.131.178-.282.106-.483-.229-.973-.446-1.462-.661-.146-.064-.174-.139-.1-.287.23-.482.45-.97.668-1.458.054-.121.1-.187.251-.114.5.239 1.007.462 1.51.694.052.026.131.035.131.135z" class="cls-6" data-name="Path 1030" transform="translate(-159.4 -442.016)"/>
            <path id="Path_1031" d="M277.092 507.426c-.071.554-.146 1.1-.208 1.656-.016.143-.06.164-.2.145-.55-.076-1.1-.14-1.654-.2-.138-.015-.177-.067-.158-.2.076-.55.15-1.1.209-1.652.016-.153.086-.168.206-.153.551.071 1.1.145 1.652.208.14.014.189.07.153.196z" class="cls-7" data-name="Path 1031" transform="translate(-229.053 -463.355)"/>
            <path id="Path_1032" d="M205.08 415.96c-.53-.058-1.053-.119-1.577-.17-.121-.012-.173-.046-.159-.173q.094-.856.18-1.713c.012-.12.079-.135.177-.124.562.06 1.123.122 1.686.177.152.015.157.1.144.219-.06.552-.121 1.1-.175 1.656-.022.221-.18.103-.276.128z" class="cls-7" data-name="Path 1032" transform="translate(-174.685 -392.485)"/>
            <path id="Path_1033" d="M297.1 441.379l-.05.11c-.234.492-.472.981-.7 1.476-.072.157-.145.183-.3.1-.478-.24-.963-.465-1.449-.69-.121-.056-.175-.1-.1-.247.252-.5.49-1.015.727-1.525.052-.111.1-.128.214-.073.505.249 1.015.488 1.523.733.051.029.135.032.135.116z" class="cls-8" data-name="Path 1033" transform="translate(-243.946 -412.799)"/>
            <path id="Path_1034" d="M241.227 402.309l-.123.133c-.366.393-.736.781-1.094 1.181-.117.13-.186.135-.316.009-.384-.374-.781-.736-1.182-1.091-.119-.1-.108-.173-.01-.276.382-.4.759-.812 1.138-1.218.056-.06.1-.139.2-.042.431.409.869.81 1.3 1.215.033.024.06.053.087.089z" class="cls-7" data-name="Path 1034" transform="translate(-201.353 -382.743)"/>
            <path id="Path_1035" d="M273.556 412.569c-.025-.078.007-.12.107-.138.573-.1 1.145-.213 1.718-.322.092-.017.141.013.159.11.1.573.214 1.145.321 1.717.022.114-.041.152-.14.17q-.832.147-1.664.3c-.091.016-.17.027-.192-.1-.1-.574-.203-1.147-.309-1.737z" class="cls-5" data-name="Path 1035" transform="translate(-228.048 -391.214)"/>
            <path id="Path_1036" d="M184.733 444.326c.023.095-.061.11-.113.14-.48.277-.965.546-1.443.826-.136.079-.2.041-.268-.084q-.39-.7-.8-1.393c-.082-.139-.062-.215.079-.293.477-.263.949-.535 1.421-.806.092-.053.157-.085.227.041.279.5.568 1 .854 1.492.018.024.03.051.043.077z" class="cls-6" data-name="Path 1036" transform="translate(-158.512 -414.446)"/>
            <path id="Path_1037" d="M207.615 508.152c.047-.013.1.04.121.14.113.561.222 1.123.34 1.682.026.123-.029.146-.127.165-.552.108-1.1.217-1.654.334-.154.033-.192-.024-.219-.167-.1-.525-.214-1.046-.319-1.57-.017-.085-.07-.194.083-.225.572-.111 1.142-.231 1.775-.359z" class="cls-5" data-name="Path 1037" transform="translate(-176.504 -464.218)"/>
            <path id="Path_1038" d="M240.834 517.566c.043.036.088.07.128.107.408.375.813.753 1.223 1.124.1.088.113.146.012.25q-.587.608-1.154 1.235c-.086.094-.137.1-.227.015-.417-.392-.839-.78-1.259-1.17-.057-.053-.113-.093-.031-.18.412-.438.819-.881 1.228-1.322a.645.645 0 0 1 .08-.059z" class="cls-9" data-name="Path 1038" transform="translate(-202.158 -471.375)"/>
            <path id="Path_1039" d="M442.08 344.368h-.89c-.1 0-.2 0-.2-.14a4.953 4.953 0 0 1 .056-1.2.947.947 0 0 1 .913-.735c.162-.012.325-.006.488-.006.442 0 .547.143.444.583-.024.1-.082.115-.164.115h-.546a.314.314 0 0 0-.344.237c-.082.284-.049.34.246.342s.575.006.861 0c.162 0 .239.031.243.219.014.583.022.583-.565.583z" class="cls-2" data-name="Path 1039" transform="translate(-355.316 -338.146)"/>
            <path id="Path_1040" d="M339.576 539.118c0-.766.009-1.532-.005-2.3 0-.245.1-.287.309-.285s.322.018.32.273q-.014 2.326 0 4.652c0 .277-.147.247-.325.255-.2.009-.312-.02-.307-.273.018-.771.008-1.546.008-2.322z" class="cls-10" data-name="Path 1040" transform="translate(-278.231 -485.794)"/>
            <path id="Path_1041" d="M241 539.128c0-.766.01-1.532-.006-2.3-.005-.259.1-.3.325-.3s.306.053.3.289q-.013 2.311 0 4.623c0 .258-.115.273-.312.269s-.327.013-.32-.259c.027-.771.013-1.55.013-2.322z" class="cls-10" data-name="Path 1041" transform="translate(-203.305 -485.791)"/>
            <path id="Path_1042" d="M466.851 539.139c0 .775-.01 1.551.005 2.326 0 .246-.115.259-.3.25s-.335.041-.332-.246c.013-1.551.011-3.1 0-4.652 0-.245.106-.283.313-.28s.321.023.316.277c-.011.775-.002 1.55-.002 2.325z" class="cls-10" data-name="Path 1042" transform="translate(-374.502 -485.794)"/>
            <path id="Path_1043" d="M127.567 575.789c0-.593.009-1.186 0-1.779-.005-.233.061-.343.305-.313a1.482 1.482 0 0 0 .258 0c.13-.007.191.041.19.181v3.759c0 .132-.044.18-.181.191-.569.044-.569.049-.569-.52z" class="cls-4" data-name="Path 1043" transform="translate(-117.085 -514.037)"/>
            <path id="Path_1044" d="M447.974 575.766c0-.612.005-1.224 0-1.835 0-.173.05-.25.228-.23a1.007 1.007 0 0 0 .229 0c.227-.027.3.07.294.295q-.014 1.778 0 3.556c0 .2-.037.292-.265.283-.58-.023-.474.064-.481-.491-.01-.527-.005-1.052-.005-1.578z" class="cls-4" data-name="Path 1044" transform="translate(-360.626 -514.039)"/>
            <path id="Path_1045" d="M358.49 575.774c0-.6.009-1.206 0-1.808-.005-.22.068-.3.279-.27a1.476 1.476 0 0 0 .258 0c.16-.008.219.066.218.224v3.7c0 .173-.074.207-.225.2-.647-.012-.516.062-.524-.5-.012-.513-.006-1.029-.006-1.546z" class="cls-4" data-name="Path 1045" transform="translate(-292.608 -514.036)"/>
            <path id="Path_1046" d="M290.8 454.026l-.1-.046c-.4-.189-.791-.384-1.193-.565-.117-.053-.136-.1-.081-.212q.285-.579.557-1.164c.055-.118.107-.153.238-.087.375.19.758.365 1.141.541.112.052.168.1.1.235-.2.394-.381.793-.571 1.189-.018.049-.038.104-.091.109z" class="cls-7" data-name="Path 1046" transform="translate(-240.098 -421.478)"/>
            <path id="Path_1047" d="M190.416 456.013c-.084.013-.1-.068-.128-.12-.215-.372-.424-.749-.643-1.118-.063-.105-.057-.161.054-.222.386-.212.769-.428 1.147-.653.119-.071.163-.024.218.074.21.376.424.749.639 1.122.047.081.084.142-.033.206-.4.221-.8.452-1.2.68z" class="cls-7" data-name="Path 1047" transform="translate(-164.243 -422.957)"/>
            <path id="Path_1048" d="M276.635 497.351c.048-.41.1-.789.135-1.169.016-.174.088-.221.257-.195q.594.091 1.193.154c.156.016.209.056.181.226-.065.4-.116.794-.148 1.193-.015.185-.082.223-.251.2-.377-.059-.756-.117-1.136-.147-.212-.019-.308-.074-.231-.262z" class="cls-11" data-name="Path 1048" transform="translate(-230.374 -454.968)"/>
            <path id="Path_1049" d="M287.037 483.734c.015.089-.04.117-.089.145-.384.213-.771.421-1.153.637-.112.063-.169.03-.225-.073-.2-.378-.409-.756-.62-1.129a.143.143 0 0 1 .066-.231c.387-.209.774-.416 1.157-.63.1-.057.149-.032.2.064.2.379.412.754.619 1.13.019.032.035.067.045.087z" class="cls-12" data-name="Path 1049" transform="translate(-236.689 -444.662)"/>
            <path id="Path_1050" d="M205.483 497.644c-.019-.093.011-.137.112-.156.441-.085.881-.177 1.321-.271.12-.026.152.043.17.136.083.422.164.845.25 1.267.023.11.02.175-.118.2-.433.077-.864.167-1.294.257-.087.018-.145.025-.167-.083-.089-.451-.182-.9-.274-1.35z" class="cls-7" data-name="Path 1050" transform="translate(-176.308 -455.904)"/>
            <path id="Path_1051" d="M277.431 426.507c.022.071-.036.111-.138.129-.413.073-.826.148-1.237.227-.153.029-.226-.015-.252-.178-.063-.4-.137-.788-.215-1.18-.03-.15-.009-.223.166-.248.386-.056.77-.131 1.152-.213.193-.041.27.01.3.211.056.404.141.805.224 1.252z" class="cls-12" data-name="Path 1051" transform="translate(-229.59 -401.039)"/>
            <path id="Path_1052" d="M196.841 486.5l-.108-.047c-.374-.17-.748-.344-1.124-.509-.124-.054-.185-.1-.111-.254.185-.377.358-.762.526-1.147.054-.123.108-.152.235-.092.38.182.764.354 1.149.524.113.05.171.1.107.234-.185.388-.361.781-.541 1.172-.027.058-.042.134-.133.119z" class="cls-9" data-name="Path 1052" transform="translate(-168.699 -446.182)"/>
            <path id="Path_1053" d="M217.338 418.83c-.377-.041-.747-.089-1.118-.117-.156-.012-.194-.077-.178-.218.046-.418.087-.836.126-1.254.01-.107.058-.156.166-.145l1.34.133c.112.011.128.075.115.182q-.078.64-.134 1.282c-.024.27-.215.092-.317.137z" class="cls-6" data-name="Path 1053" transform="translate(-184.335 -395.006)"/>
            <path id="Path_1054" d="M291.747 468.844c0 .087-.08.1-.134.131-.359.2-.721.392-1.079.594-.12.068-.2.079-.274-.064q-.293-.557-.607-1.1c-.068-.118-.056-.183.065-.247.38-.2.759-.4 1.134-.613.114-.064.169-.034.225.07.2.378.414.753.621 1.129.018.03.033.066.049.1z" class="cls-12" data-name="Path 1054" transform="translate(-240.258 -433.326)"/>
            <path id="Path_1055" d="M265.843 505.71c-.055.447-.107.845-.152 1.244-.016.14-.069.2-.221.177-.416-.061-.833-.118-1.251-.161-.15-.015-.169-.083-.152-.207.056-.407.118-.814.155-1.223.016-.179.1-.2.242-.181.388.054.776.111 1.166.153.17.018.27.056.213.198z" class="cls-6" data-name="Path 1055" transform="translate(-220.838 -462.092)"/>
            <path id="Path_1056" fill="#a4a3a5" d="M204.842 428.419c-.336-.036-.724-.08-1.113-.116-.141-.013-.144-.1-.135-.2.04-.408.08-.816.126-1.223.013-.113.065-.2.2-.185.436.044.873.083 1.309.128.108.011.14.088.128.186-.045.378-.083.757-.139 1.134-.037.286-.047.285-.376.276z" data-name="Path 1056" transform="translate(-174.874 -402.302)"/>
            <path id="Path_1057" d="M264.693 417.354c.027.067-.045.1-.124.112-.44.082-.882.161-1.322.244-.111.021-.156-.024-.174-.128q-.115-.648-.236-1.295c-.022-.116.01-.165.14-.185.414-.065.827-.144 1.238-.227.154-.031.214 0 .239.171.062.425.152.845.239 1.308z" class="cls-11" data-name="Path 1057" transform="translate(-219.902 -394.073)"/>
            <path id="Path_1058" d="M249.452 509.524c.04.033.077.061.111.092.316.293.628.59.948.877.1.09.112.149.014.25-.293.3-.578.612-.865.92-.073.078-.125.156-.246.036-.306-.3-.627-.591-.944-.882-.077-.07-.136-.124-.035-.23.312-.323.616-.655.924-.983.026-.025.057-.048.093-.08z" class="cls-6" data-name="Path 1058" transform="translate(-208.919 -465.262)"/>
            <path id="Path_1059" d="M192.347 470.326c-.017.041-.03.077-.046.112-.171.373-.348.744-.51 1.121-.066.152-.137.172-.283.1-.369-.179-.745-.345-1.122-.509-.12-.052-.158-.106-.1-.236.185-.387.359-.781.537-1.172.04-.088.085-.14.2-.088.407.19.817.372 1.225.558.052.024.113.041.099.114z" class="cls-5" data-name="Path 1059" transform="translate(-164.741 -434.942)"/>
            <path id="Path_1060" d="M195.383 438.768c.057.008.073.055.1.1.223.389.442.781.672 1.167.07.117.029.158-.072.213-.377.207-.752.418-1.122.638-.121.072-.176.052-.242-.068-.206-.377-.423-.749-.639-1.121-.047-.081-.082-.142.034-.206.4-.221.8-.453 1.2-.68.018-.018.044-.03.069-.043z" class="cls-11" data-name="Path 1060" transform="translate(-167.609 -411.481)"/>
            <path id="Path_1061" d="M286.6 437.767c-.017.043-.033.088-.053.131-.177.371-.36.739-.529 1.112-.059.13-.113.174-.256.1-.367-.185-.738-.361-1.113-.529-.147-.066-.174-.138-.1-.284.181-.358.349-.722.52-1.085.053-.113.1-.194.254-.114.383.2.776.371 1.164.556.041.026.113.034.113.113z" class="cls-6" data-name="Path 1061" transform="translate(-236.376 -410.189)"/>
            <path id="Path_1062" d="M232.466 410.32a1.294 1.294 0 0 1 .108.083c.319.3.635.607.956.906.087.081.1.134.009.227-.31.311-.612.63-.913.95-.085.091-.14.09-.229 0-.311-.31-.63-.612-.948-.914-.06-.057-.116-.1-.037-.184q.489-.5.975-1.009a.781.781 0 0 1 .079-.059z" class="cls-8" data-name="Path 1062" transform="translate(-195.992 -389.858)"/>
            <path id="Path_1063" fill="#a4a2a5" d="M249.382 411.525c-.034.044-.059.083-.09.116-.287.305-.581.605-.862.917-.115.128-.188.108-.3 0-.286-.294-.581-.58-.878-.864-.09-.086-.124-.143-.015-.251.29-.289.568-.592.846-.892.1-.107.183-.151.307-.026.294.3.6.59.9.885a1.25 1.25 0 0 1 .092.115z" data-name="Path 1063" transform="translate(-207.999 -389.953)"/>
            <path id="Path_1064" d="M234.923 510.968c-.037.043-.071.088-.11.13-.285.309-.575.615-.855.929-.092.1-.153.1-.251.01q-.467-.446-.948-.877c-.09-.08-.109-.132-.016-.228.306-.316.6-.642.9-.965.056-.06.106-.107.189-.029.342.321.688.637 1.032.955a.6.6 0 0 1 .059.075z" class="cls-7" data-name="Path 1064" transform="translate(-196.986 -465.545)"/>
            <path id="Path_1065" d="M219.832 506.168c.112-.045.126.04.142.116q.134.646.264 1.293c.02.1 0 .158-.119.181-.432.084-.862.177-1.292.266a.136.136 0 0 1-.185-.123c-.083-.432-.165-.864-.252-1.3-.017-.086-.018-.153.086-.173z" class="cls-6" data-name="Path 1065" transform="translate(-186.117 -462.702)"/>
            <path id="Path_1066" d="M206.265 437.486c.005.075-.058.093-.105.12-.272.157-.549.306-.817.47-.122.074-.174.044-.237-.074-.142-.269-.295-.534-.454-.794-.07-.115-.064-.176.062-.242.278-.147.547-.31.82-.465.065-.037.13-.087.188.015.173.307.349.612.523.918a.33.33 0 0 1 .02.052z" class="cls-15" data-name="Path 1066" transform="translate(-175.647 -409.723)"/>
            <path id="Path_1067" d="M204.243 455.6c.067.012.086.07.114.119.157.274.308.551.474.82.073.119.023.168-.073.222-.276.154-.552.308-.822.47-.114.069-.164.029-.22-.074-.151-.277-.31-.55-.469-.823-.051-.087-.065-.147.044-.206.294-.159.583-.329.874-.494a.79.79 0 0 1 .078-.034z" class="cls-12" data-name="Path 1067" transform="translate(-174.582 -424.274)"/>
            <path id="Path_1068" d="M215.2 436.788c-.331-.039-.606-.072-.881-.1-.11-.012-.174-.048-.157-.178q.063-.482.109-.967c.012-.124.08-.13.177-.119.3.035.606.074.91.1.158.011.193.083.174.222-.035.265-.08.529-.091.8-.011.205-.09.286-.241.242z" class="cls-12" data-name="Path 1068" transform="translate(-182.905 -408.935)"/>
            <path id="Path_1069" d="M247.689 425.463a1.245 1.245 0 0 1-.114-.085c-.23-.215-.456-.434-.687-.647-.086-.079-.1-.142-.012-.235q.343-.345.67-.7c.082-.09.134-.064.208.007.225.22.456.434.685.65.066.063.122.122.033.214-.239.247-.474.5-.711.746a.6.6 0 0 1-.072.05z" class="cls-12" data-name="Path 1069" transform="translate(-207.729 -400.053)"/>
            <path id="Path_1070" d="M276.245 479.448c.008.08-.062.092-.107.118-.275.155-.553.3-.829.459-.1.054-.161.067-.223-.057-.142-.282-.3-.557-.456-.83-.061-.106-.053-.168.059-.227.288-.152.572-.31.856-.468.079-.044.136-.043.184.047.157.3.319.589.479.883l.037.075z" class="cls-16" data-name="Path 1070" transform="translate(-228.841 -441.615)"/>
            <path id="Path_1071" d="M215.424 428.857c-.325-.039-.6-.081-.876-.1-.143-.011-.207-.049-.185-.2.042-.3.078-.607.1-.911.012-.151.085-.162.209-.146.294.038.588.074.883.095.157.011.191.074.169.22a7.992 7.992 0 0 0-.091.826c-.005.186-.074.253-.209.216z" class="cls-16" data-name="Path 1071" transform="translate(-183.059 -402.906)"/>
            <path id="Path_1072" d="M208.145 445.659c0 .074-.061.091-.108.118-.273.158-.551.309-.821.471-.1.062-.162.056-.223-.058q-.223-.417-.468-.822c-.065-.108-.051-.165.059-.225.277-.151.549-.312.824-.468.063-.036.129-.1.19.01.174.308.351.614.527.921a.4.4 0 0 1 .02.053z" class="cls-16" data-name="Path 1072" transform="translate(-177.074 -415.933)"/>
            <path id="Path_1073" d="M227.9 421.125c-.029.29-.058.527-.073.766-.01.164-.079.209-.239.185-.283-.044-.569-.077-.855-.1-.152-.01-.195-.059-.174-.21.039-.284.062-.57.082-.856.012-.177.1-.223.263-.2.227.034.456.06.684.072.26.018.435.082.312.343z" class="cls-5" data-name="Path 1073" transform="translate(-192.327 -397.754)"/>
            <path id="Path_1074" d="M198.594 462.846c-.16.342-.319.689-.483 1.032-.039.081-.1.022-.144 0-.3-.133-.585-.279-.886-.4-.15-.059-.123-.13-.073-.235q.2-.413.381-.831c.042-.094.065-.169.2-.1.3.148.606.277.909.417.048.022.118.031.096.117z" class="cls-8" data-name="Path 1074" transform="translate(-169.841 -429.357)"/>
            <path id="Path_1075" d="M284.077 475.144c.016.08-.062.084-.1.108-.281.16-.567.312-.849.471-.1.059-.162.042-.22-.067-.145-.279-.3-.553-.455-.825-.069-.119-.043-.178.077-.239.28-.142.554-.3.827-.451.088-.049.147-.061.2.046.155.295.32.585.481.877l.039.08z" class="cls-8" data-name="Path 1075" transform="translate(-234.785 -438.341)"/>
            <path id="Path_1076" d="M204.305 469.458c-.334-.155-.681-.312-1.023-.477-.073-.035-.023-.1 0-.149.132-.3.271-.588.4-.884.049-.113.106-.129.216-.076.282.137.569.267.856.393.108.047.146.094.087.214-.143.29-.272.587-.407.881-.025.05-.034.113-.129.098z" class="cls-16" data-name="Path 1076" transform="translate(-174.61 -433.58)"/>
            <path id="Path_1077" d="M224.619 428.717c-.033.3-.075.607-.1.912-.01.151-.08.17-.2.155-.313-.038-.626-.077-.94-.1-.124-.01-.137-.071-.125-.168.037-.322.079-.645.107-.968.01-.122.064-.138.165-.126.322.038.645.078.968.1.148.011.143.094.125.195z" class="cls-15" data-name="Path 1077" transform="translate(-189.819 -403.611)"/>
            <path id="Path_1078" d="M279.952 456.176c-.084.176-.178.384-.28.588-.282.56-.165.5-.709.244-.214-.1-.538-.169-.6-.333-.075-.193.149-.445.257-.666.227-.465.228-.463.693-.239.172.083.347.157.518.24.052.027.134.039.121.166z" class="cls-17" data-name="Path 1078" transform="translate(-231.695 -424.293)"/>
            <path id="Path_1079" d="M275.267 444.527c.14.067.286.136.431.208.212.106.561.18.6.331.047.188-.157.443-.263.665-.217.454-.221.456-.691.234-.221-.1-.562-.146-.62-.35-.05-.174.166-.424.266-.639.052-.113.1-.225.16-.335.023-.048.035-.111.117-.114z" class="cls-5" data-name="Path 1079" transform="translate(-228.936 -415.858)"/>
            <path id="Path_1080" d="M199.719 449.056c.076 0 .092.067.119.114.158.272.311.547.472.817.059.1.06.158-.058.22-.286.151-.566.316-.844.483-.1.061-.147.033-.2-.061q-.235-.426-.484-.843c-.054-.091-.054-.146.049-.2.285-.154.565-.319.847-.478.034-.021.068-.037.099-.052z" class="cls-5" data-name="Path 1080" transform="translate(-171.148 -419.301)"/>
            <path id="Path_1081" d="M269.229 489c-.04.312-.079.6-.115.9-.014.118-.06.16-.189.14-.273-.042-.548-.064-.823-.092-.2-.02-.285-.108-.248-.319.048-.281.081-.565.113-.848.013-.114.058-.136.169-.12.282.041.567.067.851.1.162.007.282.057.242.239z" class="cls-17" data-name="Path 1081" transform="translate(-223.713 -449.396)"/>
            <path id="Path_1082" d="M283.756 448.131l-.256.533c-.266.551-.267.552-.824.283-.188-.091-.467-.147-.533-.3s.139-.37.226-.558c.264-.571.265-.571.843-.3.146.07.293.138.438.209.05.033.112.048.106.133z" class="cls-16" data-name="Path 1082" transform="translate(-234.571 -418.208)"/>
            <path id="Path_1083" d="M200.351 475.954l.464.208c.636.291.636.291.349.915-.243.528-.243.528-.785.28-.607-.278-.607-.278-.341-.876.062-.14.131-.276.2-.415.019-.051.032-.11.113-.112z" class="cls-12" data-name="Path 1083" transform="translate(-172.045 -439.746)"/>
            <path id="Path_1084" d="M223.915 495.664c-.027-.085.036-.111.137-.13.319-.06.638-.125.954-.2.128-.03.15.044.168.131.064.309.12.62.187.928.03.139-.025.18-.156.2-.3.05-.6.112-.9.18-.1.023-.168.019-.191-.1l-.066-.337z" class="cls-8" data-name="Path 1084" transform="translate(-190.317 -454.472)"/>
            <path id="Path_1085" d="M241.144 417.484c.04.035.076.065.11.1.223.211.439.429.669.63.128.111.085.18-.012.275-.211.208-.421.419-.618.641-.1.109-.157.1-.25.005-.224-.223-.456-.438-.685-.656-.049-.046-.112-.093-.043-.165q.375-.4.755-.789a.3.3 0 0 1 .074-.041z" class="cls-16" data-name="Path 1085" transform="translate(-202.766 -395.303)"/>
            <path id="Path_1086" d="M256.249 504.564c-.31-.038-.612-.079-.914-.111-.117-.012-.14-.069-.126-.173.039-.292.074-.585.108-.878.019-.163.1-.235.268-.209.292.043.585.078.877.114.12.015.156.066.137.192-.042.273-.058.549-.1.823-.015.143-.044.298-.25.242z" class="cls-17" data-name="Path 1086" transform="translate(-214.106 -460.446)"/>
            <path id="Path_1087" d="M285.083 461.052c.342.164.687.327 1.029.5.075.037.012.1-.01.148-.137.294-.279.586-.416.881-.042.089-.079.136-.192.078-.289-.147-.584-.284-.88-.417-.113-.051-.132-.108-.076-.218.142-.281.273-.568.411-.851.027-.057.034-.14.134-.121z" class="cls-16" data-name="Path 1087" transform="translate(-236.379 -428.417)"/>
            <path id="Path_1088" d="M279.657 468.511c.021.061-.018.083-.046.1a.752.752 0 0 1-.125.069 6.931 6.931 0 0 1-.909.463c-.179-.315-.353-.632-.54-.942-.069-.114-.039-.163.068-.218.28-.145.558-.294.83-.452.107-.062.16-.06.221.058.149.288.312.569.469.854.014.028.025.057.032.068z" class="cls-18" data-name="Path 1088" transform="translate(-231.433 -433.316)"/>
            <path id="Path_1089" d="M207.6 488.437c-.08.168-.175.356-.259.548-.222.513-.221.516-.725.3-.159-.067-.309-.152-.468-.219-.141-.06-.189-.14-.116-.289.126-.257.243-.519.361-.78.052-.115.118-.161.247-.1.286.133.576.257.863.386a.141.141 0 0 1 .097.154z" class="cls-17" data-name="Path 1089" transform="translate(-176.706 -448.805)"/>
            <path id="Path_1090" d="M267.923 427.329c.025.131-.069.136-.156.151-.292.053-.584.1-.874.164-.143.03-.212-.008-.235-.157-.048-.3-.1-.6-.165-.9-.028-.131.022-.17.138-.19.3-.051.6-.112.9-.165.08-.014.179-.051.2.082z" class="cls-16" data-name="Path 1090" transform="translate(-222.679 -401.94)"/>
            <path id="Path_1091" d="M254.106 420.438c.223-.236.475-.5.721-.765.079-.086.135-.107.23-.01.221.226.451.443.686.654.1.095.1.156 0 .251-.213.206-.419.421-.618.641-.1.114-.175.143-.291.01-.234-.266-.482-.519-.728-.781z" class="cls-15" data-name="Path 1091" transform="translate(-213.271 -396.91)"/>
            <path id="Path_1092" d="M276.93 488.306c-.071-.005-.082-.067-.109-.115-.152-.275-.3-.553-.459-.822-.076-.126-.034-.18.079-.238.27-.14.54-.283.8-.437.121-.072.18-.052.242.07.143.279.3.553.451.826.042.075.07.134-.027.187-.31.168-.618.337-.927.506-.014.009-.032.017-.05.023z" class="cls-19" data-name="Path 1092" transform="translate(-230.159 -447.878)"/>
            <path id="Path_1093" d="M276.488 436.346c-.022-.119.031-.177.147-.2.319-.054.638-.108.955-.17.126-.025.144.045.16.139.048.291.092.583.156.87.033.146 0 .215-.148.241-.309.055-.618.11-.926.173-.1.02-.148-.012-.166-.1l-.178-.953z" class="cls-17" data-name="Path 1093" transform="translate(-230.28 -409.357)"/>
            <path id="Path_1094" d="M269.263 434.986c.054-.017.1.033.113.141q.078.467.172.931c.025.125-.027.172-.142.191-.311.053-.623.1-.932.172-.139.03-.166-.036-.185-.144-.053-.3-.11-.6-.166-.9-.019-.1-.022-.18.12-.2.323-.053.641-.12 1.02-.191z" class="cls-15" data-name="Path 1094" transform="translate(-223.918 -408.604)"/>
            <path id="Path_1095" d="M260.237 429.48c.033.1-.075.1-.154.117-.309.06-.621.109-.929.175-.14.03-.168-.049-.187-.148-.059-.309-.113-.619-.173-.929-.021-.108.013-.154.125-.172.311-.05.62-.112.93-.167.086-.015.174-.027.2.1.057.327.12.655.188 1.024z" class="cls-12" data-name="Path 1095" transform="translate(-216.831 -403.559)"/>
            <path id="Path_1096" d="M236.656 499.5c-.023.03-.044.062-.069.09-.213.232-.43.461-.64.7-.086.1-.154.116-.258.013-.218-.214-.446-.418-.674-.622-.082-.073-.122-.13-.024-.23.22-.225.429-.462.644-.692.05-.053.106-.128.191-.05q.391.357.779.719a.4.4 0 0 1 .051.072z" class="cls-17" data-name="Path 1096" transform="translate(-198.697 -457.012)"/>
            <path id="Path_1097" d="M242.393 506.461c-.038-.029-.078-.054-.113-.086-.225-.207-.446-.418-.674-.621-.107-.1-.122-.171-.011-.28.218-.214.428-.437.63-.666.089-.1.146-.082.229 0 .228.218.461.43.692.645.056.052.125.1.045.186l-.722.776a.425.425 0 0 1-.076.046z" class="cls-5" data-name="Path 1097" transform="translate(-203.703 -461.624)"/>
            <path id="Path_1098" d="M208.213 480.413c-.143-.065-.294-.127-.438-.2-.211-.107-.55-.137-.606-.322s.147-.427.243-.642c.221-.492.225-.5.725-.259.214.1.544.134.605.326.052.163-.154.409-.247.618-.054.122-.112.243-.167.364-.028.051-.038.11-.115.115z" class="cls-19" data-name="Path 1098" transform="translate(-177.587 -441.937)"/>
            <path id="Path_1099" d="M259.739 496.9c-.322-.04-.625-.084-.929-.113-.13-.013-.156-.065-.138-.186.046-.312.088-.625.116-.939.012-.135.074-.153.186-.138.313.042.625.082.939.117.131.015.149.08.132.2-.043.293-.077.587-.107.882-.015.134-.064.212-.199.177z" class="cls-15" data-name="Path 1099" transform="translate(-216.737 -454.616)"/>
            <path id="Path_1100" d="M267.909 496.569c.332.044.614.089.9.115.148.013.163.075.143.2-.044.282-.076.566-.105.851-.017.16-.061.239-.251.195a4.56 4.56 0 0 0-.624-.079c-.422-.04-.423-.038-.372-.444.026-.208.067-.415.081-.623.01-.19.069-.284.228-.215z" class="cls-15" data-name="Path 1100" transform="translate(-223.509 -455.398)"/>
            <path id="Path_1101" d="M217.75 498.724c.024.082-.067.1-.155.113-.309.062-.62.119-.927.189-.118.027-.154-.022-.174-.121-.062-.309-.126-.618-.19-.927-.022-.107-.009-.179.127-.2.311-.051.62-.116.929-.182.1-.021.168-.021.19.1.062.326.127.654.2 1.028z" class="cls-9" data-name="Path 1101" transform="translate(-184.531 -456.188)"/>
            <path id="Path_1102" d="M248.126 499.273l-.08.1c-.22.237-.444.472-.66.713-.07.077-.123.1-.209.022q-.362-.345-.735-.678c-.093-.083-.055-.134.013-.2.217-.228.427-.461.64-.692.059-.064.113-.132.209-.04.249.236.5.467.753.7a.78.78 0 0 1 .069.075z" class="cls-9" data-name="Path 1102" transform="translate(-207.403 -456.839)"/>
            <path id="Path_1103" d="M228.531 504.617c-.035-.029-.072-.056-.106-.087-.232-.214-.461-.432-.7-.643-.087-.078-.111-.133-.015-.229.223-.224.438-.456.646-.693.081-.092.136-.106.228-.018.227.22.462.432.693.647.065.061.128.114.036.21-.239.249-.47.5-.706.756a.522.522 0 0 1-.076.057z" class="cls-9" data-name="Path 1103" transform="translate(-193.162 -460.218)"/>
            <path id="Path_1104" d="M215.967 489.888c.045.135-.026.172-.138.192q-.437.08-.872.172c-.151.032-.223-.005-.247-.174a6.861 6.861 0 0 0-.169-.841c-.043-.16.02-.2.151-.227.291-.056.582-.112.871-.176.123-.027.194-.012.219.133.054.31.123.618.185.921z" class="cls-5" data-name="Path 1104" transform="translate(-183.187 -449.527)"/>
            <path id="Path_1105" d="M235.044 425.03l-.111-.1c-.215-.2-.426-.411-.646-.609-.109-.1-.15-.169-.018-.292.224-.208.429-.435.638-.658.08-.085.138-.1.232-.009.22.225.453.439.679.659.059.057.136.107.036.205-.244.242-.48.493-.72.739a.773.773 0 0 1-.09.065z" class="cls-9" data-name="Path 1105" transform="translate(-198.13 -399.721)"/>
            <path id="Path_1106" d="M414.183 399.686c-.5 0-.5 0-.5-.5 0-.531 0-.531.52-.531s.511 0 .511.513.005.518-.531.518z" class="cls-20" data-name="Path 1106" transform="translate(-334.568 -380.991)"/>
            <path id="Path_1107" d="M405.827 398.655c.5 0 .5 0 .5.5 0 .533 0 .533-.521.533s-.511 0-.511-.514-.002-.519.532-.519z" class="cls-20" data-name="Path 1107" transform="translate(-328.187 -380.991)"/>
            <path id="Path_1108" d="M336.033 347.206c-.008.547.072.469-.468.473-.563 0-.563 0-.563-.548a1.8 1.8 0 0 0 0-.229c-.027-.206.064-.274.261-.254.123.012.248 0 .373 0 .4 0 .4 0 .4.413z" class="cls-20" data-name="Path 1108" transform="translate(-274.754 -341.458)"/>
            <path id="Path_1109" d="M327.136 347.7c-.509 0-.509 0-.509-.518s0-.514.514-.512c.591 0 .513-.054.517.525.003.505 0 .505-.522.505z" class="cls-20" data-name="Path 1109" transform="translate(-268.393 -341.474)"/>
            <path id="Path_1110" d="M275.762 462.572a7.23 7.23 0 0 1-.345.689c-.076.12-.194 0-.272-.043-.179-.1-.505-.112-.506-.326a1.539 1.539 0 0 1 .3-.673c.07-.121.179-.007.25.033.185.106.424.133.573.32z" class="cls-21" data-name="Path 1110" transform="translate(-228.878 -429.264)"/>
            <path id="Path_1111" d="M211.289 453.347c.015.1-.049.12-.1.147-.171.1-.346.2-.517.305-.092.056-.14.038-.2-.055-.428-.618-.4-.716.289-1.035.051-.023.109-.075.15-.009.136.22.261.445.378.647z" class="cls-17" data-name="Path 1111" transform="translate(-179.89 -422.047)"/>
            <path id="Path_1112" d="M253.166 494.609c-.173-.021-.343-.045-.513-.062a.121.121 0 0 1-.122-.155c.024-.208.048-.415.079-.622.01-.066.046-.139.128-.129.226.028.451.064.676.1.106.018.095.108.088.182-.018.189-.037.379-.064.567s-.175.099-.272.119z" class="cls-22" data-name="Path 1112" transform="translate(-212.072 -453.19)"/>
            <path id="Path_1113" d="M262.657 489.589c-.035.649-.263.79-.861.563-.07-.027-.115-.068-.1-.147.007-.047.029-.092.032-.138.012-.2-.023-.438.107-.574s.357.032.545.015c.22-.02.358.048.277.281z" class="cls-17" data-name="Path 1113" transform="translate(-219.037 -449.841)"/>
            <path id="Path_1114" d="M274.414 473.358c.007.072-.057.086-.1.116-.614.406-.738.367-1.023-.309-.036-.086-.044-.142.05-.183a.807.807 0 0 0 .1-.054c.593-.357.75-.3.951.372a.607.607 0 0 0 .022.058z" class="cls-17" data-name="Path 1114" transform="translate(-227.831 -437.283)"/>
            <path id="Path_1115" d="M216.154 483.309c-.157.006-.381-.425-.3-.709.091-.338.495-.291.712-.257.342.053.289.487.255.693-.058.328-.476.145-.667.273z" class="cls-17" data-name="Path 1115" transform="translate(-184.181 -444.585)"/>
            <path id="Path_1116" d="M274.4 452.538c-.114.23-.226.461-.343.69-.02.039-.061.04-.1.021-.215-.1-.428-.21-.644-.31-.073-.034-.066-.078-.038-.137l.3-.619c.032-.07.081-.072.139-.045.208.1.415.193.621.293.036.018.087.04.065.107z" class="cls-23" data-name="Path 1116" transform="translate(-227.827 -421.631)"/>
            <path id="Path_1117" d="M222.825 489.958c-.02-.069 0-.11.074-.124.047-.009.092-.026.139-.036.727-.15.737-.14.8.609.009.109-.019.162-.126.178-.235.036-.536.183-.687.089-.193-.122-.125-.474-.2-.716z" class="cls-23" data-name="Path 1117" transform="translate(-189.488 -450.211)"/>
            <path id="Path_1118" d="M215.434 443.715a.087.087 0 0 1 .095.047l.073.123c.368.621.345.681-.337.958-.092.038-.141.028-.184-.054-.022-.042-.052-.081-.07-.125-.08-.188-.339-.393-.246-.536.12-.186.4-.265.618-.39a.469.469 0 0 1 .051-.023z" class="cls-23" data-name="Path 1118" transform="translate(-183.352 -415.24)"/>
            <path id="Path_1119" fill="#5a9e36" d="M269.591 444.09a.84.84 0 0 1-.766.222c-.326-.07-.171-.466-.258-.711-.037-.106.488-.351.746-.252.287.111.119.487.278.741z" data-name="Path 1119" transform="translate(-224.262 -414.945)"/>
            <path id="Path_1120" d="M269.011 482.539a.443.443 0 0 1-.083-.071 1.58 1.58 0 0 1-.083-.149c-.325-.6-.294-.669.361-.914.105-.039.173-.022.206.072.08.234.4.444.26.669-.117.19-.427.262-.661.393z" class="cls-21" data-name="Path 1120" transform="translate(-224.32 -443.873)"/>
            <path id="Path_1121" d="M243.3 495.985c-.114.123-.212.226-.307.33-.307.335-.306.335-.625.039-.348-.324-.348-.324-.019-.672.288-.3.288-.3.611-.009.115.101.224.203.34.312z" class="cls-18" data-name="Path 1121" transform="translate(-204.151 -454.568)"/>
            <path id="Path_1122" d="M262.64 436.645c0 .1-.482.325-.736.242-.3-.1-.185-.447-.245-.684-.042-.166.3-.307.726-.311.115-.001.26.43.255.753z" class="cls-22" data-name="Path 1122" transform="translate(-219.008 -409.295)"/>
            <path id="Path_1123" d="M211.1 474.2c-.228-.107-.47-.218-.709-.333-.04-.019-.032-.061-.014-.1l.3-.647c.03-.066.067-.083.132-.045a1.158 1.158 0 0 0 .129.06c.654.291.672.361.279.976-.033.041-.05.082-.117.089z" class="cls-18" data-name="Path 1123" transform="translate(-180.018 -437.541)"/>
            <path id="Path_1124" d="M231.6 431.974c.142.077.531-.108.506.2-.06.753.067.754-.41.723-.522-.034-.538-.038-.523-.4.027-.535.027-.541.427-.523z" class="cls-17" data-name="Path 1124" transform="translate(-195.838 -406.313)"/>
            <path id="Path_1125" fill="#0d2a56" d="M222.009 436.973c.12-.158-.14-.557.222-.593.216-.022.676-.143.7.208.048.693-.023.745-.269.718-.791-.088-.673-.027-.653-.333z" data-name="Path 1125" transform="translate(-188.86 -409.637)"/>
            <path id="Path_1126" d="M210.166 463.456c-.09.191-.2.424-.312.653-.025.051-.084.036-.128.013-.224-.12-.594-.145-.648-.352s.172-.459.272-.694c.027-.065.057-.087.128-.053.206.1.415.19.623.284.045.02.087.042.065.149z" class="cls-23" data-name="Path 1126" transform="translate(-179.04 -429.905)"/>
            <path id="Path_1127" d="M233.287 494.149a2.485 2.485 0 0 1-.566.606c-.136-.011-.213-.118-.3-.2-.372-.351-.371-.352-.014-.722.269-.278.268-.277.546-.012.083.079.172.151.26.225a.2.2 0 0 1 .074.103z" class="cls-17" data-name="Path 1127" transform="translate(-196.574 -453.174)"/>
            <path id="Path_1128" fill="#599e36" d="M253.167 431.889c-.109.12-.183.207-.262.288-.372.382-.373.381-.751.016-.264-.255-.264-.255 0-.526.352-.368.351-.367.728-.022.085.083.182.155.285.244z" data-name="Path 1128" transform="translate(-211.635 -405.872)"/>
            <path id="Path_1129" d="M243.2 430.037a1.378 1.378 0 0 0-.232.159c-.4.391-.384.38-.8.021-.225-.193-.208-.308 0-.5.4-.369.39-.382.8.01a.668.668 0 0 1 .232.31z" class="cls-23" data-name="Path 1129" transform="translate(-204.068 -404.388)"/>
            <path id="Path_1130" d="M119.072 536.844c.076.3-.089.3-.311.317-.266.015-.309-.088-.313-.326 0-.266.106-.31.339-.314.264-.006.354.085.285.323z" class="cls-27" data-name="Path 1130" transform="translate(-110.158 -485.782)"/>
            <path id="Path_1131" d="M114.957 536.87c.041.2-.026.3-.282.288-.224-.01-.373-.01-.353-.312.015-.232.043-.347.312-.326.314.026.321.012.323.35z" class="cls-27" data-name="Path 1131" transform="translate(-107.02 -485.781)"/>
            <path id="Path_1132" d="M267.034 536.853c.073.286-.093.3-.318.3s-.313-.059-.31-.3.055-.343.32-.338.364.078.308.338z" class="cls-28" data-name="Path 1132" transform="translate(-222.62 -485.779)"/>
            <path id="Path_1133" d="M365.312 537.141c-.285.072-.328-.066-.328-.305s.069-.316.31-.317.336.068.332.326-.052.378-.314.296z" class="cls-28" data-name="Path 1133" transform="translate(-297.548 -485.781)"/>
            <path id="Path_1134" d="M262.308 536.822c-.06-.248.062-.292.292-.3.3-.017.279.141.294.349.019.264-.1.281-.319.291-.275.009-.3-.129-.267-.34z" class="cls-2" data-name="Path 1134" transform="translate(-219.493 -485.779)"/>
            <path id="Path_1135" d="M361.457 536.861c.062.25-.065.287-.292.3-.3.019-.28-.138-.294-.346-.017-.259.1-.285.318-.295.278-.01.3.129.268.341z" class="cls-2" data-name="Path 1135" transform="translate(-294.421 -485.783)"/>
            <path id="Path_1136" d="M290.466 561.062c.054.234-.034.308-.28.316-.278.01-.3-.109-.306-.336-.005-.243.075-.3.309-.306.259-.004.323.099.277.326z" class="cls-2" data-name="Path 1136" transform="translate(-240.462 -504.189)"/>
            <path id="Path_1137" d="M131.225 561.5c-.222.042-.327-.011-.33-.274s.093-.313.332-.313.314.058.312.3-.076.347-.314.287z" class="cls-29" data-name="Path 1137" transform="translate(-119.618 -504.327)"/>
            <path id="Path_1138" d="M281.374 561.5c-.211.031-.343.01-.341-.267 0-.254.071-.329.324-.321.22.007.328.037.319.3-.008.229-.053.353-.302.288z" class="cls-29" data-name="Path 1138" transform="translate(-233.737 -504.325)"/>
            <path id="Path_1139" d="M127.376 561.236c.068.3-.125.265-.314.283-.289.027-.25-.15-.267-.335-.026-.268.132-.245.313-.26.263-.024.315.101.268.312z" class="cls-2" data-name="Path 1139" transform="translate(-116.499 -504.329)"/>
            <path id="Path_1140" d="M277.245 560.938c.3-.068.265.125.283.314.027.289-.15.25-.335.267-.268.026-.245-.132-.26-.313-.023-.263.101-.315.312-.268z" class="cls-2" data-name="Path 1140" transform="translate(-230.619 -504.33)"/>
            <path id="Path_1141" fill="#c1c1c3" d="M236.414 445.934a.606.606 0 0 1 .467-.007l-.231.068c-.061-.089-.16-.033-.236-.061z" data-name="Path 1141" transform="translate(-199.823 -416.889)"/>
            <path id="Path_1142" fill="#dbd8d8" d="M129.583 501.1a.249.249 0 0 1-.2.092c.006-.093.077-.12.142-.153z" data-name="Path 1142" transform="translate(-118.468 -458.816)"/>
            <path id="Path_1143" fill="#b5b5b8" d="M238.6 451.1l.142-.171a.243.243 0 0 1-.072.237z" data-name="Path 1143" transform="translate(-201.488 -420.723)"/>
            <path id="Path_1144" fill="#dfdddc" d="M261 360.155l-.116-.2c.118.01.145.079.176.142z" data-name="Path 1144" transform="translate(-218.419 -351.573)"/>
            <path id="Path_1145" fill="#818389" d="M255.428 447.894l.055-.117c.053.064.088.142.021.2-.026.028-.059-.044-.076-.083z" data-name="Path 1145" transform="translate(-214.275 -418.329)"/>
            <path id="Path_1146" fill="#a6a6aa" d="M232.891 454.957h.092c0 .049.045.128-.034.132s-.068-.073-.058-.132z" data-name="Path 1146" transform="translate(-197.142 -423.786)"/>
            <path id="Path_1147" d="M400.2 443.013a7.093 7.093 0 0 1 2.286-5.411 6.3 6.3 0 0 1 3.285-1.6 6.862 6.862 0 0 1 4.252.549 6.712 6.712 0 0 1 3.757 4.833 7.355 7.355 0 0 1-1.319 6.278 6.3 6.3 0 0 1-4.227 2.473 6.742 6.742 0 0 1-5.236-1.257 6.958 6.958 0 0 1-2.669-4.352 6.4 6.4 0 0 1-.129-1.513z" class="cls-1" data-name="Path 1147" transform="translate(-324.309 -409.292)"/>
            <path id="Path_1148" d="M318.717 359.071a.2.2 0 0 1 0 .044c-.457.131-.467.47-.463.87.019 1.7.011 3.394.006 5.09a4.357 4.357 0 0 0 .169 1.3c.024.078.072.179-.084.173a17.109 17.109 0 0 1-2.524-.064 3.583 3.583 0 0 1-2.792-2.938 3.98 3.98 0 0 1 .763-3.167 3.336 3.336 0 0 1 2.522-1.3c.798-.049 1.602-.008 2.403-.008z" class="cls-1" data-name="Path 1148" transform="translate(-258.014 -350.892)"/>
            <path id="Path_1149" d="M437.7 547.387a1.475 1.475 0 1 1-1.488-1.517 1.441 1.441 0 0 1 1.488 1.517z" class="cls-1" data-name="Path 1149" transform="translate(-350.579 -492.889)"/>
            <path id="Path_1150" d="M414.459 547.385a1.474 1.474 0 1 1-2.948-.028 1.475 1.475 0 1 1 2.948.028z" class="cls-1" data-name="Path 1150" transform="translate(-332.913 -492.888)"/>
            <path id="Path_1151" d="M358.393 545.7v1.119c0 .08.023.169-.1.209a2.075 2.075 0 0 1-1.666-.5 1.21 1.21 0 0 1-.225-1.336 1.386 1.386 0 0 1 1.193-.866c.8-.083.8-.069.8.71z" class="cls-1" data-name="Path 1151" transform="translate(-290.944 -491.693)"/>
            <path id="Path_1152" d="M176.2 547.093c-.5 0-.5 0-.69-.468-.2-.5-.4-1-.608-1.487a.275.275 0 0 1 .119-.4 2.144 2.144 0 0 1 2.429.041.206.206 0 0 1 .086.3c-.247.581-.487 1.165-.712 1.754-.076.2-.175.3-.394.264a1.4 1.4 0 0 0-.23-.004z" class="cls-1" data-name="Path 1152" transform="translate(-153.033 -491.754)"/>
            <path id="Path_1153" d="M158.364 545.748v1.148c0 .122-.022.2-.171.2a2.841 2.841 0 0 1-1.047-.12 1.211 1.211 0 0 1-.865-.977 1.323 1.323 0 0 1 .654-1.388 2.137 2.137 0 0 1 1.276-.229c.158 0 .152.111.152.219z" class="cls-1" data-name="Path 1153" transform="translate(-138.901 -491.755)"/>
            <path id="Path_1154" d="M219.682 366.29a3.7 3.7 0 0 1-3.688-3.632 4.031 4.031 0 0 1 .9-2.828 3.423 3.423 0 0 1 2.373-1.251 3.582 3.582 0 0 1 2.731.815 3.748 3.748 0 0 1 1.307 2.294 4.033 4.033 0 0 1-.633 3.066 3.49 3.49 0 0 1-2.99 1.536z" class="cls-1" data-name="Path 1154" transform="translate(-184.3 -350.514)"/>
            <path id="Path_1155" d="M434.558 359.345c-.569.147-.446.594-.446.983 0 1.169-.006 2.338.005 3.507 0 .231-.068.3-.293.288A7.3 7.3 0 0 1 432.2 364a2.33 2.33 0 0 1-1.783-1.914 2.406 2.406 0 0 1 1.5-2.473 3.5 3.5 0 0 1 1.4-.27c.407-.004.824.002 1.241.002z" class="cls-1" data-name="Path 1155" transform="translate(-347.272 -351.11)"/>
            <path id="Path_1156" d="M311.143 547.1c-.539-.015-.438.108-.669-.459-.209-.514-.41-1.032-.632-1.54a.233.233 0 0 1 .1-.333 2.153 2.153 0 0 1 2.454 0 .234.234 0 0 1 .1.318q-.38.915-.747 1.834a.232.232 0 0 1-.255.179c-.12-.008-.236.001-.351.001z" class="cls-1" data-name="Path 1156" transform="translate(-255.609 -491.759)"/>
            <path id="Path_1157" d="M259.818 545.662v1.119c0 .091.025.208-.121.213a1.925 1.925 0 0 1-1.62-.471 1.206 1.206 0 0 1-.261-1.33 1.386 1.386 0 0 1 1.174-.894c.827-.108.829-.093.829.732z" class="cls-1" data-name="Path 1157" transform="translate(-216.017 -491.659)"/>
            <path id="Path_1158" d="M111.942 545.67v1.119c0 .1.022.219-.145.219a2.673 2.673 0 0 1-1.1-.13 1.337 1.337 0 0 1-.87-1.371 1.458 1.458 0 0 1 1.285-1.205c.831-.086.831-.086.831.735l-.001.633z" class="cls-1" data-name="Path 1158" transform="translate(-103.594 -491.67)"/>
            <path id="Path_1159" d="M433.837 584.6c-.765 0-.753 0-.77-.748-.006-.271.06-.376.344-.351a8.6 8.6 0 0 1 1.141.054.52.52 0 0 1-.028 1.039.565.565 0 0 1-.086.006z" class="cls-1" data-name="Path 1159" transform="translate(-349.298 -521.486)"/>
            <path id="Path_1160" d="M433.748 577.574c-.652.007-.652.007-.652-.654 0-.388 0-.389.379-.388.257 0 .516-.007.773 0a.532.532 0 0 1 .578.507.538.538 0 0 1-.563.528c-.171.017-.343.007-.515.007z" class="cls-1" data-name="Path 1160" transform="translate(-349.32 -516.193)"/>
            <path id="Path_1161" d="M395.7 577.213c0-.667 0-.67.674-.666a2.188 2.188 0 0 1 .74.055.644.644 0 0 1 .015 1.239 4.548 4.548 0 0 1-1.312.077c-.106 0-.118-.077-.117-.159v-.546z" class="cls-1" data-name="Path 1161" transform="translate(-320.896 -516.203)"/>
            <path id="Path_1162" d="M342.228 577.919v-1.147c0-.088-.036-.219.111-.22a2.3 2.3 0 0 1 1.667.336 1.47 1.47 0 0 1 .372 1.549 1.3 1.3 0 0 1-1.17.87c-.258.01-.516 0-.774.008-.168.007-.213-.065-.21-.22.009-.395.004-.784.004-1.176z" class="cls-1" data-name="Path 1162" transform="translate(-280.25 -516.204)"/>
            <path id="Path_1163" d="M195.639 577.755a1.353 1.353 0 0 1 1.35-1.439 1.445 1.445 0 0 1 .023 2.887 1.372 1.372 0 0 1-1.373-1.448z" class="cls-1" data-name="Path 1163" transform="translate(-168.83 -516.031)"/>
            <path id="Path_1164" d="M177.075 577.923c0-.382.007-.765 0-1.147 0-.169.043-.24.225-.233a2.861 2.861 0 0 1 1.264.165 1.408 1.408 0 0 1 .693 1.559 1.332 1.332 0 0 1-1.22 1.036c-.3.012-.686.128-.891-.044s-.047-.557-.066-.849c-.013-.161-.005-.324-.005-.487z" class="cls-1" data-name="Path 1164" transform="translate(-154.692 -516.203)"/>
            <path id="Path_1165" d="M245.065 577.75a1.343 1.343 0 0 1 1.389-1.424 1.444 1.444 0 1 1-1.389 1.424z" class="cls-1" data-name="Path 1165" transform="translate(-206.399 -516.038)"/>
            <path id="Path_1166" d="M460.635 577.41c.224.507.426.966.627 1.426.051.117-.007.157-.118.156h-1.184z" class="cls-36" data-name="Path 1166" transform="translate(-369.74 -516.862)"/>
            <path id="Path_1167" d="M307.453 577.375c.223.519.411.967.609 1.411.066.148.018.184-.125.182h-.975c-.118 0-.186-.017-.123-.162.2-.455.392-.906.614-1.431z" class="cls-36" data-name="Path 1167" transform="translate(-253.334 -516.836)"/>
            <path id="Path_1168" d="M379.384 579.06h-1.354l.661-1.543c.288.527.462 1.032.693 1.543z" class="cls-36" data-name="Path 1168" transform="translate(-307.464 -516.944)"/>
            <path id="Path_1169" d="M416.8 578.975h-1.357l.675-1.569z" class="cls-36" data-name="Path 1169" transform="translate(-335.899 -516.859)"/>
        </g>
    </g>
</svg>
