<svg width="243" height="49" viewBox="0 0 243 49" fill="none" xmlns="http://www.w3.org/2000/svg">
<path fill-rule="evenodd" clip-rule="evenodd" d="M206.189 28.4995C206.713 26.9622 207.346 25.4813 208.071 24.0931C208.283 23.6792 208.531 23.2318 208.85 22.6917C209.161 22.1419 209.42 21.7179 209.675 21.3168C210.506 20.0117 211.471 18.7229 212.547 17.4936C213.958 15.8771 215.578 14.3697 217.354 13.0114L217.566 12.8491V1.49219C214.361 3.93808 211.459 6.63209 208.883 9.57966C206.99 11.7471 205.25 14.0428 203.701 16.4797C203.179 17.299 202.688 18.1308 202.214 18.9641C201.725 19.7923 201.252 20.6334 200.805 21.4965C199.465 24.0574 198.346 26.704 197.417 29.4337C196.151 33.1342 195.264 36.9881 194.75 40.9879L204.663 35.2749L204.712 34.9002C204.997 32.6873 205.493 30.5338 206.189 28.4995Z" fill="white"/>
<path fill-rule="evenodd" clip-rule="evenodd" d="M220.042 13.614C221.516 14.8033 222.878 16.1088 224.09 17.4935C225.16 18.7193 226.128 20.0046 226.963 21.3233C227.224 21.731 227.486 22.1682 227.791 22.6982C228.092 23.2182 228.341 23.6655 228.566 24.093C229.291 25.4843 229.924 26.9652 230.445 28.499C231.14 30.5333 231.637 32.6868 231.925 34.9001L231.964 35.2038L242 40.9875C241.482 36.9876 240.6 33.1341 239.334 29.4333C238.405 26.7035 237.284 24.0569 235.944 21.496C235.496 20.6329 235.022 19.7918 234.536 18.9636C234.064 18.1307 233.571 17.2989 233.049 16.4792C231.5 14.0423 229.762 11.7467 227.866 9.57918C225.288 6.6316 222.394 3.93759 219.184 1.4917V12.9403L219.276 13.011C219.535 13.2098 219.79 13.4086 220.042 13.614Z" fill="white"/>
<path fill-rule="evenodd" clip-rule="evenodd" d="M224.585 38.2627C222.991 38.5807 221.395 38.7764 219.834 38.846C219.4 38.8658 218.96 38.8755 218.486 38.8755H217.86C217.436 38.8755 217.025 38.8689 216.63 38.8526C215.063 38.7862 213.463 38.5974 211.883 38.2891C210.105 37.9443 208.314 37.4186 206.545 36.746L195.93 42.9072C199.662 44.4553 203.449 45.6144 207.296 46.3646C210.12 46.9163 212.979 47.2639 215.872 47.3804C216.843 47.42 217.812 47.4316 218.771 47.4227C219.731 47.4285 220.695 47.4118 221.67 47.3695C224.557 47.2421 227.411 46.8814 230.244 46.3141C234.083 45.5472 237.862 44.3811 241.586 42.8182L230.533 36.4595C228.578 37.2555 226.578 37.8647 224.585 38.2627Z" fill="white"/>
<path fill-rule="evenodd" clip-rule="evenodd" d="M225.346 28.2273H225.944L225.715 27.6744C225.423 26.9712 225.113 26.3052 224.795 25.6952C224.603 25.3314 224.392 24.9516 224.13 24.4993C223.853 24.0186 223.644 23.671 223.431 23.3387C223.197 22.9694 222.923 22.5687 222.595 22.1151L222.476 21.9497H222.272H214.359H214.155L214.036 22.1147C213.709 22.5659 213.435 22.967 213.197 23.3406C212.957 23.7172 212.747 24.0671 212.517 24.4744L212.486 24.528C212.224 24.9714 212.025 25.3306 211.859 25.6552L211.844 25.6824C211.523 26.2967 211.211 26.9669 210.917 27.6744L210.687 28.2273H211.286H225.346ZM227.199 32.4705C227.038 31.7044 226.841 30.9337 226.613 30.18L226.527 29.8961H226.231H223.589H223.316L223.217 30.1512L222.224 32.7128L222.007 33.2724L222.607 33.2564C223.218 33.2405 226.299 33.1485 226.927 32.9338L227.262 32.8196L227.199 32.4705ZM213.302 29.8961L213.401 30.1512L214.394 32.7128L214.609 33.2677L214.015 33.2568C213.117 33.2401 210.153 33.1741 209.677 33.0161L209.344 32.9027L209.414 32.5575C209.579 31.758 209.781 30.9581 210.017 30.18L210.103 29.8961H210.4H213.029H213.302Z" fill="white"/>
<path fill-rule="evenodd" clip-rule="evenodd" d="M104.816 42.5147H103.216V35.7508H101.931L102.197 34.466H103.216V33.3265C103.216 32.4215 103.361 31.7831 103.652 31.4112C103.991 30.959 104.589 30.7324 105.446 30.7324C106.092 30.7324 106.65 30.8213 107.119 30.9993L106.828 32.3323C106.343 32.2032 105.98 32.1384 105.737 32.1384C105.365 32.1384 105.119 32.2032 104.998 32.3323C104.876 32.4621 104.816 32.7204 104.816 33.1085V34.466H106.561V35.7508H104.816V42.5147ZM54.4871 42.3694L54.2688 41.4479C54.1555 41.4806 54.0181 41.4964 53.8566 41.4964C53.598 41.4964 53.4688 41.3511 53.4688 41.0598V34.4656H51.8445V41.4479C51.8445 41.8036 51.9614 42.0906 52.1959 42.3086C52.4301 42.5269 52.7495 42.6359 53.1537 42.6359C53.7192 42.6359 54.1634 42.5467 54.4871 42.3694ZM53.3964 32.5872C53.5902 32.3854 53.687 32.1387 53.687 31.8477C53.687 31.5733 53.5902 31.3348 53.3964 31.1323C53.2025 30.9305 52.9597 30.8295 52.6691 30.8295C52.3939 30.8295 52.1515 30.9348 51.9414 31.1445C51.7314 31.3549 51.6264 31.6053 51.6264 31.8963C51.6264 32.1549 51.7314 32.3854 51.9414 32.5872C52.1515 32.7897 52.3939 32.8901 52.6691 32.8901C52.9597 32.8901 53.2025 32.7897 53.3964 32.5872ZM27.9166 42.5151H29.783L33.6137 31.1932H31.7955L28.886 40.3332L25.9768 31.1932H24.0859L27.9166 42.5151ZM39.4322 37.7869H35.5289C35.6098 36.2837 36.2562 35.5323 37.4687 35.5323C38.0988 35.5323 38.5877 35.7018 38.9351 36.0413C39.2826 36.3808 39.4567 36.8578 39.4567 37.4718C39.4567 37.5689 39.4481 37.6739 39.4322 37.7869ZM40.3538 42.2482L40.6689 40.8419C39.9257 41.2138 39.0122 41.3994 37.9295 41.3994C37.186 41.3994 36.6202 41.2461 36.2325 40.9386C35.7476 40.5509 35.5131 39.8721 35.5293 38.9021H40.8628C40.9113 38.5629 40.9358 38.2237 40.9358 37.8838C40.9358 36.9471 40.7254 36.1789 40.3052 35.5811C39.7236 34.7408 38.778 34.3204 37.4691 34.3204C36.1919 34.3204 35.2383 34.7653 34.6081 35.6537C34.0747 36.4137 33.8082 37.4075 33.8082 38.6359C33.8082 39.7833 34.0265 40.6721 34.4628 41.3026C35.0768 42.1914 36.1677 42.6356 37.7356 42.6356C38.7859 42.6356 39.6589 42.5068 40.3538 42.2482ZM50.4388 41.4483L50.6327 42.3698C50.3093 42.5472 49.873 42.6363 49.3238 42.6363C48.9195 42.6363 48.5965 42.531 48.3541 42.3212C48.1116 42.1112 47.9901 41.8205 47.9901 41.4483V37.0846C47.9901 36.5835 47.9174 36.2446 47.7721 36.0663C47.6264 35.8886 47.3599 35.7997 46.9721 35.7997C46.5999 35.7997 46.1557 35.913 45.6388 36.1389C45.1212 36.3655 44.6932 36.64 44.3536 36.9633V42.5151H42.7296V31.1932H44.3536V35.5329C44.7252 35.1933 45.186 34.9067 45.7355 34.6721C46.2848 34.4383 46.7783 34.3207 47.2142 34.3207C48.1034 34.3207 48.7177 34.4987 49.0569 34.8541C49.4285 35.2584 49.6144 35.9533 49.6144 36.9392V41.0602C49.6144 41.3515 49.7439 41.4968 50.0025 41.4968C50.1802 41.4968 50.3255 41.481 50.4388 41.4483ZM61.7115 40.9145L61.4206 42.2723C60.7742 42.5144 59.9822 42.6356 59.0448 42.6356C58.0586 42.6356 57.2183 42.2806 56.5234 41.5691C55.7961 40.826 55.4325 39.775 55.4325 38.4172C55.4325 37.2863 55.772 36.3249 56.4508 35.5325C57.1619 34.7246 58.1071 34.3204 59.2873 34.3204C60.289 34.3204 61.1296 34.4578 61.8083 34.7326L61.5418 36.09C60.9116 35.8317 60.2325 35.7019 59.5052 35.7019C57.9374 35.7019 57.1536 36.6396 57.1536 38.5147C57.1536 40.3411 58.018 41.254 59.748 41.254C60.0063 41.254 60.3455 41.2174 60.7663 41.1451C61.1861 41.0721 61.5012 40.9954 61.7115 40.9145ZM65.9782 42.3698L65.7843 41.4483C65.671 41.481 65.5254 41.4968 65.3477 41.4968C65.0891 41.4968 64.9599 41.3515 64.9599 41.0602V31.1932H63.3356V41.4483C63.3356 41.804 63.4568 42.091 63.6992 42.309C63.9416 42.5273 64.2647 42.6363 64.6693 42.6363C65.2344 42.6363 65.671 42.5472 65.9782 42.3698ZM68.6444 37.7869H72.5477C72.5636 37.6739 72.5721 37.5689 72.5721 37.4718C72.5721 36.8578 72.3981 36.3808 72.0506 36.0413C71.7032 35.7018 71.2143 35.5323 70.5842 35.5323C69.3717 35.5323 68.7253 36.2837 68.6444 37.7869ZM73.7845 40.8419L73.4691 42.2482C72.7742 42.5068 71.9012 42.6356 70.8509 42.6356C69.2831 42.6356 68.1921 42.1914 67.5781 41.3026C67.1418 40.6721 66.9235 39.7833 66.9235 38.6359C66.9235 37.4075 67.19 36.4137 67.7234 35.6537C68.354 34.7653 69.3072 34.3204 70.5844 34.3204C71.8933 34.3204 72.8389 34.7408 73.4205 35.5811C73.8407 36.1789 74.0511 36.9471 74.0511 37.8838C74.0511 38.2237 74.0266 38.5629 73.9781 38.9021H68.6446C68.6284 39.8721 68.8629 40.5509 69.3478 40.9386C69.7355 41.2461 70.3013 41.3994 71.0448 41.3994C72.1275 41.3994 73.041 41.2138 73.7845 40.8419ZM75.7002 40.8666L75.3365 42.2729C76.0959 42.515 77.017 42.6363 78.1004 42.6363C78.9565 42.6363 79.6841 42.4424 80.2822 42.0546C80.993 41.6021 81.3487 40.9799 81.3487 40.1878C81.3487 39.4933 81.0901 38.9271 80.5729 38.4908C80.2175 38.1999 79.587 37.8844 78.682 37.5452C78.0839 37.319 77.6839 37.133 77.4821 36.9877C77.2796 36.8424 77.1792 36.6644 77.1792 36.4543C77.1792 35.8888 77.7202 35.6058 78.8035 35.6058C79.482 35.6058 80.1369 35.7511 80.7671 36.0421L81.0336 34.7332C80.4035 34.4584 79.6435 34.321 78.7547 34.321C77.7367 34.321 76.9526 34.5149 76.403 34.9029C75.8534 35.2907 75.579 35.8403 75.579 36.5514C75.579 37.1495 75.8214 37.6423 76.3063 38.0304C76.6293 38.3052 77.2192 38.6041 78.0759 38.9271C78.7385 39.1696 79.183 39.3757 79.4096 39.5454C79.6355 39.7149 79.7488 39.9296 79.7488 40.1878C79.7488 40.9637 79.1021 41.3514 77.8094 41.3514C77.5343 41.3514 77.1825 41.3032 76.7548 41.2061C76.3264 41.109 75.9746 40.9961 75.7002 40.8666ZM85.6151 42.0783L85.882 40.4298C86.8517 40.8985 87.8372 41.1327 88.8393 41.1327C89.5184 41.1327 90.0677 41.0114 90.4881 40.7693C90.9565 40.4945 91.191 40.0827 91.191 39.5324C91.191 39.145 91.0295 38.8055 90.7064 38.5145C90.3828 38.2235 89.7608 37.8519 88.8393 37.3994C87.7563 36.866 87.0129 36.4139 86.6092 36.0416C86.0273 35.5082 85.7363 34.8863 85.7363 34.1752C85.7363 33.0598 86.1244 32.2354 86.9002 31.702C87.5624 31.2333 88.476 30.9992 89.6396 30.9992C90.6252 30.9992 91.5546 31.2092 92.4276 31.6293L92.161 33.2051C91.1748 32.753 90.3184 32.5264 89.5911 32.5264C88.185 32.5264 87.4819 33.003 87.4819 33.9565C87.4819 34.2802 87.6311 34.5672 87.9304 34.8173C88.2293 35.0683 88.807 35.4035 89.6637 35.8236C90.7788 36.3571 91.5464 36.8175 91.9668 37.2052C92.5973 37.771 92.9124 38.4339 92.9124 39.1932C92.9124 40.3895 92.4679 41.3028 91.5791 41.9329C90.8676 42.434 89.9547 42.6843 88.8393 42.6843C87.5948 42.6843 86.5201 42.4825 85.6151 42.0783ZM98.9976 38.7574V39.5577C98.9976 40.0588 98.8278 40.4749 98.4883 40.8059C98.1487 41.1375 97.7286 41.3033 97.2276 41.3033C96.2737 41.3033 95.7974 40.9073 95.7974 40.1152C95.7974 39.6145 95.9586 39.2505 96.2819 39.0243C96.6053 38.7981 97.1222 38.6848 97.8336 38.6848C98.0761 38.6848 98.4641 38.7089 98.9976 38.7574ZM101.616 42.3697L101.422 41.4485C101.325 41.4809 101.187 41.4967 101.01 41.4967C100.735 41.4967 100.598 41.3514 100.598 41.0604V37.3028C100.598 36.2359 100.371 35.4766 99.9188 35.0238C99.466 34.5551 98.666 34.3209 97.5186 34.3209C96.5489 34.3209 95.6921 34.4663 94.949 34.7572L94.6824 36.0906C95.458 35.8 96.2497 35.654 97.0579 35.654C97.7855 35.654 98.2902 35.7435 98.5732 35.9212C98.8559 36.0989 98.9976 36.4143 98.9976 36.8664V37.6178C98.4801 37.5534 98.0438 37.5211 97.6884 37.5211C96.7187 37.5211 95.9346 37.6905 95.3367 38.03C94.5124 38.4991 94.1002 39.2505 94.1002 40.2849C94.1002 41.8528 94.9569 42.6362 96.6701 42.6362C97.769 42.6362 98.5448 42.2485 98.9976 41.4726C98.9976 41.8283 99.1189 42.1111 99.3613 42.3215C99.6037 42.5312 99.9267 42.6362 100.331 42.6362C100.816 42.6362 101.244 42.5474 101.616 42.3697ZM113.131 37.7869H109.228C109.309 36.2837 109.956 35.5323 111.168 35.5323C111.798 35.5323 112.287 35.7018 112.634 36.0413C112.982 36.3808 113.156 36.8578 113.156 37.4718C113.156 37.5689 113.147 37.6739 113.131 37.7869ZM114.053 42.2482L114.368 40.8419C113.625 41.2138 112.711 41.3994 111.628 41.3994C110.885 41.3994 110.319 41.2461 109.931 40.9386C109.446 40.5509 109.212 39.8721 109.228 38.9021H114.562C114.61 38.5629 114.635 38.2237 114.635 37.8838C114.635 36.9471 114.425 36.1789 114.004 35.5811C113.422 34.7408 112.477 34.3204 111.168 34.3204C109.891 34.3204 108.938 34.7653 108.307 35.6537C107.774 36.4137 107.507 37.4075 107.507 38.6359C107.507 39.7833 107.725 40.6721 108.162 41.3026C108.776 42.1914 109.867 42.6356 111.434 42.6356C112.485 42.6356 113.358 42.5068 114.053 42.2482ZM120.186 41.1084L120.428 42.3209C119.83 42.5307 119.232 42.636 118.634 42.636C118.036 42.636 117.607 42.4781 117.349 42.163C117.091 41.848 116.961 41.3188 116.961 40.575V35.7505H115.676L115.943 34.4657H116.961V32.308L118.562 31.7749V34.4657H120.234V35.7505H118.562V40.3812C118.562 40.7534 118.614 40.9994 118.719 41.1207C118.824 41.2419 119.046 41.3026 119.386 41.3026C119.66 41.3026 119.927 41.2382 120.186 41.1084ZM121.01 34.4662L124.065 42.3214C123.79 43.194 123.499 43.7915 123.192 44.1152C122.966 44.3249 122.683 44.4306 122.344 44.4306C121.891 44.4306 121.447 44.3494 121.01 44.1879L120.695 45.5457C121.083 45.7395 121.641 45.8366 122.368 45.8366C123.127 45.8366 123.729 45.6183 124.174 45.182C124.618 44.7457 125.035 43.9537 125.423 42.8063L128.308 34.4662H126.562L124.816 40.2363L122.731 34.4662H121.01ZM140.792 40.6481L140.502 42.321C139.742 42.5631 138.893 42.6843 137.956 42.6843C136.226 42.6843 134.869 42.1836 133.883 41.1815C132.897 40.1956 132.404 38.8137 132.404 37.0358C132.404 35.1446 132.905 33.65 133.907 32.5508C134.861 31.5167 136.153 30.9992 137.786 30.9992C138.869 30.9992 139.871 31.1772 140.792 31.5326L140.502 33.1325C139.661 32.7285 138.796 32.5264 137.908 32.5264C136.566 32.5264 135.58 32.9868 134.95 33.9083C134.416 34.6683 134.15 35.7351 134.15 37.1085C134.15 38.8378 134.739 40.0176 135.92 40.6481C136.517 40.9715 137.236 41.1327 138.077 41.1327C138.966 41.1327 139.871 40.9715 140.792 40.6481ZM147.799 37.7869H143.896C143.976 36.2837 144.623 35.5323 145.835 35.5323C146.465 35.5323 146.954 35.7018 147.302 36.0413C147.649 36.3808 147.823 36.8578 147.823 37.4718C147.823 37.5689 147.815 37.6739 147.799 37.7869ZM148.72 42.2482L149.036 40.8419C148.292 41.2138 147.378 41.3994 146.296 41.3994C145.552 41.3994 144.987 41.2461 144.599 40.9386C144.114 40.5509 143.88 39.8721 143.896 38.9021H149.229C149.278 38.5629 149.302 38.2237 149.302 37.8838C149.302 36.9471 149.092 36.1789 148.672 35.5811C148.09 34.7408 147.144 34.3204 145.835 34.3204C144.558 34.3204 143.605 34.7653 142.974 35.6537C142.441 36.4137 142.175 37.4075 142.175 38.6359C142.175 39.7833 142.393 40.6721 142.829 41.3026C143.443 42.1914 144.534 42.6356 146.102 42.6356C147.153 42.6356 148.025 42.5068 148.72 42.2482ZM158.805 41.4479L158.999 42.3694C158.675 42.5468 158.239 42.636 157.69 42.636C157.286 42.636 156.963 42.5306 156.72 42.3209C156.478 42.1108 156.356 41.8202 156.356 41.4479V37.0842C156.356 36.5831 156.284 36.2443 156.138 36.0659C155.993 35.8882 155.726 35.7994 155.338 35.7994C154.966 35.7994 154.522 35.9127 154.004 36.1386C153.487 36.3652 153.059 36.6396 152.72 36.963V42.5147H151.096V34.4657H152.72V35.5325C153.092 35.193 153.552 34.9063 154.102 34.6718C154.651 34.4379 155.144 34.3204 155.581 34.3204C156.469 34.3204 157.084 34.4984 157.423 34.8538C157.795 35.258 157.981 35.953 157.981 36.9389V41.0598C157.981 41.3512 158.11 41.4965 158.369 41.4965C158.546 41.4965 158.692 41.4806 158.805 41.4479ZM164.162 42.3209L163.92 41.1084C163.661 41.2382 163.395 41.3026 163.12 41.3026C162.781 41.3026 162.559 41.2419 162.454 41.1207C162.348 40.9994 162.296 40.7534 162.296 40.3812V35.7505H163.969V34.4657H162.296V31.7749L160.696 32.308V34.4657H159.678L159.411 35.7505H160.696V40.575C160.696 41.3188 160.825 41.848 161.084 42.163C161.342 42.4781 161.771 42.636 162.369 42.636C162.967 42.636 163.565 42.5307 164.162 42.3209ZM166.902 37.7869H170.805C170.821 37.6739 170.829 37.5689 170.829 37.4718C170.829 36.8578 170.655 36.3808 170.308 36.0413C169.96 35.7018 169.471 35.5323 168.841 35.5323C167.629 35.5323 166.982 36.2837 166.902 37.7869ZM172.042 40.8419L171.727 42.2482C171.031 42.5068 170.159 42.6356 169.108 42.6356C167.541 42.6356 166.449 42.1914 165.836 41.3026C165.399 40.6721 165.181 39.7833 165.181 38.6359C165.181 37.4075 165.447 36.4137 165.981 35.6537C166.611 34.7653 167.565 34.3204 168.842 34.3204C170.151 34.3204 171.096 34.7408 171.678 35.5811C172.098 36.1789 172.309 36.9471 172.309 37.8838C172.309 38.2237 172.284 38.5629 172.236 38.9021H166.902C166.886 39.8721 167.12 40.5509 167.605 40.9386C167.993 41.2461 168.559 41.3994 169.302 41.3994C170.385 41.3994 171.298 41.2138 172.042 40.8419ZM174.102 42.5148H175.726V36.9148C176.114 36.2033 176.575 35.8479 177.108 35.8479C177.512 35.8479 177.957 35.9288 178.442 36.0904L178.733 34.757C178.215 34.466 177.715 34.3204 177.23 34.3204C176.939 34.3204 176.652 34.4297 176.369 34.6477C176.086 34.866 175.872 35.153 175.726 35.5084V34.466H174.102V42.5148Z" fill="white"/>
<path fill-rule="evenodd" clip-rule="evenodd" d="M32.2648 9.65822C32.4857 9.87984 32.7407 9.99015 33.0294 9.99015C33.3365 9.99015 33.6061 9.87455 33.8369 9.64401C34.0678 9.41314 34.1831 9.15354 34.1831 8.8652C34.1831 8.5577 34.0678 8.29314 33.8369 8.07185C33.6061 7.85089 33.3365 7.73991 33.0294 7.73991C32.7407 7.73991 32.4857 7.85089 32.2648 8.07185C32.0435 8.29314 31.9332 8.5577 31.9332 8.8652C31.9332 9.17303 32.0435 9.43758 32.2648 9.65822ZM29.3942 9.64426C29.6254 9.8748 29.8943 9.9904 30.2021 9.9904C30.5096 9.9904 30.7742 9.8748 30.9954 9.64426C31.2164 9.41339 31.3274 9.14454 31.3274 8.83638C31.3274 8.52921 31.2164 8.26465 30.9954 8.04303C30.7742 7.82207 30.5096 7.71143 30.2021 7.71143C29.8943 7.71143 29.6254 7.82207 29.3942 8.04303C29.1637 8.26465 29.0481 8.52921 29.0481 8.83638C29.0481 9.14454 29.1637 9.41339 29.3942 9.64426ZM27.3461 21.8461H35.8272C36.8656 21.8461 37.6735 21.5773 38.2505 21.0386C38.8464 20.4807 39.1449 19.6828 39.1449 18.644V12.2692H37.2986V18.7309C37.2986 19.5774 36.8561 19.9998 35.9715 19.9998H27.2021C26.7404 19.9998 26.4038 19.8899 26.1924 19.6682C25.9804 19.4473 25.875 19.0869 25.875 18.5869V14.4903L24 15.7018V18.5C24 19.5196 24.2596 20.3172 24.7791 20.8946C25.3558 21.5291 26.2113 21.8461 27.3461 21.8461ZM44.712 21.8466H44.8273V21.8465H51.1732V21.8466H58.0967C59.0387 21.8466 59.7986 21.5969 60.3757 21.0965C61.029 20.539 61.3563 19.7314 61.3563 18.6732V15.5289C61.3563 14.5482 61.1059 13.7793 60.6062 13.2212C60.0483 12.5867 59.2312 12.2693 58.1545 12.2693H55.2407V11.577C55.2407 10.6928 55.6925 10.2499 56.5965 10.2499H60.0295V8.37487H56.8271C54.5385 8.37487 53.3944 9.47109 53.3944 11.6635V14.1156H58.2119C59.0965 14.1156 59.539 14.5677 59.539 15.4714V18.731C59.539 19.5778 59.0965 20.0003 58.2119 20.0003H51.3178V19.9999H50.1638V12.2692H48.3175V19.9999H44.7118V20.0003C44.0388 20.0002 43.7027 19.6062 43.7027 18.8179V8.37487H41.8273V18.9044C41.8273 19.7119 42.077 20.3854 42.5774 20.9238C43.1349 21.5394 43.8467 21.8466 44.712 21.8466ZM49.2696 26.8944C48.9423 26.8944 48.6682 26.7883 48.4476 26.577C48.2259 26.3652 48.1156 26.0961 48.1156 25.7694C48.1156 25.4616 48.2259 25.197 48.4476 24.9761C48.6682 24.7548 48.9423 24.6445 49.2696 24.6445C49.558 24.6445 49.8126 24.7548 50.0339 24.9761C50.2546 25.197 50.3655 25.4616 50.3655 25.7694C50.3655 26.0769 50.2598 26.3415 50.0481 26.5628C49.8364 26.7834 49.5768 26.8944 49.2696 26.8944ZM64.5009 26.8946L63.2029 25.2504C64.1062 24.9617 64.7172 24.6011 65.0346 24.1687C65.352 23.7361 65.5106 23.0481 65.5106 22.1058V12.2692H67.3566V19.9999H68.5106V20.0004H70.5589V15.414C70.5589 14.1834 70.9625 13.2986 71.7704 12.7599C72.3659 12.3563 73.1067 12.1541 73.9915 12.1541C75.0491 12.1541 75.8854 12.4428 76.5014 13.0195C77.1164 13.5965 77.4242 14.3948 77.4242 15.414V20.0004H78.4628V20.0003H79.1838C79.7219 20.0003 80.102 19.8949 80.3233 19.6829C80.5443 19.4715 80.6552 19.1062 80.6552 18.587V8.37487H82.5012V18.731C82.5012 19.7506 82.203 20.5297 81.6071 21.0678C81.0493 21.587 80.2606 21.8466 79.2416 21.8466H78.5782V21.8467H77.338C77.2032 22.6159 76.8472 23.2071 76.2705 23.6207C75.6935 24.0342 74.9335 24.2409 73.9915 24.2409C73.0489 24.2409 72.2701 24.0005 71.6548 23.5199C71.0969 23.116 70.7415 22.5581 70.5873 21.8467H68.3664V21.8465H67.3566V22.6831C67.3566 24.6827 66.4047 26.087 64.5009 26.8946ZM75.6073 15.385V21.0101C75.6073 21.9524 75.0686 22.4237 73.9919 22.4237C72.9148 22.4237 72.3764 21.9524 72.3764 21.0101V15.385C72.3764 14.443 72.9148 13.9714 73.9919 13.9714C75.0686 13.9714 75.6073 14.443 75.6073 15.385ZM85.184 22.885L87.0593 21.8466V8.37487H85.184V22.885ZM98.2514 9.9904C97.9436 9.9904 97.6791 9.8748 97.4584 9.64426C97.2368 9.41339 97.1265 9.14454 97.1265 8.83638C97.1265 8.52921 97.2368 8.26465 97.4584 8.04303C97.6791 7.82207 97.9436 7.71143 98.2514 7.71143C98.5589 7.71143 98.8232 7.82207 99.0448 8.04303C99.2654 8.26465 99.3764 8.52921 99.3764 8.83638C99.3764 9.14454 99.2654 9.41339 99.0448 9.64426C98.8232 9.8748 98.5589 9.9904 98.2514 9.9904ZM98.3957 19.9999V14.1155H96.5494C95.6646 14.1155 95.2226 14.5673 95.2226 15.4713V18.6153C95.2226 19.1157 95.3326 19.4714 95.5539 19.6828C95.7752 19.8948 96.1455 19.9999 96.6647 19.9999H98.3957ZM95.4241 9.9904C95.1163 9.9904 94.8474 9.8748 94.6166 9.64426C94.3857 9.41339 94.2704 9.14454 94.2704 8.83638C94.2704 8.52921 94.3857 8.26465 94.6166 8.04303C94.8474 7.82207 95.1163 7.71143 95.4241 7.71143C95.7316 7.71143 95.9962 7.82207 96.2175 8.04303C96.4388 8.26465 96.5494 8.52921 96.5494 8.83638C96.5494 9.14454 96.4388 9.41339 96.2175 9.64426C95.9962 9.8748 95.7316 9.9904 95.4241 9.9904ZM101.28 21.8461H98.3957V20.635L97.5013 21.8461H96.809C95.5975 21.8461 94.6932 21.5195 94.0974 20.8655C93.597 20.308 93.3473 19.5487 93.3473 18.5869V15.5288C93.3473 14.4137 93.703 13.5579 94.4148 12.9614C94.9914 12.4997 95.7224 12.2692 96.6072 12.2692H100.271V19.9998H101.396V20.0004H103.473V15.414C103.473 14.1834 103.876 13.2986 104.684 12.7599C105.28 12.3563 106.021 12.1541 106.905 12.1541C107.963 12.1541 108.799 12.4428 109.415 13.0195C110.03 13.5965 110.338 14.3948 110.338 15.414V21.0101C110.338 22.2219 109.944 23.0968 109.155 23.6352C108.579 24.0395 107.829 24.2409 106.905 24.2409C105.963 24.2409 105.184 24.0005 104.569 23.5199C104.011 23.116 103.655 22.5581 103.501 21.8467H101.28V21.8461ZM108.521 15.385V21.0101C108.521 21.9524 107.982 22.4237 106.906 22.4237C105.828 22.4237 105.29 21.9524 105.29 21.0101V15.385C105.29 14.443 105.828 13.9714 106.906 13.9714C107.982 13.9714 108.521 14.443 108.521 15.385ZM123.55 21.8466H113.021V20.0003H116.367L113.338 12.2693H115.328L118.329 20.0003H120.55V8.37487H122.396V20.0003H123.406V20.0002H128.829V12.2692H130.676V20.0002H133.877V12.2692H135.724V20.0002H137.57C138.473 20.0002 138.926 19.5678 138.926 18.7022V12.2692H140.772V18.6156C140.772 19.6735 140.464 20.4811 139.849 21.0386C139.272 21.5773 138.473 21.8465 137.454 21.8465H123.55V21.8466ZM149.512 9.99014C149.185 9.99014 148.91 9.87983 148.69 9.65821C148.469 9.43757 148.358 9.17302 148.358 8.86519C148.358 8.55769 148.469 8.29313 148.69 8.07184C148.91 7.85088 149.185 7.7399 149.512 7.7399C149.801 7.7399 150.055 7.85088 150.276 8.07184C150.497 8.29313 150.608 8.55769 150.608 8.86519C150.608 9.17302 150.497 9.43757 150.276 9.65821C150.055 9.87983 149.801 9.99014 149.512 9.99014ZM147.551 26.8946L146.252 25.2504C147.156 24.9617 147.767 24.601 148.084 24.1687C148.402 23.7357 148.56 23.048 148.56 22.1057V12.2692H150.406V19.9998H151.56V20.0003H158.454C159.339 20.0003 159.781 19.5778 159.781 18.731V15.4714C159.781 14.5677 159.339 14.1156 158.454 14.1156H153.637V11.6635C153.637 9.47109 154.781 8.37487 157.069 8.37487H160.272V10.2499H156.839C155.935 10.2499 155.483 10.6928 155.483 11.577V12.2693H158.397C159.474 12.2693 160.291 12.5867 160.848 13.2212C161.348 13.7793 161.599 14.5482 161.599 15.5289V18.6732C161.599 19.7314 161.271 20.539 160.618 21.0965C160.041 21.5969 159.281 21.8466 158.339 21.8466H151.416V21.8461H150.406V22.6831C150.406 24.6826 149.454 26.087 147.551 26.8946ZM164.743 26.8946L163.445 25.2504C164.348 24.9617 164.96 24.6011 165.277 24.1687C165.594 23.7361 165.753 23.0481 165.753 22.1058V12.2692H167.599V19.9999H168.753V20.0004H170.801V15.414C170.801 14.1834 171.204 13.2986 172.012 12.7599C172.608 12.3563 173.349 12.1541 174.234 12.1541C175.291 12.1541 176.127 12.4428 176.743 13.0195C177.358 13.5965 177.666 14.3948 177.666 15.414V21.0101C177.666 22.2219 177.272 23.0968 176.483 23.6352C175.907 24.0395 175.157 24.2409 174.234 24.2409C173.291 24.2409 172.512 24.0005 171.897 23.5199C171.339 23.116 170.984 22.5581 170.829 21.8467H168.608V21.8465H167.599V22.6831C167.599 24.6827 166.647 26.087 164.743 26.8946ZM175.849 15.385V21.0101C175.849 21.9524 175.31 22.4237 174.233 22.4237C173.156 22.4237 172.618 21.9524 172.618 21.0101V15.385C172.618 14.443 173.156 13.9714 174.233 13.9714C175.31 13.9714 175.849 14.443 175.849 15.385Z" fill="white"/>
</svg>
