<svg id="Group_6" data-name="Group 6" xmlns="http://www.w3.org/2000/svg" width="184.52" height="193.906" viewBox="0 0 184.52 193.906">
  <g id="Group_1" data-name="Group 1" transform="translate(0 164.059)">
    <path id="Path_1" data-name="Path 1" d="M18.263,331.1l-7.846,21.189H7.684L0,331.1H2.763l5.866,16.8a9.993,9.993,0,0,1,.428,1.876h.06a9.173,9.173,0,0,1,.488-1.906L15.589,331.1Z" transform="translate(0 -329.568)" fill="#59595c"/>
    <path id="Path_2" data-name="Path 2" d="M49.268,351.035H38.585a5.656,5.656,0,0,0,1.359,3.9,4.684,4.684,0,0,0,3.575,1.374,7.435,7.435,0,0,0,4.7-1.684V356.9a8.779,8.779,0,0,1-5.275,1.448,6.4,6.4,0,0,1-5.039-2.062,8.438,8.438,0,0,1-1.832-5.8,8.274,8.274,0,0,1,2-5.755,6.42,6.42,0,0,1,4.972-2.224,5.689,5.689,0,0,1,4.6,1.92,8.01,8.01,0,0,1,1.625,5.334Zm-2.483-2.054a4.932,4.932,0,0,0-1.012-3.265A3.45,3.45,0,0,0,43,344.548a3.915,3.915,0,0,0-2.911,1.227,5.565,5.565,0,0,0-1.477,3.206Z" transform="translate(-18.032 -335.269)" fill="#59595c"/>
    <path id="Path_3" data-name="Path 3" d="M82.342,351.082H79.919v-8.718q0-4.729-3.517-4.729A3.836,3.836,0,0,0,73.417,339a5.1,5.1,0,0,0-1.211,3.509v8.57H69.783v-22.4h2.423v9.782h.059A5.5,5.5,0,0,1,77.23,335.6q5.112,0,5.112,6.162Z" transform="translate(-34.882 -328.357)" fill="#59595c"/>
    <path id="Path_4" data-name="Path 4" d="M104.615,332.39a1.534,1.534,0,0,1-1.108-.443,1.5,1.5,0,0,1-.458-1.123,1.552,1.552,0,0,1,1.566-1.581,1.567,1.567,0,0,1,1.13.451,1.579,1.579,0,0,1,0,2.239A1.551,1.551,0,0,1,104.615,332.39Zm1.182,14.746q0,2.083,1.61,2.084a3.887,3.887,0,0,0,1.168-.163v2.187a6.868,6.868,0,0,1-.747.141,6.994,6.994,0,0,1-.983.066,3.864,3.864,0,0,1-1.359-.237,2.887,2.887,0,0,1-1.1-.724,3.534,3.534,0,0,1-.739-1.219,4.869,4.869,0,0,1-.273-1.706V336.232H105.8Z" transform="translate(-51.511 -328.637)" fill="#59595c"/>
    <path id="Path_5" data-name="Path 5" d="M128.637,357.3a7.877,7.877,0,0,1-4.137,1.049,6.851,6.851,0,0,1-5.223-2.106,7.632,7.632,0,0,1-1.988-5.46,8.388,8.388,0,0,1,2.143-6.006,7.494,7.494,0,0,1,5.718-2.268,7.958,7.958,0,0,1,3.516.739v2.482a6.164,6.164,0,0,0-3.6-1.182,4.871,4.871,0,0,0-3.8,1.662,6.307,6.307,0,0,0-1.485,4.366,6.007,6.007,0,0,0,1.4,4.2,4.812,4.812,0,0,0,3.746,1.536,6.073,6.073,0,0,0,3.723-1.315Z" transform="translate(-58.629 -335.269)" fill="#59595c"/>
    <path id="Path_6" data-name="Path 6" d="M149.4,346.856q0,2.083,1.61,2.084a3.891,3.891,0,0,0,1.168-.163v2.186a6.866,6.866,0,0,1-.747.141,7,7,0,0,1-.983.066,3.863,3.863,0,0,1-1.359-.237,2.887,2.887,0,0,1-1.1-.724,3.534,3.534,0,0,1-.739-1.219,4.869,4.869,0,0,1-.273-1.707v-18.6H149.4Z" transform="translate(-73.471 -328.357)" fill="#59595c"/>
    <path id="Path_7" data-name="Path 7" d="M173.765,351.035H163.083a5.661,5.661,0,0,0,1.359,3.9,4.686,4.686,0,0,0,3.576,1.374,7.435,7.435,0,0,0,4.7-1.684V356.9a8.779,8.779,0,0,1-5.275,1.448,6.4,6.4,0,0,1-5.039-2.062,8.438,8.438,0,0,1-1.832-5.8,8.274,8.274,0,0,1,2-5.755,6.42,6.42,0,0,1,4.972-2.224,5.69,5.69,0,0,1,4.6,1.92,8.01,8.01,0,0,1,1.625,5.334Zm-2.482-2.054a4.929,4.929,0,0,0-1.012-3.265,3.448,3.448,0,0,0-2.77-1.168,3.915,3.915,0,0,0-2.911,1.227,5.565,5.565,0,0,0-1.478,3.206Z" transform="translate(-80.265 -335.269)" fill="#59595c"/>
    <path id="Path_8" data-name="Path 8" d="M209.525,351.081v-2.925a5.679,5.679,0,0,0,1.2.8,9.8,9.8,0,0,0,1.478.6,11.65,11.65,0,0,0,1.559.377,8.647,8.647,0,0,0,1.448.133,5.665,5.665,0,0,0,3.42-.85,3.185,3.185,0,0,0,.754-3.937,4.236,4.236,0,0,0-1.042-1.16,10.418,10.418,0,0,0-1.573-1q-.909-.48-1.958-1.012-1.108-.562-2.069-1.138a8.949,8.949,0,0,1-1.669-1.27,5.3,5.3,0,0,1-1.116-1.574,5.367,5.367,0,0,1,.229-4.581,5.455,5.455,0,0,1,1.67-1.766,7.571,7.571,0,0,1,2.357-1.034,10.787,10.787,0,0,1,2.7-.34,10.339,10.339,0,0,1,4.566.754v2.793a8.278,8.278,0,0,0-4.817-1.3,7.936,7.936,0,0,0-1.625.17,4.6,4.6,0,0,0-1.448.554,3.211,3.211,0,0,0-1.034.99,2.629,2.629,0,0,0-.4,1.478,3.038,3.038,0,0,0,.3,1.4,3.442,3.442,0,0,0,.894,1.079,8.849,8.849,0,0,0,1.44.946q.849.458,1.958,1,1.137.562,2.157,1.182a9.886,9.886,0,0,1,1.788,1.374,6.107,6.107,0,0,1,1.219,1.669,4.694,4.694,0,0,1,.451,2.1,5.321,5.321,0,0,1-.613,2.652,5.024,5.024,0,0,1-1.655,1.766,7.22,7.22,0,0,1-2.4.983,13.177,13.177,0,0,1-2.867.3,11.743,11.743,0,0,1-1.241-.082q-.739-.082-1.507-.237a12.251,12.251,0,0,1-1.455-.384A4.5,4.5,0,0,1,209.525,351.081Z" transform="translate(-104.735 -329.213)" fill="#59595c"/>
    <path id="Path_9" data-name="Path 9" d="M252.706,357.994h-2.423V355.63h-.059a5.073,5.073,0,0,1-4.654,2.719,4.975,4.975,0,0,1-3.539-1.2,4.147,4.147,0,0,1-1.278-3.177q0-4.239,4.994-4.935l4.536-.635q0-3.857-3.117-3.857a7.451,7.451,0,0,0-4.935,1.862v-2.482a9.375,9.375,0,0,1,5.142-1.418q5.334,0,5.334,5.644Zm-2.423-7.654-3.649.5a5.932,5.932,0,0,0-2.541.835,2.408,2.408,0,0,0-.857,2.121,2.308,2.308,0,0,0,.791,1.81,3.051,3.051,0,0,0,2.105.7,3.889,3.889,0,0,0,2.978-1.263,4.512,4.512,0,0,0,1.174-3.2Z" transform="translate(-120.345 -335.269)" fill="#59595c"/>
    <path id="Path_10" data-name="Path 10" d="M279.59,330.485a3.226,3.226,0,0,0-1.61-.4q-2.542,0-2.541,3.206v2.335h3.546V337.7h-3.546v13.062H273.03V337.7h-2.586v-2.069h2.586v-2.453a5.1,5.1,0,0,1,1.374-3.76,4.639,4.639,0,0,1,3.428-1.381,4.742,4.742,0,0,1,1.758.266Z" transform="translate(-135.187 -328.032)" fill="#59595c"/>
    <path id="Path_11" data-name="Path 11" d="M303.847,351.035H293.165a5.661,5.661,0,0,0,1.359,3.9,4.686,4.686,0,0,0,3.575,1.374,7.436,7.436,0,0,0,4.7-1.684V356.9a8.781,8.781,0,0,1-5.275,1.448,6.394,6.394,0,0,1-5.038-2.062,8.438,8.438,0,0,1-1.832-5.8,8.271,8.271,0,0,1,2-5.755,6.419,6.419,0,0,1,4.972-2.224,5.689,5.689,0,0,1,4.6,1.92,8.008,8.008,0,0,1,1.625,5.334Zm-2.482-2.054a4.93,4.93,0,0,0-1.012-3.265,3.449,3.449,0,0,0-2.77-1.168,3.917,3.917,0,0,0-2.911,1.227,5.565,5.565,0,0,0-1.477,3.206Z" transform="translate(-145.289 -335.269)" fill="#59595c"/>
    <path id="Path_12" data-name="Path 12" d="M329.564,353.725a4.675,4.675,0,0,1-2.261.473q-3.975,0-3.975-4.433v-8.954h-2.6v-2.069h2.6v-3.694l2.423-.784v4.478h3.813v2.069h-3.812v8.525a3.536,3.536,0,0,0,.517,2.173,2.066,2.066,0,0,0,1.714.65,2.547,2.547,0,0,0,1.581-.5Z" transform="translate(-160.322 -331.148)" fill="#59595c"/>
    <path id="Path_13" data-name="Path 13" d="M354.663,343.218,347.7,360.772q-1.861,4.7-5.231,4.7a5.565,5.565,0,0,1-1.581-.192v-2.173a4.486,4.486,0,0,0,1.433.266q1.832,0,2.748-2.187l1.212-2.866-5.91-15.1h2.689l4.093,11.644q.074.221.31,1.152h.089q.074-.355.3-1.123l4.3-11.673Z" transform="translate(-170.143 -335.623)" fill="#59595c"/>
  </g>
  <g id="Group_2" data-name="Group 2" transform="translate(1.27 125.501)">
    <path id="Path_14" data-name="Path 14" d="M8.414,274.336c-3.877,0-5.875-1.515-5.875-5.568V258.478H7.121v10.678a1.347,1.347,0,0,0,1.38,1.515h9.812a1.332,1.332,0,0,0,1.38-1.515V258.478h4.582v10.291c0,4.053-2,5.568-5.816,5.568Zm2.409-18.678a1.911,1.911,0,0,1-1.879-1.974,1.952,1.952,0,0,1,1.879-2.044,1.986,1.986,0,0,1,1.969,2.044A1.947,1.947,0,0,1,10.822,255.659Zm5.082,0a1.917,1.917,0,0,1-1.909-1.974,1.957,1.957,0,0,1,1.909-2.044,1.981,1.981,0,0,1,1.939,2.044A1.941,1.941,0,0,1,15.9,255.659Z" transform="translate(-2.539 -251.288)" fill="#59595c"/>
    <path id="Path_15" data-name="Path 15" d="M61,274.336h-1.85c-3.819,0-5.816-1.515-5.816-5.568V251.641H57.89v17.515a1.347,1.347,0,0,0,1.381,1.515H61Z" transform="translate(-27.931 -251.288)" fill="#59595c"/>
    <path id="Path_16" data-name="Path 16" d="M78.21,281.17a5.692,5.692,0,0,1-4.171-1.374A6.533,6.533,0,0,1,69.6,281.17h-1.41V277.5h2.644a1.588,1.588,0,0,0,1.146-.423V265.311h4.582v10.537a1.481,1.481,0,0,0,1.586,1.656h1.586v3.665Zm-1.821,4.582a2,2,0,0,0-1.968-2.009,2.012,2.012,0,0,0,0,4.018A2,2,0,0,0,76.389,285.751Z" transform="translate(-35.357 -258.122)" fill="#59595c"/>
    <path id="Path_17" data-name="Path 17" d="M98.5,259.887c2.82.212,4.817,1.9,4.817,5.992v8.105H90.039v-3.665h8.724v-5.427c0-1.269-.764-1.692-2-1.692a8.319,8.319,0,0,0-3.319.846l-.03.036-1.028.846-1.058-3.63,10.663-10.361,1.469,4.863Z" transform="translate(-46.278 -250.936)" fill="#59595c"/>
    <path id="Path_18" data-name="Path 18" d="M126.774,275.989a1.416,1.416,0,0,0,1.557,1.515h1.439v3.665h-1.351a3.011,3.011,0,0,1-1.645-.317v.317c0,4.687-2.556,6.591-5.992,6.591a16.523,16.523,0,0,1-2.732-.282c.5-2.291.47-2.044.823-3.63a4.1,4.1,0,0,0,.94.071c1.762,0,2.408-1.163,2.408-2.679V265.311h4.553Z" transform="translate(-60.279 -258.122)" fill="#59595c"/>
    <path id="Path_19" data-name="Path 19" d="M140.66,280.921h2.086v-.7c0-4.652,2.174-8.071,6.051-8.071s6.051,3.418,6.051,8.071a5.629,5.629,0,0,1-.03.7H156.4v3.665h-2.35a5.589,5.589,0,0,1-10.545,0H140.66Zm9.635-.775c0-2.608-.264-4.582-1.5-4.582-1.263,0-1.527,1.974-1.527,4.582s.294,4.476,1.527,4.476S150.294,282.754,150.294,280.146Z" transform="translate(-71.582 -261.538)" fill="#59595c"/>
    <path id="Path_20" data-name="Path 20" d="M171.314,270.671H173.9c1,0,1.351-.74,1.351-1.515V251.641h4.583v17.127c0,4.053-2,5.568-5.816,5.568h-2.7Z" transform="translate(-86.905 -251.288)" fill="#59595c"/>
    <path id="Path_21" data-name="Path 21" d="M195.686,274.336v-22.7h4.553v22.7Z" transform="translate(-99.087 -251.288)" fill="#59595c"/>
    <path id="Path_22" data-name="Path 22" d="M225.9,274.653c-3.114,0-5.493-2.784-5.493-7.4,0-5.322,2.35-8.529,7.05-8.529a9,9,0,0,1,4.994,1.2v11.066h3.055v3.665Zm.558-20.369a1.94,1.94,0,1,0-3.878,0,1.94,1.94,0,1,0,3.878,0Zm1.556,7.753a1.933,1.933,0,0,0-.852-.141c-1.586,0-2.2,1.48-2.2,4.969,0,3.348.764,4.123,2.291,4.123h.793Zm3.5-7.753a1.94,1.94,0,1,0-3.877,0,1.94,1.94,0,1,0,3.877,0Z" transform="translate(-111.445 -251.605)" fill="#59595c"/>
    <path id="Path_23" data-name="Path 23" d="M249.77,277.223h3.966a11.358,11.358,0,0,1-.793-4.44c0-4.652,2.2-8.036,6.051-8.036,3.906,0,6.08,3.383,6.08,8.036,0,4.687-2.2,8.105-6.08,8.105H249.77Zm10.751-4.511c0-2.608-.264-4.581-1.527-4.581s-1.528,1.974-1.528,4.581c0,2.644.294,4.476,1.528,4.476C260.257,277.188,260.521,275.355,260.521,272.712Z" transform="translate(-126.122 -257.84)" fill="#59595c"/>
    <path id="Path_24" data-name="Path 24" d="M300.251,269.121a1.347,1.347,0,0,0,1.381,1.515h2.438V274.3h-2.556a6.8,6.8,0,0,1-3.672-.74,5.33,5.33,0,0,1-2.849.74h-7.872v-3.665h1.615V253.3h4.289v17.339h1.146c1,0,1.5-.494,1.5-1.939V251.57h4.582Z" transform="translate(-144.793 -251.253)" fill="#59595c"/>
    <path id="Path_25" data-name="Path 25" d="M330.257,281.17a5.543,5.543,0,0,1-3.878-1.374,6.532,6.532,0,0,1-4.436,1.374h-1.41V277.5h2.644a1.587,1.587,0,0,0,1.146-.423V265.311h4.582v12.018a1.789,1.789,0,0,0,1.146.388,1.462,1.462,0,0,0,1.556-1.621V265.311h4.583v12.018a1.848,1.848,0,0,0,1.146.388,1.47,1.47,0,0,0,1.586-1.621V265.311h4.553V276.06c0,3-1.821,5.075-4.906,5.075a6.356,6.356,0,0,1-4.435-1.374A5.437,5.437,0,0,1,330.257,281.17Z" transform="translate(-161.495 -258.122)" fill="#59595c"/>
  </g>
  <g id="Group_5" data-name="Group 5" transform="translate(41.259)">
    <g id="Group_3" data-name="Group 3" transform="translate(31.98 43.142)">
      <path id="Path_26" data-name="Path 26" d="M152.246,99.781a57.6,57.6,0,0,1,7.347-13.52h17.434s5.654,7.347,7.336,13.52Z" transform="translate(-149.342 -86.261)" fill="#59595c"/>
      <path id="Path_27" data-name="Path 27" d="M154.781,119.992h-6.771l-1.569,6.4s.335.283,2.61.459,8.27.335,8.482.318C156.615,124.665,154.781,119.992,154.781,119.992Z" transform="translate(-146.44 -103.122)" fill="#59595c"/>
      <path id="Path_28" data-name="Path 28" d="M203.077,119.992h6.772l1.569,6.4s-.335.283-2.61.459-8.27.335-8.482.318C201.243,124.665,203.077,119.992,203.077,119.992Z" transform="translate(-173.376 -103.122)" fill="#59595c"/>
    </g>
    <g id="Group_4" data-name="Group 4">
      <path id="Path_29" data-name="Path 29" d="M131.729,23.931V.014A127.285,127.285,0,0,0,113.01,17.467a121,121,0,0,0-11.184,14.888c-1.139,1.766-2.2,3.559-3.227,5.36-1.041,1.781-2.072,3.6-3.031,5.46a121.4,121.4,0,0,0-7.312,17.14A127.033,127.033,0,0,0,82.5,85.24L104.614,72.5C105.735,44.759,125.349,28.5,131.729,23.931Z" transform="translate(-82.496 -0.007)" fill="#529b44"/>
      <path id="Path_30" data-name="Path 30" d="M160.742,148.636c-23.153,8.2-37.082,4.537-51.192.461l-23.3,13.526a128.083,128.083,0,0,0,24.519,7.458,123.513,123.513,0,0,0,18.482,2.181c2.093.091,4.187.116,6.25.091,2.075.016,4.156-.016,6.248-.113a122.2,122.2,0,0,0,18.486-2.274,127.491,127.491,0,0,0,24.472-7.534Z" transform="translate(-84.374 -74.299)" fill="#8b5422"/>
      <path id="Path_31" data-name="Path 31" d="M215.088,72.482l22.134,12.751a127.161,127.161,0,0,0-5.759-24.925,121.014,121.014,0,0,0-7.314-17.139c-.971-1.859-2-3.678-3.032-5.46-1.029-1.8-2.09-3.594-3.223-5.36a121.268,121.268,0,0,0-11.18-14.888A127.413,127.413,0,0,0,187.971,0V23.827C210.189,42.107,213.615,59,215.088,72.482Z" transform="translate(-135.22)" fill="#0395b5"/>
    </g>
  </g>
</svg>
