<svg xmlns="http://www.w3.org/2000/svg" width="249.089" height="68.396" viewBox="0 0 249.089 68.396"><defs><style>.a{fill:#4f8c31;}.b{fill:#0086a9;}.c{fill:#7c400e;}.d{fill:#fff;}.e{fill:#464749;}</style></defs><g transform="translate(177.947)"><path class="a" d="M1670.4-290.434a84.414,84.414,0,0,0-7.8,10.384c-.794,1.231-1.534,2.482-2.251,3.738s-1.446,2.511-2.115,3.808a84.742,84.742,0,0,0-5.1,11.955,88.587,88.587,0,0,0-4.017,17.384l22.986-13.244a71.47,71.47,0,0,1,4.742-10.357l.013,0v-.015a71.147,71.147,0,0,1,6.6-9.259v-26.565a88.828,88.828,0,0,0-13.056,12.173" transform="translate(-1649.115 302.612)"/><path class="b" d="M1734.9-276.052a70.653,70.653,0,0,1,6.612,9.262l0,.016.005,0a71.346,71.346,0,0,1,4.74,10.357l22.99,13.243a88.7,88.7,0,0,0-4.017-17.384,84.389,84.389,0,0,0-5.1-11.954c-.677-1.3-1.391-2.565-2.115-3.808s-1.458-2.506-2.248-3.738a84.54,84.54,0,0,0-7.8-10.384,88.845,88.845,0,0,0-13.072-12.178Z" transform="translate(-1698.109 302.618)"/><path class="c" d="M1675.145-190.126a71.507,71.507,0,0,0,11.339,1.066l.017,0h.01a70.858,70.858,0,0,0,11.332-1.1l23,13.238a88.9,88.9,0,0,1-17.068,5.255,85.2,85.2,0,0,1-12.894,1.586c-1.459.068-2.911.09-4.358.079-1.439.017-2.9,0-4.359-.063a86.162,86.162,0,0,1-12.89-1.521,89.338,89.338,0,0,1-17.1-5.2Z" transform="translate(-1650.86 238.391)"/><path class="d" d="M1694.086-168.49a4.627,4.627,0,0,1-2.964-1.591l1.089-1.2a4.064,4.064,0,0,0,2.037,1.117c.906.149,1.566-.2,1.681-.883a.959.959,0,0,0-.154-.7c-.482-.681-2.11-1.179-2.923-2.32a2.425,2.425,0,0,1-.441-1.884c.281-1.675,1.814-2.539,3.685-2.22a4.327,4.327,0,0,1,2.761,1.5l-1.114,1.12a3.61,3.61,0,0,0-1.791-1.018c-.821-.136-1.473.157-1.572.747a.705.705,0,0,0,.143.6c.371.516,2.214,1.26,3.018,2.384a2.386,2.386,0,0,1,.42,1.949c-.3,1.755-1.837,2.745-3.876,2.4" transform="translate(-1673.106 231.583)"/><path class="d" d="M1716.377-166.028l-.573-2.009-3.384-.212-.81,1.917-2.011-.12,3.989-9.2,2,.124,2.856,9.626Zm-1.941-7.434-1.428,3.709,2.375.144Z" transform="translate(-1683.657 230.108)"/><path class="d" d="M1736.31-165.994a4.649,4.649,0,0,1-3.224-.971l.827-1.386a4.1,4.1,0,0,0,2.228.685c.915-.038,1.49-.519,1.463-1.21a.993.993,0,0,0-.291-.651c-.609-.573-2.307-.733-3.333-1.683a2.434,2.434,0,0,1-.815-1.755c-.069-1.689,1.261-2.845,3.156-2.916a4.351,4.351,0,0,1,3.007.913l-.854,1.324a3.632,3.632,0,0,0-1.969-.636c-.834.029-1.413.45-1.382,1.043a.713.713,0,0,0,.253.561c.472.433,2.423.782,3.433,1.721a2.354,2.354,0,0,1,.811,1.828c.071,1.777-1.236,3.055-3.309,3.136" transform="translate(-1697.072 230.24)"/><path class="d" d="M1756.8-167.968c-2.711.408-4.87-1.329-5.313-4.276-.429-2.874,1.123-5.093,3.825-5.5,2.762-.417,4.853,1.322,5.27,4.12.457,3.022-1.126,5.251-3.782,5.654m-1.317-8.151c-1.49.233-2.265,1.755-1.971,3.694.288,1.961,1.6,3.018,3.068,2.792,1.929-.294,2.229-2.2,2-3.7-.278-1.845-1.534-3.016-3.1-2.787" transform="translate(-1707.541 231.334)"/><path class="d" d="M1694.086-168.49a4.627,4.627,0,0,1-2.964-1.591l1.089-1.2a4.064,4.064,0,0,0,2.037,1.117c.906.149,1.566-.2,1.681-.883a.959.959,0,0,0-.154-.7c-.482-.681-2.11-1.179-2.923-2.32a2.425,2.425,0,0,1-.441-1.884c.281-1.675,1.814-2.539,3.685-2.22a4.327,4.327,0,0,1,2.761,1.5l-1.114,1.12a3.61,3.61,0,0,0-1.791-1.018c-.821-.136-1.473.157-1.572.747a.705.705,0,0,0,.143.6c.371.516,2.214,1.26,3.018,2.384a2.386,2.386,0,0,1,.42,1.949c-.3,1.755-1.837,2.745-3.876,2.4" transform="translate(-1673.106 231.583)"/><path class="d" d="M1716.377-166.028l-.573-2.009-3.384-.212-.81,1.917-2.011-.12,3.989-9.2,2,.124,2.856,9.626Zm-1.941-7.434-1.428,3.709,2.375.144Z" transform="translate(-1683.657 230.108)"/><path class="d" d="M1736.31-165.994a4.649,4.649,0,0,1-3.224-.971l.827-1.386a4.1,4.1,0,0,0,2.228.685c.915-.038,1.49-.519,1.463-1.21a.993.993,0,0,0-.291-.651c-.609-.573-2.307-.733-3.333-1.683a2.434,2.434,0,0,1-.815-1.755c-.069-1.689,1.261-2.845,3.156-2.916a4.351,4.351,0,0,1,3.007.913l-.854,1.324a3.632,3.632,0,0,0-1.969-.636c-.834.029-1.413.45-1.382,1.043a.713.713,0,0,0,.253.561c.472.433,2.423.782,3.433,1.721a2.354,2.354,0,0,1,.811,1.828c.071,1.777-1.236,3.055-3.309,3.136" transform="translate(-1697.072 230.24)"/><path class="d" d="M1756.8-167.968c-2.711.408-4.87-1.329-5.313-4.276-.429-2.874,1.123-5.093,3.825-5.5,2.762-.417,4.853,1.322,5.27,4.12.457,3.022-1.126,5.251-3.782,5.654m-1.317-8.151c-1.49.233-2.265,1.755-1.971,3.694.288,1.961,1.6,3.018,3.068,2.792,1.929-.294,2.229-2.2,2-3.7-.278-1.845-1.534-3.016-3.1-2.787" transform="translate(-1707.541 231.334)"/></g><g transform="translate(0 19.105)"><path class="e" d="M1241.713-181.535l.37-2.244a9.441,9.441,0,0,0,4.094.956,4.606,4.606,0,0,0,2.283-.494,1.822,1.822,0,0,0,.973-1.683,1.8,1.8,0,0,0-.672-1.386,12.485,12.485,0,0,0-2.584-1.518,14.2,14.2,0,0,1-3.087-1.848,3.323,3.323,0,0,1-1.208-2.541,3.777,3.777,0,0,1,1.61-3.365,6.556,6.556,0,0,1,3.793-.957,8.913,8.913,0,0,1,3.859.858l-.369,2.145a8.894,8.894,0,0,0-3.557-.924q-2.92,0-2.92,1.947a1.492,1.492,0,0,0,.621,1.171,13.347,13.347,0,0,0,2.4,1.369,13.894,13.894,0,0,1,3.188,1.88,3.509,3.509,0,0,1,1.309,2.705,4.263,4.263,0,0,1-1.846,3.728,6.517,6.517,0,0,1-3.793,1.023,11.04,11.04,0,0,1-4.464-.825" transform="translate(-1241.713 222.712)"/><path class="e" d="M1279.538-176.469l.269,1.254a4.144,4.144,0,0,1-1.779.363,2,2,0,0,1-1.343-.428,1.439,1.439,0,0,1-.5-1.155,3.44,3.44,0,0,1-3.222,1.584q-3.558,0-3.557-3.2a3.256,3.256,0,0,1,1.712-3.068,6.66,6.66,0,0,1,3.256-.693,15.5,15.5,0,0,1,1.812.132v-1.023a1.391,1.391,0,0,0-.587-1.287,4.3,4.3,0,0,0-2.1-.363,9.446,9.446,0,0,0-3.29.594l.37-1.815a9.864,9.864,0,0,1,3.558-.594,4.588,4.588,0,0,1,3.322.956,4.237,4.237,0,0,1,.94,3.1V-177q0,.594.571.594a1.911,1.911,0,0,0,.57-.066m-3.356-2.573v-1.089q-1.108-.1-1.611-.1a3.878,3.878,0,0,0-2.148.462,1.674,1.674,0,0,0-.671,1.484q0,1.618,1.98,1.617a2.426,2.426,0,0,0,1.746-.676,2.257,2.257,0,0,0,.7-1.7" transform="translate(-1257.42 216.788)"/><path class="e" d="M1308.214-176.209l.235,1.254a3.743,3.743,0,0,1-1.779.363,1.953,1.953,0,0,1-1.343-.445,1.49,1.49,0,0,1-.5-1.172,6.638,6.638,0,0,1-1.846,1.172,4.9,4.9,0,0,1-1.913.445,3.642,3.642,0,0,1-2.584-.726,4.119,4.119,0,0,1-.772-2.837v-7.555h2.249v7.325a2.449,2.449,0,0,0,.285,1.418,1.377,1.377,0,0,0,1.124.363,4.909,4.909,0,0,0,1.93-.478,3.7,3.7,0,0,0,1.527-1.072v-7.555h2.215v8.974q0,.593.571.593a2.263,2.263,0,0,0,.6-.066" transform="translate(-1273.476 216.528)"/><path class="e" d="M1337.928-182.048l.3,1.254a4.524,4.524,0,0,1-1.812.363,1.992,1.992,0,0,1-1.36-.428,1.5,1.5,0,0,1-.487-1.188q-.739,1.616-3.692,1.616a3.965,3.965,0,0,1-3.155-1.352,6.3,6.3,0,0,1-1.242-4.256,6.212,6.212,0,0,1,1.342-4.256,4.529,4.529,0,0,1,3.592-1.452,10.208,10.208,0,0,1,3.155.429V-196h2.215v13.428q0,.594.571.594a2.127,2.127,0,0,0,.57-.066m-3.356-3.134V-189.5a9.543,9.543,0,0,0-2.618-.429,2.923,2.923,0,0,0-2.383.859,4.62,4.62,0,0,0-.705,2.9,5.222,5.222,0,0,0,.638,3,2.367,2.367,0,0,0,2.081.858,2.857,2.857,0,0,0,2.316-.957,2.861,2.861,0,0,0,.671-1.913" transform="translate(-1289.797 222.367)"/><path class="e" d="M1360.513-195.76a1.386,1.386,0,0,1-.4,1.007,1.35,1.35,0,0,1-1.007.412,1.421,1.421,0,0,1-1.007-.412,1.263,1.263,0,0,1-.436-.941,1.384,1.384,0,0,1,.436-1.023,1.4,1.4,0,0,1,1.007-.429,1.35,1.35,0,0,1,1.007.412,1.346,1.346,0,0,1,.4.973m.805,13.065.3,1.254a3.914,3.914,0,0,1-1.846.363,1.888,1.888,0,0,1-1.326-.445,1.512,1.512,0,0,1-.487-1.172v-9.5h2.249v8.974q0,.593.537.593a2.114,2.114,0,0,0,.57-.066" transform="translate(-1307.481 223.014)"/><path class="e" d="M1390.541-181.535l.37-2.244a9.437,9.437,0,0,0,4.094.956,4.6,4.6,0,0,0,2.283-.494,1.823,1.823,0,0,0,.973-1.683,1.8,1.8,0,0,0-.671-1.386A12.5,12.5,0,0,0,1395-187.9a14.21,14.21,0,0,1-3.087-1.848,3.325,3.325,0,0,1-1.208-2.541,3.776,3.776,0,0,1,1.611-3.365,6.553,6.553,0,0,1,3.793-.957,8.913,8.913,0,0,1,3.859.858l-.369,2.145a8.891,8.891,0,0,0-3.557-.924q-2.92,0-2.92,1.947a1.492,1.492,0,0,0,.621,1.171,13.34,13.34,0,0,0,2.4,1.369,13.906,13.906,0,0,1,3.189,1.88,3.51,3.51,0,0,1,1.309,2.705,4.263,4.263,0,0,1-1.846,3.728A6.52,6.52,0,0,1,1395-180.71a11.038,11.038,0,0,1-4.464-.825" transform="translate(-1326.132 222.712)"/><path class="e" d="M1423.309-181.471l.335,1.65a7.574,7.574,0,0,1-2.484.428,2.2,2.2,0,0,1-1.779-.643,3.391,3.391,0,0,1-.536-2.16v-6.566h-1.779l.369-1.748h1.41v-2.936l2.215-.726v3.662h2.315v1.748h-2.315v6.3a1.613,1.613,0,0,0,.218,1.007,1.246,1.246,0,0,0,.923.248,2.477,2.477,0,0,0,1.108-.264" transform="translate(-1341.178 221.328)"/><path class="e" d="M1446.2-176.469l.269,1.254a4.141,4.141,0,0,1-1.779.363,2,2,0,0,1-1.343-.428,1.439,1.439,0,0,1-.5-1.155,3.44,3.44,0,0,1-3.222,1.584q-3.559,0-3.558-3.2a3.256,3.256,0,0,1,1.711-3.068,6.659,6.659,0,0,1,3.256-.693,15.506,15.506,0,0,1,1.813.132v-1.023a1.391,1.391,0,0,0-.587-1.287,4.306,4.306,0,0,0-2.1-.363,9.444,9.444,0,0,0-3.29.594l.37-1.815a9.86,9.86,0,0,1,3.558-.594,4.588,4.588,0,0,1,3.322.956,4.238,4.238,0,0,1,.94,3.1V-177q0,.594.57.594a1.911,1.911,0,0,0,.571-.066m-3.356-2.573v-1.089q-1.109-.1-1.611-.1a3.88,3.88,0,0,0-2.148.462,1.674,1.674,0,0,0-.671,1.484q0,1.618,1.98,1.617a2.427,2.427,0,0,0,1.746-.676,2.256,2.256,0,0,0,.7-1.7" transform="translate(-1351.955 216.788)"/><path class="e" d="M1475.047-176.468l.269,1.254a3.833,3.833,0,0,1-1.813.363,2,2,0,0,1-1.343-.428,1.48,1.48,0,0,1-.5-1.188v-5.939a2.279,2.279,0,0,0-.3-1.386,1.392,1.392,0,0,0-1.108-.363,4.818,4.818,0,0,0-1.846.463,6.092,6.092,0,0,0-1.779,1.121v7.555h-2.249V-185.97h2.249v1.452a6.726,6.726,0,0,1,1.913-1.172,5.383,5.383,0,0,1,2.048-.479,3.516,3.516,0,0,1,2.551.726,4.124,4.124,0,0,1,.772,2.837V-177q0,.593.537.593a2.265,2.265,0,0,0,.6-.066" transform="translate(-1368.012 216.787)"/><path class="e" d="M1505.057-182.048l.3,1.254a4.522,4.522,0,0,1-1.812.363,1.993,1.993,0,0,1-1.36-.428,1.5,1.5,0,0,1-.486-1.188q-.739,1.616-3.692,1.616a3.965,3.965,0,0,1-3.155-1.352,6.3,6.3,0,0,1-1.242-4.256,6.209,6.209,0,0,1,1.342-4.256,4.528,4.528,0,0,1,3.591-1.452,10.208,10.208,0,0,1,3.155.429V-196h2.216v13.428q0,.594.57.594a2.133,2.133,0,0,0,.571-.066m-3.357-3.134V-189.5a9.544,9.544,0,0,0-2.618-.429,2.923,2.923,0,0,0-2.383.859,4.625,4.625,0,0,0-.7,2.9,5.226,5.226,0,0,0,.638,3,2.368,2.368,0,0,0,2.081.858,2.857,2.857,0,0,0,2.316-.957,2.859,2.859,0,0,0,.671-1.913" transform="translate(-1384.597 222.367)"/><path class="e" d="M1534.228-176.469l.268,1.254a4.145,4.145,0,0,1-1.779.363,2,2,0,0,1-1.343-.428,1.44,1.44,0,0,1-.5-1.155,3.439,3.439,0,0,1-3.222,1.584q-3.558,0-3.558-3.2a3.256,3.256,0,0,1,1.711-3.068,6.663,6.663,0,0,1,3.256-.693,15.5,15.5,0,0,1,1.812.132v-1.023a1.39,1.39,0,0,0-.588-1.287,4.3,4.3,0,0,0-2.1-.363,9.441,9.441,0,0,0-3.29.594l.37-1.815a9.861,9.861,0,0,1,3.557-.594,4.588,4.588,0,0,1,3.322.956,4.235,4.235,0,0,1,.94,3.1V-177q0,.594.571.594a1.918,1.918,0,0,0,.571-.066m-3.357-2.573v-1.089q-1.108-.1-1.611-.1a3.876,3.876,0,0,0-2.148.462,1.673,1.673,0,0,0-.672,1.484q0,1.618,1.98,1.617a2.424,2.424,0,0,0,1.745-.676,2.255,2.255,0,0,0,.7-1.7" transform="translate(-1401.885 216.788)"/><path class="e" d="M1554.647-175.018h-2.25v-10.954h2.25v1.42a2.768,2.768,0,0,1,.889-1.172,1.958,1.958,0,0,1,1.193-.446,4.3,4.3,0,0,1,2.081.594l-.4,1.815a5.988,5.988,0,0,0-1.846-.33q-1.107,0-1.913,1.452Z" transform="translate(-1417.94 216.788)"/><path class="e" d="M1581.681-182.048l.3,1.254a4.525,4.525,0,0,1-1.812.363,1.993,1.993,0,0,1-1.36-.428,1.5,1.5,0,0,1-.487-1.188q-.74,1.616-3.692,1.616a3.965,3.965,0,0,1-3.155-1.352,6.305,6.305,0,0,1-1.242-4.256,6.207,6.207,0,0,1,1.343-4.256,4.526,4.526,0,0,1,3.591-1.452,10.214,10.214,0,0,1,3.156.429V-196h2.215v13.428c0,.4.189.594.571.594a2.128,2.128,0,0,0,.57-.066m-3.356-3.134V-189.5a9.552,9.552,0,0,0-2.618-.429,2.923,2.923,0,0,0-2.383.859,4.623,4.623,0,0,0-.7,2.9,5.221,5.221,0,0,0,.638,3,2.367,2.367,0,0,0,2.081.858,2.855,2.855,0,0,0,2.315-.957,2.86,2.86,0,0,0,.672-1.913" transform="translate(-1428.06 222.367)"/><path class="e" d="M1601.024-175.347l.5-1.913a7.32,7.32,0,0,0,1.46.462,6.963,6.963,0,0,0,1.461.2q2.685,0,2.684-1.584a1.048,1.048,0,0,0-.469-.874,8.2,8.2,0,0,0-1.846-.841,8.918,8.918,0,0,1-2.45-1.22,2.455,2.455,0,0,1-1.008-2.013,2.571,2.571,0,0,1,1.142-2.244,5.67,5.67,0,0,1,3.256-.792,8,8,0,0,1,3.155.561l-.37,1.782a6.5,6.5,0,0,0-2.719-.594q-2.248,0-2.248,1.155a.869.869,0,0,0,.419.726,8.263,8.263,0,0,0,1.661.759,10.014,10.014,0,0,1,2.618,1.287,2.861,2.861,0,0,1,1.074,2.309,2.859,2.859,0,0,1-1.477,2.541,5.5,5.5,0,0,1-3.021.792,12.885,12.885,0,0,1-3.827-.5" transform="translate(-1445.523 216.787)"/><path class="e" d="M1253.716-254.28a1.258,1.258,0,0,0,.934-.4,1.3,1.3,0,0,0,.391-.935,1.247,1.247,0,0,0-.391-.918,1.285,1.285,0,0,0-.934-.385,1.284,1.284,0,0,0-.934.385,1.244,1.244,0,0,0-.391.918,1.3,1.3,0,0,0,.391.935,1.258,1.258,0,0,0,.934.4" transform="translate(-1247.77 256.919)"/><path class="e" d="M1245.984-254.28a1.26,1.26,0,0,0,.933-.4,1.3,1.3,0,0,0,.391-.935,1.246,1.246,0,0,0-.391-.918,1.286,1.286,0,0,0-.933-.385,1.343,1.343,0,0,0-.951.385,1.221,1.221,0,0,0-.408.918,1.272,1.272,0,0,0,.408.935,1.315,1.315,0,0,0,.951.4" transform="translate(-1243.365 256.919)"/><path class="e" d="M1255.1-234.365a3.442,3.442,0,0,0,1.325-2.974v-7.382h-2.173v7.483q0,1.471-1.6,1.47h-2.4v-8.952h-4.312a4.046,4.046,0,0,0-2.58.8,3.635,3.635,0,0,0-1.256,2.973v3.542a3.767,3.767,0,0,0,.883,2.639,4.148,4.148,0,0,0,3.192,1.136H1247l1.052-1.4v1.4h4.434a4.359,4.359,0,0,0,2.614-.734m-7.048-1.4h-2.037a1.879,1.879,0,0,1-1.307-.367,1.642,1.642,0,0,1-.39-1.236v-3.641a1.384,1.384,0,0,1,1.561-1.57h2.173Z" transform="translate(-1241.941 250)"/><path class="e" d="M1261.515-211.608a1.285,1.285,0,0,0-.933.384,1.242,1.242,0,0,0-.39.919,1.257,1.257,0,0,0,.373.935,1.3,1.3,0,0,0,.951.367,1.287,1.287,0,0,0,.934-.384,1.246,1.246,0,0,0,.391-.918,1.246,1.246,0,0,0-.391-.919,1.288,1.288,0,0,0-.934-.384" transform="translate(-1252.194 231.217)"/><path class="e" d="M1269.315-211.608a1.325,1.325,0,0,0-.967.384,1.244,1.244,0,0,0-.391.919,1.23,1.23,0,0,0,.391.935,1.357,1.357,0,0,0,.967.367,1.232,1.232,0,0,0,.917-.384,1.272,1.272,0,0,0,.374-.918,1.244,1.244,0,0,0-.391-.919,1.246,1.246,0,0,0-.9-.384" transform="translate(-1256.599 231.217)"/><path class="e" d="M1282.5-244.722h-1.6v2.138h1.46q3.191,0,3.191,3.207v2.1q0,1.5-1.6,1.5H1279v2.137h4.787a3.936,3.936,0,0,0,2.988-1.069,3.452,3.452,0,0,0,.917-2.472v-2.439a4.885,4.885,0,0,0-1.426-3.641,5.151,5.151,0,0,0-3.768-1.47" transform="translate(-1262.864 250.001)"/><path class="e" d="M1347.406-243.316a1.7,1.7,0,0,1-.39,1.269,1.944,1.944,0,0,1-1.341.367h-1.63v-8.952h-2.173v8.952H1338.1v-8.952h-2.172v8.952h-3.8v-8.952h-2.139v8.952h-6.852a30.5,30.5,0,0,1,3.6-3.341v-.267a5.332,5.332,0,0,0-1.426-3.876,5.392,5.392,0,0,0-4.04-1.6,5.611,5.611,0,0,0-3.633,1.2,5.126,5.126,0,0,0-1.8,4.21v.334a30.008,30.008,0,0,1,3.564,3.341h-6.614v-8.952h-4.312a3.943,3.943,0,0,0-2.716.9,3.652,3.652,0,0,0-1.121,2.873v3.542a3.665,3.665,0,0,0,.986,2.739,4.228,4.228,0,0,0,3.089,1.035h1.868v.668q0,3.241-4.55,3.241h-.34l1.46,1.938a6.929,6.929,0,0,0,4.142-1.369,5.381,5.381,0,0,0,1.493-4.21v-.267h6.614a3.41,3.41,0,0,0,1.9-.634,3.472,3.472,0,0,0,1.867.634h22.572a3.974,3.974,0,0,0,2.784-.9,3.43,3.43,0,0,0,1.052-2.706v-11.993h-2.172Zm-36.824,1.636h-1.7a2.752,2.752,0,0,1-1.629-.334,1.636,1.636,0,0,1-.408-1.3v-3.542a1.81,1.81,0,0,1,.357-1.253,1.591,1.591,0,0,1,1.205-.383h2.173Zm10.722-1.136a26.789,26.789,0,0,0-3.293-3.273,2.612,2.612,0,0,1,1.018-1.77,3.593,3.593,0,0,1,2.275-.769,3.517,3.517,0,0,1,1.935.568,2.731,2.731,0,0,1,1.29,1.971,23.644,23.644,0,0,0-3.225,3.273" transform="translate(-1277.407 255.911)"/><path class="e" d="M1414.033-238.34l2.207-1.2v-15.6h-2.207Z" transform="translate(-1339.458 255.912)"/><path class="e" d="M1446.673-254.236a1.315,1.315,0,0,0,.95-.4,1.236,1.236,0,0,0,.408-.9,1.219,1.219,0,0,0-.408-.919,1.343,1.343,0,0,0-.95-.385,1.244,1.244,0,0,0-.9.385,1.241,1.241,0,0,0-.391.919,1.24,1.24,0,0,0,.391.918,1.242,1.242,0,0,0,.9.384" transform="translate(-1357.24 256.875)"/><path class="e" d="M1440.627-237.239q0,1.472-1.562,1.47H1430.9a1.6,1.6,0,0,1-1.188-.384,1.752,1.752,0,0,1-.373-1.252v-4.745l-2.207,1.4v3.241a3.954,3.954,0,0,0,.917,2.772,3.914,3.914,0,0,0,3.022,1.1h7.822a4.062,4.062,0,0,0,2.852-.935,3.581,3.581,0,0,0,1.053-2.773v-7.382h-2.173Z" transform="translate(-1346.889 250)"/><path class="e" d="M1438.9-254.28a1.258,1.258,0,0,0,.933-.4,1.3,1.3,0,0,0,.391-.935,1.245,1.245,0,0,0-.391-.918,1.285,1.285,0,0,0-.933-.385,1.342,1.342,0,0,0-.951.385,1.221,1.221,0,0,0-.407.918,1.272,1.272,0,0,0,.407.935,1.313,1.313,0,0,0,.951.4" transform="translate(-1352.789 256.919)"/><path class="e" d="M1488.585-254.28a1.259,1.259,0,0,0,.934-.4,1.3,1.3,0,0,0,.391-.935,1.246,1.246,0,0,0-.391-.918,1.285,1.285,0,0,0-.934-.385,1.342,1.342,0,0,0-.951.385,1.22,1.22,0,0,0-.408.918,1.272,1.272,0,0,0,.408.935,1.313,1.313,0,0,0,.951.4" transform="translate(-1380.975 256.919)"/><path class="e" d="M1541.97-238.34l2.207-1.2v-15.6h-2.207Z" transform="translate(-1412.027 255.912)"/><path class="e" d="M1574.905-243.317a1.694,1.694,0,0,1-.39,1.269,1.937,1.937,0,0,1-1.341.367h-.631v-5.311a3.59,3.59,0,0,0-1.086-2.774,4.19,4.19,0,0,0-2.954-1,4.613,4.613,0,0,0-2.615.7,3.4,3.4,0,0,0-1.425,3.074v5.311h-3.769v-8.952h-4.312a3.95,3.95,0,0,0-2.717.9,3.658,3.658,0,0,0-1.12,2.873v3.542a3.667,3.667,0,0,0,.985,2.739,4.23,4.23,0,0,0,3.089,1.036h1.868v.668q0,3.24-4.55,3.241h-.339l1.46,1.937a6.923,6.923,0,0,0,4.142-1.37,5.377,5.377,0,0,0,1.494-4.209v-.267h3.8a3.1,3.1,0,0,0,1.256,1.938,4.383,4.383,0,0,0,2.75.835,4.559,4.559,0,0,0,2.682-.719,3.057,3.057,0,0,0,1.256-2.054h.8a3.977,3.977,0,0,0,2.785-.9,3.433,3.433,0,0,0,1.052-2.707v-11.993h-2.174Zm-16.418,1.636h-1.7a2.749,2.749,0,0,1-1.63-.334,1.635,1.635,0,0,1-.407-1.3v-3.542a1.812,1.812,0,0,1,.356-1.253,1.592,1.592,0,0,1,1.205-.383h2.173Zm11.917,1.169q0,1.637-1.9,1.637t-1.9-1.637v-6.514q0-1.637,1.9-1.638t1.9,1.638Z" transform="translate(-1418.025 255.912)"/><path class="e" d="M1614.788-255.143v16.8l2.207-1.2v-15.6Z" transform="translate(-1453.332 255.911)"/><path class="e" d="M1497.161-249.631a3.392,3.392,0,0,0-2.547-1.1,4.69,4.69,0,0,0-1.324.2l-5.161,1.8v-1.9h-2.138v8.952h-3.769v-8.952h-4.38a3.89,3.89,0,0,0-2.614.868,3.639,3.639,0,0,0-1.154,2.906v5.178h-1.792q-1.189,0-1.189-1.37v-12.093h-2.207v12.193a3.274,3.274,0,0,0,.883,2.339,3.264,3.264,0,0,0,2.513,1.069h8.812l1.052-1.4v1.4h3.811v2.072l2.173-1.136v-.936h6.18a3.777,3.777,0,0,0,2.919-1.1,3.481,3.481,0,0,0,.883-2.438v-4.276a3.138,3.138,0,0,0-.951-2.271m-17.145,7.95h-3.735v-5.178q0-1.637,1.562-1.636h2.173Zm15.923-1.436q0,1.437-1.562,1.436h-6.247v-3.674a1.567,1.567,0,0,1,.22-.969,2.608,2.608,0,0,1,1.036-.569l4.176-1.47a3.171,3.171,0,0,1,1.121-.234,1.141,1.141,0,0,1,.917.4,1.6,1.6,0,0,1,.339,1.069Z" transform="translate(-1370.571 255.912)"/></g></svg>